<svg width="24" height="24" viewBox="0 0 24 24" fill="none" xmlns="http://www.w3.org/2000/svg">
<path d="M20.4375 6.375V20.4375C20.4375 21.9937 19.1812 23.25 17.625 23.25H6.375C4.81875 23.25 3.5625 21.9937 3.5625 20.4375V3.5625C3.5625 2.00625 4.81875 0.75 6.375 0.75H14.8125L20.4375 6.375Z" fill="white"/>
<path d="M17.6234 23.4734H6.37344C4.68594 23.4734 3.33594 22.1047 3.33594 20.4359V3.56094C3.33594 1.87344 4.68594 0.523438 6.37344 0.523438H14.8109C14.8672 0.523438 14.9234 0.542188 14.9797 0.598438L20.6047 6.22344C20.6422 6.26094 20.6797 6.33594 20.6797 6.39219V20.4547C20.6609 22.1234 19.3109 23.4734 17.6234 23.4734ZM6.37344 0.973437C4.94844 0.973437 3.78594 2.13594 3.78594 3.56094V20.4359C3.78594 21.8609 4.94844 23.0234 6.37344 23.0234H17.6234C19.0484 23.0234 20.2109 21.8609 20.2109 20.4359V6.46719L14.7172 0.973437H6.37344Z" fill="#1D1D1D"/>
<path d="M17.6234 20.6609H6.37344C6.24219 20.6609 6.14844 20.5484 6.14844 20.4359C6.14844 20.3234 6.26094 20.2109 6.37344 20.2109H17.6234C17.7547 20.2109 17.8484 20.3234 17.8484 20.4359C17.8484 20.5484 17.7547 20.6609 17.6234 20.6609ZM17.6234 18.4109H6.37344C6.24219 18.4109 6.14844 18.2984 6.14844 18.1859C6.14844 18.0734 6.26094 17.9609 6.37344 17.9609H17.6234C17.7547 17.9609 17.8484 18.0734 17.8484 18.1859C17.8484 18.2984 17.7547 18.4109 17.6234 18.4109ZM17.6234 16.1609H6.37344C6.24219 16.1609 6.14844 16.0484 6.14844 15.9359C6.14844 15.8234 6.26094 15.7109 6.37344 15.7109H17.6234C17.7547 15.7109 17.8484 15.8234 17.8484 15.9359C17.8484 16.0484 17.7547 16.1609 17.6234 16.1609Z" fill="#1D1D1D"/>
<path opacity="0.2" d="M20.4375 7.125V6.375L14.8125 0.75H14.0625V3.5625C14.0625 5.53125 15.6562 7.125 17.625 7.125H20.4375Z" fill="#1D1D1D"/>
<path d="M14.8125 3.5625C14.8125 5.11875 16.0687 6.375 17.625 6.375H20.4375L14.8125 0.75V3.5625Z" fill="#CC2529"/>
<path d="M20.4375 6.60156H17.625C15.9375 6.60156 14.5875 5.23281 14.5875 3.56406V0.751562C14.5875 0.657813 14.6437 0.564062 14.7375 0.526563C14.8312 0.489063 14.925 0.507812 15 0.582812L20.625 6.20781C20.7 6.28281 20.7187 6.37656 20.6812 6.47031C20.625 6.54531 20.5312 6.60156 20.4375 6.60156ZM15.0375 1.31406V3.56406C15.0375 4.98906 16.2 6.15156 17.625 6.15156H19.875L15.0375 1.31406ZM7.33125 13.2016C7.33125 13.3516 7.21875 13.4266 7.0875 13.4266C6.9375 13.4266 6.84375 13.3516 6.84375 13.2016V9.84531C6.84375 9.43281 7.0125 9.26406 7.3875 9.26406H8.56875C9.4125 9.26406 9.88125 9.69531 9.88125 10.4453C9.88125 11.2328 9.39375 11.7016 8.55 11.7016H7.35V13.2016H7.33125ZM8.5125 11.2516C9.05625 11.2516 9.3375 10.9703 9.3375 10.4453C9.3375 9.97656 9.0375 9.69531 8.5125 9.69531H7.5C7.3875 9.69531 7.33125 9.77031 7.33125 9.88281V11.2516H8.5125ZM10.5375 9.84531C10.5375 9.43281 10.7062 9.26406 11.0812 9.26406H12.0187C13.1812 9.26406 13.875 10.0141 13.875 11.2891C13.875 12.6016 13.1812 13.3891 12.0187 13.3891H11.0812C10.7062 13.3891 10.5375 13.2203 10.5375 12.8266V9.84531ZM11.0437 12.7516C11.0437 12.8641 11.1 12.9391 11.2125 12.9391H12C12.8625 12.9391 13.3688 12.3391 13.3688 11.2891C13.3688 10.2766 12.9 9.71406 12.0187 9.71406H11.2312C11.1375 9.71406 11.0625 9.77031 11.0625 9.88281V12.7516H11.0437ZM15.1312 13.2016C15.1312 13.3516 15.0188 13.4266 14.8687 13.4266C14.7188 13.4266 14.625 13.3516 14.625 13.2016V9.82656C14.625 9.41406 14.7937 9.26406 15.1687 9.26406H17.2687C17.4187 9.26406 17.4937 9.35781 17.4937 9.48906C17.4937 9.62031 17.4187 9.71406 17.2687 9.71406H15.2812C15.1875 9.71406 15.1125 9.77031 15.1125 9.88281V11.0266H16.95C17.0812 11.0266 17.1562 11.1203 17.1562 11.2516C17.1562 11.3828 17.0812 11.4766 16.95 11.4766H15.1125V13.2016H15.1312Z" fill="#1D1D1D"/>
</svg>
