<svg width="20" height="20" viewBox="0 0 20 20" fill="none" xmlns="http://www.w3.org/2000/svg">
<path d="M15.3627 5.65508L15.3646 5.66464L15.3668 5.67413C15.4287 5.9425 15.4591 6.24368 15.4591 6.60026V10.8919C15.4591 12.0561 15.1296 12.7849 14.6505 13.2298C14.163 13.6825 13.4216 13.9336 12.4174 13.9336H5.09245C4.7534 13.9336 4.44231 13.9034 4.16298 13.8405L4.14387 13.8362L4.12453 13.8331C3.96649 13.8078 3.8068 13.7623 3.65021 13.7055C3.14275 13.5155 2.75816 13.212 2.49308 12.7825C2.22331 12.3453 2.05078 11.7338 2.05078 10.8919V6.60026C2.05078 5.43605 2.38027 4.70733 2.8594 4.26242C3.34691 3.80973 4.08826 3.55859 5.09245 3.55859H12.4091C13.2604 3.55859 13.9254 3.73975 14.4028 4.06965C14.8666 4.39015 15.2111 4.89019 15.3627 5.65508ZM3.98411 11.2503C4.67096 11.2503 5.23411 10.6871 5.23411 10.0003V7.50026C5.23411 6.81342 4.67096 6.25026 3.98411 6.25026C3.29727 6.25026 2.73411 6.81342 2.73411 7.50026V10.0003C2.73411 10.6871 3.29727 11.2503 3.98411 11.2503ZM5.92578 8.75026C5.92578 10.3121 7.18894 11.5753 8.75078 11.5753C10.3126 11.5753 11.5758 10.3121 11.5758 8.75026C11.5758 7.18842 10.3126 5.92526 8.75078 5.92526C7.18894 5.92526 5.92578 7.18842 5.92578 8.75026ZM13.5091 11.2503C14.196 11.2503 14.7591 10.6871 14.7591 10.0003V7.50026C14.7591 6.81342 14.196 6.25026 13.5091 6.25026C12.8223 6.25026 12.2591 6.81342 12.2591 7.50026V10.0003C12.2591 10.6871 12.8223 11.2503 13.5091 11.2503Z" fill="#0235CD" stroke="#0235CD" stroke-width="1.25"/>
<path d="M18.5841 9.10056V13.3922C18.5841 15.9589 17.1175 17.0672 14.9091 17.0672H7.59245C6.96745 17.0672 6.40912 16.9756 5.92578 16.7922C5.53412 16.6506 5.19245 16.4422 4.91745 16.1756C4.76745 16.0339 4.88412 15.8089 5.09245 15.8089H12.4091C15.4925 15.8089 17.3258 13.9756 17.3258 10.9006V6.60056C17.3258 6.40056 17.5508 6.27556 17.6925 6.42556C18.2591 7.02556 18.5841 7.90056 18.5841 9.10056Z" fill="#0235CD"/>
</svg>
