<svg width="24" height="24" viewBox="0 0 24 24" fill="none" xmlns="http://www.w3.org/2000/svg">
<path d="M19.3009 7.91949V13.0695C19.3009 16.1495 17.5409 17.4695 14.9009 17.4695H6.11093C5.66093 17.4695 5.23093 17.4295 4.83093 17.3395C4.58093 17.2995 4.34094 17.2295 4.12094 17.1495C2.62094 16.5895 1.71094 15.2895 1.71094 13.0695V7.91949C1.71094 4.83949 3.47093 3.51953 6.11093 3.51953H14.9009C17.1409 3.51953 18.7509 4.46953 19.1809 6.63953C19.2509 7.03953 19.3009 7.44949 19.3009 7.91949Z" stroke="#292D32" stroke-width="1.5" stroke-miterlimit="10" stroke-linecap="round" stroke-linejoin="round"/>
<path d="M22.302 10.9196V16.0696C22.302 19.1496 20.542 20.4696 17.902 20.4696H9.11203C8.37203 20.4696 7.70204 20.3697 7.12204 20.1497C5.93204 19.7097 5.12203 18.7997 4.83203 17.3397C5.23203 17.4297 5.66203 17.4696 6.11203 17.4696H14.902C17.542 17.4696 19.302 16.1496 19.302 13.0696V7.91962C19.302 7.44962 19.262 7.02965 19.182 6.63965C21.082 7.03965 22.302 8.37962 22.302 10.9196Z" stroke="#292D32" stroke-width="1.5" stroke-miterlimit="10" stroke-linecap="round" stroke-linejoin="round"/>
<path d="M10.4994 13.1394C11.9574 13.1394 13.1394 11.9574 13.1394 10.4994C13.1394 9.04136 11.9574 7.85938 10.4994 7.85938C9.04136 7.85938 7.85938 9.04136 7.85938 10.4994C7.85938 11.9574 9.04136 13.1394 10.4994 13.1394Z" stroke="#292D32" stroke-width="1.5" stroke-miterlimit="10" stroke-linecap="round" stroke-linejoin="round"/>
<path d="M4.78125 8.2998V12.6998" stroke="#292D32" stroke-width="1.5" stroke-miterlimit="10" stroke-linecap="round" stroke-linejoin="round"/>
<path d="M16.2227 8.2998V12.6998" stroke="#292D32" stroke-width="1.5" stroke-miterlimit="10" stroke-linecap="round" stroke-linejoin="round"/>
</svg>
