<svg width="156" height="167" viewBox="0 0 156 167" fill="none" xmlns="http://www.w3.org/2000/svg">
<path d="M75.7169 166.174C104.607 166.174 128.028 142.753 128.028 113.863C128.028 84.9723 104.607 61.5519 75.7169 61.5519C46.8264 61.5519 23.406 84.9723 23.406 113.863C23.406 142.753 46.8264 166.174 75.7169 166.174Z" fill="#D9FCF8"/>
<path d="M94.6025 53.6153L52.7538 77.7767L10.905 53.6153L52.7538 29.4539L94.6025 53.6153Z" fill="white" stroke="#21082D" stroke-width="0.627767" stroke-linejoin="round"/>
<path d="M52.7538 29.4539V77.7767" stroke="#21082D" stroke-width="0.627767" stroke-linejoin="round"/>
<path d="M68.1709 49.2237C70.0888 50.2276 76.026 53.4404 78.7168 59.4457C79.1666 60.4496 80.2097 62.8415 79.2667 63.8595C78.1092 65.1089 74.5791 63.6534 73.2163 62.9836C68.8346 60.8299 56.1392 52.0385 39.5188 39.3884C45.9755 40.7735 57.6408 43.7118 68.1709 49.2237Z" fill="#21082D" stroke="#21082D" stroke-width="0.627767" stroke-linecap="round" stroke-linejoin="round"/>
<path d="M69.2328 0.927473C67.8321 0.537082 66.4104 1.34245 65.2303 2.19271C64.9607 1.53049 64.1182 1.29509 63.8477 1.21953C60.6404 0.323304 55.6748 4.53695 52.379 8.65784C52.4231 8.38898 52.396 8.15546 52.2678 7.96348C51.9973 7.55837 51.4069 7.51586 51.188 7.50007C49.3842 7.37024 46.4809 9.45647 43.83 13.4634C38.7263 21.1784 38.6089 29.8733 38.6613 32.3745C38.6699 32.7869 39.2082 36.9807 40.2842 45.3514C41.2983 53.2406 41.3827 53.8131 41.4326 55.0919C41.5724 58.6697 41.2928 63.9478 39.1235 70.545L61.9977 74.9738C62.4678 71.1111 63.5786 65.4524 66.5601 59.3198C70.2101 51.8121 73.3928 50.3228 77.9465 41.013C79.7014 37.4256 84.6026 27.4063 81.458 24.542C80.5341 23.7006 79.2366 23.7686 78.8606 23.7883C74.9646 23.9925 71.3119 29.5582 69.6218 37.5703C69.9295 31.38 71.0082 26.5683 71.9708 23.2505C74.5763 14.2704 75.1852 12.3255 75.1852 12.3254C76.7383 7.3635 77.788 4.41444 76.2804 2.63811C75.5786 1.8112 74.3699 1.29402 73.2547 1.41415C72.4288 1.50311 71.696 1.94506 70.9399 2.8731C70.9371 2.42474 70.8257 2.04446 70.5781 1.73629C70.1358 1.18787 69.3434 0.958306 69.2328 0.927473Z" fill="url(#paint0_linear_999_28321)"/>
<path d="M62.4049 23.9271C64.709 16.0768 67.7605 8.4655 71.5174 1.19763M53.5574 22.4028C54.8113 14.0104 59.2771 6.43357 66.0121 1.27171M46.1334 23.2098C47.0243 17.6056 49.3079 12.3148 52.775 7.82269M69.5708 39.5124C69.4711 37.9995 69.6977 36.4829 70.2352 35.0652" stroke="#21082D" stroke-width="0.627767" stroke-miterlimit="10"/>
<path d="M13.8031 139.787L51.2488 160.11C54.1162 150.666 75.2452 75.5108 76.7477 71.2303C77.6569 68.6372 78.5734 66.0654 79.4973 63.5149C79.4878 63.5321 79.4594 63.584 79.4257 63.6364C79.4015 63.681 79.374 63.7238 79.3434 63.7643C79.32 63.7983 79.2934 63.8301 79.264 63.8591C78.1108 65.1069 74.5811 63.6541 73.2161 62.9832C68.8349 60.831 56.1401 52.0409 39.5183 39.3906C37.1877 49.9507 16.1337 129.227 13.8031 139.787Z" fill="#AD59D4"/>
<path d="M76.9999 70.5116C73.1028 70.9005 69.1891 69.9545 65.8999 67.8286L37.3186 49.3555" stroke="#21082D" stroke-width="0.627767" stroke-miterlimit="10"/>
<path d="M78.7168 59.4457C79.1666 60.4497 80.2097 62.8415 79.2667 63.8595C78.1092 65.1089 74.5791 63.6534 73.2163 62.9836C68.8346 60.8299 56.1392 52.0385 39.5188 39.3884" stroke="#21082D" stroke-width="0.627767" stroke-linecap="round" stroke-linejoin="round"/>
<path d="M94.6025 101.938L52.7538 126.099V77.7766L94.6025 53.6152V101.938ZM52.7538 126.099L10.905 101.938V53.6152L52.7538 77.7766V126.099Z" fill="#E1C7A1"/>
<path d="M52.7535 77.7766L94.6023 53.6152L105.064 71.7363L63.2158 95.8977L52.7535 77.7766ZM52.7535 126.099L94.6023 101.938L105.065 120.059L63.2158 144.221L52.7535 126.099Z" fill="white" stroke="#21082D" stroke-width="0.627767" stroke-linejoin="round"/>
<path d="M0.442749 71.7363L10.905 53.6152L52.7537 77.7766L42.2915 95.8977L0.442749 71.7363ZM0.442749 120.059L10.905 101.938L52.7536 126.099L42.2915 144.221L0.442749 120.059Z" fill="white" stroke="#21082D" stroke-width="0.627767" stroke-linejoin="round"/>
<path d="M13.8031 96.7061L21.783 101.313M13.8031 99.4264L21.783 104.034M52.7537 77.7766V126.099" stroke="#21082D" stroke-width="0.627767" stroke-linejoin="round"/>
<path d="M134.633 54.9523C146.189 54.9523 155.557 45.5842 155.557 34.0279C155.557 22.4717 146.189 13.1035 134.633 13.1035C123.077 13.1035 113.708 22.4717 113.708 34.0279C113.708 45.5842 123.077 54.9523 134.633 54.9523Z" fill="#5FE4D4"/>
<path d="M138.369 31.2724C139.236 31.2724 139.938 30.5698 139.938 29.7031C139.938 28.8364 139.236 28.1338 138.369 28.1338C137.502 28.1338 136.8 28.8364 136.8 29.7031C136.8 30.5698 137.502 31.2724 138.369 31.2724Z" fill="#21082D"/>
<path d="M130.373 40.5179C131.734 39.1553 133.445 38.1951 135.318 37.743C137.19 37.291 139.151 37.3646 140.984 37.9558" stroke="#21082D" stroke-width="1.0462" stroke-miterlimit="10"/>
<path d="M128.804 31.2724C129.671 31.2724 130.373 30.5698 130.373 29.7031C130.373 28.8364 129.671 28.1338 128.804 28.1338C127.937 28.1338 127.235 28.8364 127.235 29.7031C127.235 30.5698 127.937 31.2724 128.804 31.2724Z" fill="#21082D"/>
<defs>
<linearGradient id="paint0_linear_999_28321" x1="96.6893" y1="104.073" x2="48.5294" y2="20.6573" gradientUnits="userSpaceOnUse">
<stop stop-color="#FF9C07"/>
<stop offset="1" stop-color="#D8A353"/>
</linearGradient>
</defs>
</svg>
