<svg width="129" height="167" viewBox="0 0 129 167" fill="none" xmlns="http://www.w3.org/2000/svg">
<path d="M76.2738 166.175C105.164 166.175 128.585 142.754 128.585 113.864C128.585 84.9731 105.164 61.5527 76.2738 61.5527C47.3833 61.5527 23.9629 84.9731 23.9629 113.864C23.9629 142.754 47.3833 166.175 76.2738 166.175Z" fill="#D9FCF8"/>
<path d="M95.1603 53.6145L53.3116 77.7759L11.4629 53.6145L53.3116 29.4531L95.1603 53.6145Z" fill="white" stroke="#21082D" stroke-width="0.627767" stroke-linejoin="round"/>
<path d="M53.3105 29.4531V77.7759" stroke="#21082D" stroke-width="0.627767" stroke-linejoin="round"/>
<path d="M68.7283 49.2239C70.6462 50.2279 76.5833 53.4406 79.2741 59.446C79.724 60.4499 80.767 62.8417 79.824 63.8597C78.6666 65.1091 75.1365 63.6536 73.7736 62.9838C69.3919 60.8302 56.6966 52.0387 40.0762 39.3887C46.5329 40.7737 58.1982 43.712 68.7283 49.2239Z" fill="#21082D" stroke="#21082D" stroke-width="0.627767" stroke-linecap="round" stroke-linejoin="round"/>
<path d="M69.7893 0.927473C68.3886 0.537082 66.9669 1.34245 65.7869 2.19271C65.5173 1.53049 64.6747 1.29509 64.4042 1.21953C61.1969 0.323304 56.2313 4.53695 52.9355 8.65784C52.9796 8.38898 52.9525 8.15546 52.8243 7.96348C52.5539 7.55837 51.9634 7.51586 51.7446 7.50007C49.9407 7.37024 47.0374 9.45647 44.3866 13.4634C39.2828 21.1784 39.1655 29.8733 39.2178 32.3745C39.2265 32.7869 39.7647 36.9807 40.8407 45.3514C41.8549 53.2406 41.9392 53.8131 41.9891 55.0919C42.1289 58.6697 41.8493 63.9478 39.68 70.545L62.5542 74.9738C63.0243 71.1111 64.1351 65.4524 67.1167 59.3198C70.7667 51.8121 73.9493 50.3228 78.503 41.013C80.2579 37.4256 85.1591 27.4063 82.0145 24.542C81.0906 23.7006 79.7931 23.7686 79.4171 23.7883C75.5211 23.9925 71.8684 29.5582 70.1783 37.5703C70.486 31.38 71.5647 26.5683 72.5273 23.2505C75.1328 14.2704 75.7417 12.3255 75.7417 12.3254C77.2949 7.3635 78.3445 4.41444 76.837 2.63811C76.1351 1.8112 74.9264 1.29402 73.8112 1.41415C72.9853 1.50311 72.2525 1.94506 71.4964 2.8731C71.4937 2.42474 71.3822 2.04446 71.1346 1.73629C70.6923 1.18787 69.9 0.958306 69.7893 0.927473Z" fill="url(#paint0_linear_1670_64767)"/>
<path d="M62.9629 23.9268C65.267 16.0765 68.3184 8.46513 72.0754 1.19727M54.1154 22.4025C55.3693 14.01 59.8351 6.43321 66.5701 1.27135M46.6914 23.2094C47.5822 17.6052 49.8659 12.3145 53.333 7.82232M70.1288 39.512C70.0291 37.9991 70.2557 36.4825 70.7932 35.0648" stroke="#21082D" stroke-width="0.627767" stroke-miterlimit="10"/>
<path d="M14.3594 139.787L51.8051 160.11C54.6724 150.666 75.8015 75.5108 77.304 71.2303C78.2132 68.6372 79.1297 66.0654 80.0535 63.5149C80.0441 63.5321 80.0156 63.584 79.9819 63.6364C79.9578 63.681 79.9303 63.7238 79.8997 63.7643C79.8763 63.7983 79.8497 63.8301 79.8203 63.8591C78.6671 65.1069 75.1374 63.6541 73.7724 62.9832C69.3912 60.831 56.6963 52.0409 40.0745 39.3906C37.744 49.9507 16.69 129.227 14.3594 139.787Z" fill="#AD59D4"/>
<path d="M77.5563 70.5116C73.6592 70.9005 69.7455 69.9545 66.4563 67.8286L37.875 49.3555" stroke="#21082D" stroke-width="0.627767" stroke-miterlimit="10"/>
<path d="M79.2741 59.446C79.724 60.4499 80.767 62.8417 79.824 63.8597C78.6666 65.1091 75.1365 63.6536 73.7736 62.9838C69.3919 60.8302 56.6966 52.0387 40.0762 39.3887" stroke="#21082D" stroke-width="0.627767" stroke-linecap="round" stroke-linejoin="round"/>
<path d="M95.1603 101.938L53.3116 126.099V77.7766L95.1603 53.6152V101.938ZM53.3116 126.099L11.4629 101.938V53.6152L53.3116 77.7766V126.099Z" fill="#E1C7A1"/>
<path d="M53.3105 77.7766L95.1593 53.6152L105.621 71.7363L63.7728 95.8977L53.3105 77.7766ZM53.3105 126.099L95.1594 101.938L105.622 120.059L63.7728 144.221L53.3105 126.099Z" fill="white" stroke="#21082D" stroke-width="0.627767" stroke-linejoin="round"/>
<path d="M1 71.7363L11.4622 53.6152L53.3109 77.7766L42.8487 95.8977L1 71.7363ZM1 120.059L11.4622 101.938L53.3108 126.099L42.8487 144.221L1 120.059Z" fill="white" stroke="#21082D" stroke-width="0.627767" stroke-linejoin="round"/>
<path d="M14.3594 96.7069L22.3393 101.314M14.3594 99.4271L22.3393 104.034M53.31 77.7773V126.1" stroke="#21082D" stroke-width="0.627767" stroke-linejoin="round"/>
<defs>
<linearGradient id="paint0_linear_1670_64767" x1="97.2459" y1="104.073" x2="49.0859" y2="20.6573" gradientUnits="userSpaceOnUse">
<stop stop-color="#FF9C07"/>
<stop offset="1" stop-color="#D8A353"/>
</linearGradient>
</defs>
</svg>
