<svg width="303" height="263" viewBox="0 0 343 303" fill="none" xmlns="http://www.w3.org/2000/svg">
<g filter="url(#filter0_d_6723_197466)">
<circle cx="169" cy="124" r="116" fill="white"/>
</g>
<g filter="url(#filter1_d_6723_197466)">
<rect x="16" y="56" width="195" height="57" rx="4" fill="white"/>
<rect x="35.5" y="72" width="43" height="9" rx="1" fill="#C3D2FE"/>
<rect x="35.5" y="88" width="60" height="9" rx="1" fill="#C3D2FE"/>
<rect x="148.5" y="80" width="43" height="9" rx="1" fill="#C3D2FE"/>
</g>
<g filter="url(#filter2_d_6723_197466)">
<rect x="140" y="131" width="187" height="57" rx="4" fill="white"/>
<rect x="156.5" y="147" width="43" height="9" rx="1" fill="#C3D2FE"/>
<rect x="156.5" y="163" width="60" height="9" rx="1" fill="#C3D2FE"/>
<rect x="267.5" y="155" width="43" height="9" rx="1" fill="#C3D2FE"/>
</g>
<path d="M96.448 270V265.632L92.344 258.8H94.68L97.472 263.472L100.272 258.8H102.592L98.504 265.616V270H96.448ZM105.693 270.192C104.541 270.192 103.631 269.811 102.965 269.048C102.298 268.285 101.965 267.243 101.965 265.92C101.965 265.045 102.117 264.288 102.421 263.648C102.725 263.003 103.154 262.507 103.709 262.16C104.269 261.808 104.93 261.632 105.693 261.632C106.45 261.632 107.106 261.805 107.661 262.152C108.215 262.499 108.642 262.992 108.941 263.632C109.239 264.272 109.389 265.032 109.389 265.912C109.389 266.797 109.239 267.56 108.941 268.2C108.647 268.84 108.223 269.333 107.669 269.68C107.114 270.021 106.455 270.192 105.693 270.192ZM105.693 268.28C106.231 268.28 106.65 268.072 106.949 267.656C107.247 267.24 107.397 266.659 107.397 265.912C107.397 265.165 107.245 264.584 106.941 264.168C106.642 263.747 106.226 263.536 105.693 263.536C105.154 263.536 104.733 263.747 104.429 264.168C104.125 264.589 103.973 265.173 103.973 265.92C103.973 266.656 104.125 267.235 104.429 267.656C104.733 268.072 105.154 268.28 105.693 268.28ZM113.931 270.192C113.019 270.192 112.313 269.909 111.811 269.344C111.31 268.773 111.059 267.968 111.059 266.928V261.824H113.059V266.304C113.059 266.992 113.177 267.493 113.411 267.808C113.646 268.123 114.017 268.28 114.523 268.28C115.067 268.28 115.467 268.123 115.723 267.808C115.985 267.488 116.115 266.997 116.115 266.336V261.824H118.107V270H116.115V269.232C115.865 269.552 115.555 269.792 115.187 269.952C114.825 270.112 114.406 270.192 113.931 270.192ZM123.968 270V259.368L125.968 258.448V262.616C126.229 262.285 126.541 262.04 126.904 261.88C127.272 261.715 127.691 261.632 128.16 261.632C128.789 261.632 129.315 261.765 129.736 262.032C130.163 262.293 130.483 262.669 130.696 263.16C130.909 263.645 131.016 264.227 131.016 264.904V270H129.024V265.52C129.024 264.848 128.909 264.349 128.68 264.024C128.451 263.699 128.077 263.536 127.56 263.536C127.016 263.536 126.613 263.696 126.352 264.016C126.096 264.331 125.968 264.821 125.968 265.488V270H123.968ZM135.548 270.192C134.658 270.192 133.951 269.952 133.428 269.472C132.911 268.987 132.652 268.331 132.652 267.504C132.652 266.971 132.786 266.504 133.052 266.104C133.324 265.699 133.7 265.387 134.18 265.168C134.666 264.944 135.231 264.832 135.876 264.832C136.234 264.832 136.578 264.867 136.908 264.936C137.244 265 137.538 265.093 137.788 265.216V264.704C137.788 264.245 137.658 263.901 137.396 263.672C137.14 263.437 136.762 263.32 136.26 263.32C135.86 263.32 135.45 263.392 135.028 263.536C134.607 263.68 134.18 263.893 133.748 264.176L133.148 262.6C133.618 262.291 134.14 262.053 134.716 261.888C135.292 261.717 135.874 261.632 136.46 261.632C137.559 261.632 138.38 261.893 138.924 262.416C139.468 262.933 139.74 263.707 139.74 264.736V270H137.788V269.344C137.511 269.621 137.18 269.832 136.796 269.976C136.418 270.12 136.002 270.192 135.548 270.192ZM136.012 268.504C136.343 268.504 136.66 268.44 136.964 268.312C137.274 268.179 137.548 267.992 137.788 267.752V266.784C137.559 266.672 137.303 266.587 137.02 266.528C136.743 266.464 136.466 266.432 136.188 266.432C135.692 266.432 135.3 266.528 135.012 266.72C134.73 266.907 134.588 267.168 134.588 267.504C134.588 267.819 134.714 268.064 134.964 268.24C135.215 268.416 135.564 268.504 136.012 268.504ZM143.786 270L140.794 261.824H142.866L144.578 266.688C144.626 266.805 144.668 266.931 144.706 267.064C144.743 267.197 144.78 267.331 144.818 267.464C144.855 267.331 144.892 267.197 144.93 267.064C144.972 266.931 145.012 266.805 145.05 266.688L146.754 261.824H148.818L145.826 270H143.786ZM153.36 270.192C152.576 270.192 151.899 270.016 151.328 269.664C150.763 269.312 150.326 268.816 150.016 268.176C149.712 267.531 149.56 266.773 149.56 265.904C149.56 265.024 149.715 264.264 150.024 263.624C150.339 262.984 150.779 262.493 151.344 262.152C151.915 261.805 152.587 261.632 153.36 261.632C154.022 261.632 154.622 261.771 155.16 262.048C155.699 262.325 156.128 262.752 156.448 263.328C156.768 263.899 156.928 264.627 156.928 265.512C156.928 265.651 156.923 265.821 156.912 266.024C156.907 266.221 156.894 266.421 156.872 266.624H151.536C151.558 266.997 151.643 267.325 151.792 267.608C151.947 267.885 152.158 268.101 152.424 268.256C152.691 268.411 153.006 268.488 153.368 268.488C153.758 268.488 154.096 268.424 154.384 268.296C154.672 268.163 154.944 267.952 155.2 267.664L156.352 268.856C156 269.256 155.576 269.579 155.08 269.824C154.584 270.069 154.011 270.192 153.36 270.192ZM151.544 265.064H154.992C154.966 264.707 154.886 264.4 154.752 264.144C154.619 263.883 154.432 263.683 154.192 263.544C153.952 263.405 153.662 263.336 153.32 263.336C152.851 263.336 152.451 263.48 152.12 263.768C151.79 264.056 151.598 264.488 151.544 265.064ZM162.259 270V261.824H164.259V262.608C164.52 262.283 164.832 262.04 165.195 261.88C165.563 261.715 165.981 261.632 166.451 261.632C167.363 261.632 168.067 261.915 168.563 262.48C169.059 263.04 169.307 263.848 169.307 264.904V270H167.315V265.52C167.315 264.832 167.195 264.331 166.955 264.016C166.72 263.696 166.352 263.536 165.851 263.536C165.307 263.536 164.904 263.696 164.643 264.016C164.387 264.331 164.259 264.821 164.259 265.488V270H162.259ZM174.782 270.192C173.63 270.192 172.72 269.811 172.054 269.048C171.387 268.285 171.054 267.243 171.054 265.92C171.054 265.045 171.206 264.288 171.51 263.648C171.814 263.003 172.243 262.507 172.798 262.16C173.358 261.808 174.019 261.632 174.782 261.632C175.539 261.632 176.195 261.805 176.75 262.152C177.304 262.499 177.731 262.992 178.03 263.632C178.328 264.272 178.478 265.032 178.478 265.912C178.478 266.797 178.328 267.56 178.03 268.2C177.736 268.84 177.312 269.333 176.758 269.68C176.203 270.021 175.544 270.192 174.782 270.192ZM174.782 268.28C175.32 268.28 175.739 268.072 176.038 267.656C176.336 267.24 176.486 266.659 176.486 265.912C176.486 265.165 176.334 264.584 176.03 264.168C175.731 263.747 175.315 263.536 174.782 263.536C174.243 263.536 173.822 263.747 173.518 264.168C173.214 264.589 173.062 265.173 173.062 265.92C173.062 266.656 173.214 267.235 173.518 267.656C173.822 268.072 174.243 268.28 174.782 268.28ZM186.292 270.192C185.641 270.192 185.153 270.013 184.828 269.656C184.503 269.299 184.34 268.765 184.34 268.056V263.576H183.148V261.824H184.34V259.4L186.324 258.448V261.824H188.18V263.576H186.324V267.696C186.324 267.952 186.375 268.141 186.476 268.264C186.583 268.387 186.748 268.448 186.972 268.448C187.367 268.448 187.799 268.325 188.268 268.08L188.036 269.824C187.791 269.947 187.524 270.037 187.236 270.096C186.948 270.16 186.633 270.192 186.292 270.192ZM189.229 270V261.824H191.229V262.704C191.378 262.389 191.613 262.133 191.933 261.936C192.253 261.733 192.589 261.632 192.941 261.632C193.522 261.632 194.013 261.832 194.413 262.232L194.133 264.064C193.914 263.883 193.701 263.755 193.493 263.68C193.285 263.605 193.055 263.568 192.805 263.568C192.474 263.568 192.191 263.645 191.957 263.8C191.722 263.955 191.541 264.179 191.413 264.472C191.29 264.765 191.229 265.117 191.229 265.528V270H189.229ZM197.809 270.192C196.918 270.192 196.212 269.952 195.689 269.472C195.172 268.987 194.913 268.331 194.913 267.504C194.913 266.971 195.046 266.504 195.313 266.104C195.585 265.699 195.961 265.387 196.441 265.168C196.926 264.944 197.492 264.832 198.137 264.832C198.494 264.832 198.838 264.867 199.169 264.936C199.505 265 199.798 265.093 200.049 265.216V264.704C200.049 264.245 199.918 263.901 199.657 263.672C199.401 263.437 199.022 263.32 198.521 263.32C198.121 263.32 197.71 263.392 197.289 263.536C196.868 263.68 196.441 263.893 196.009 264.176L195.409 262.6C195.878 262.291 196.401 262.053 196.977 261.888C197.553 261.717 198.134 261.632 198.721 261.632C199.82 261.632 200.641 261.893 201.185 262.416C201.729 262.933 202.001 263.707 202.001 264.736V270H200.049V269.344C199.772 269.621 199.441 269.832 199.057 269.976C198.678 270.12 198.262 270.192 197.809 270.192ZM198.273 268.504C198.604 268.504 198.921 268.44 199.225 268.312C199.534 268.179 199.809 267.992 200.049 267.752V266.784C199.82 266.672 199.564 266.587 199.281 266.528C199.004 266.464 198.726 266.432 198.449 266.432C197.953 266.432 197.561 266.528 197.273 266.72C196.99 266.907 196.849 267.168 196.849 267.504C196.849 267.819 196.974 268.064 197.225 268.24C197.476 268.416 197.825 268.504 198.273 268.504ZM204.073 270V261.824H206.073V262.608C206.334 262.283 206.646 262.04 207.009 261.88C207.377 261.715 207.796 261.632 208.265 261.632C209.177 261.632 209.881 261.915 210.377 262.48C210.873 263.04 211.121 263.848 211.121 264.904V270H209.129V265.52C209.129 264.832 209.009 264.331 208.769 264.016C208.534 263.696 208.166 263.536 207.665 263.536C207.121 263.536 206.718 263.696 206.457 264.016C206.201 264.331 206.073 264.821 206.073 265.488V270H204.073ZM215.894 270.192C215.254 270.192 214.64 270.056 214.054 269.784C213.472 269.512 213.011 269.147 212.67 268.688L213.982 267.584C214.254 267.872 214.568 268.101 214.926 268.272C215.283 268.437 215.624 268.52 215.95 268.52C216.355 268.52 216.667 268.453 216.886 268.32C217.104 268.181 217.214 267.989 217.214 267.744C217.214 267.584 217.16 267.443 217.054 267.32C216.952 267.192 216.771 267.064 216.51 266.936C216.248 266.803 215.88 266.651 215.406 266.48C214.488 266.144 213.838 265.781 213.454 265.392C213.07 264.997 212.878 264.499 212.878 263.896C212.878 263.224 213.15 262.68 213.694 262.264C214.238 261.843 214.947 261.632 215.822 261.632C216.419 261.632 216.968 261.744 217.47 261.968C217.976 262.192 218.411 262.52 218.774 262.952L217.47 264.032C216.99 263.547 216.43 263.304 215.79 263.304C215.464 263.304 215.203 263.365 215.006 263.488C214.808 263.605 214.71 263.765 214.71 263.968C214.71 264.165 214.824 264.341 215.054 264.496C215.288 264.651 215.723 264.832 216.358 265.04C216.987 265.237 217.496 265.461 217.886 265.712C218.28 265.963 218.568 266.253 218.75 266.584C218.936 266.915 219.03 267.296 219.03 267.728C219.03 268.496 218.75 269.099 218.19 269.536C217.635 269.973 216.87 270.192 215.894 270.192ZM223.052 270.192C222.161 270.192 221.455 269.952 220.932 269.472C220.415 268.987 220.156 268.331 220.156 267.504C220.156 266.971 220.289 266.504 220.556 266.104C220.828 265.699 221.204 265.387 221.684 265.168C222.169 264.944 222.735 264.832 223.38 264.832C223.737 264.832 224.081 264.867 224.412 264.936C224.748 265 225.041 265.093 225.292 265.216V264.704C225.292 264.245 225.161 263.901 224.9 263.672C224.644 263.437 224.265 263.32 223.764 263.32C223.364 263.32 222.953 263.392 222.532 263.536C222.111 263.68 221.684 263.893 221.252 264.176L220.652 262.6C221.121 262.291 221.644 262.053 222.22 261.888C222.796 261.717 223.377 261.632 223.964 261.632C225.063 261.632 225.884 261.893 226.428 262.416C226.972 262.933 227.244 263.707 227.244 264.736V270H225.292V269.344C225.015 269.621 224.684 269.832 224.3 269.976C223.921 270.12 223.505 270.192 223.052 270.192ZM223.516 268.504C223.847 268.504 224.164 268.44 224.468 268.312C224.777 268.179 225.052 267.992 225.292 267.752V266.784C225.063 266.672 224.807 266.587 224.524 266.528C224.247 266.464 223.969 266.432 223.692 266.432C223.196 266.432 222.804 266.528 222.516 266.72C222.233 266.907 222.092 267.168 222.092 267.504C222.092 267.819 222.217 268.064 222.468 268.24C222.719 268.416 223.068 268.504 223.516 268.504ZM232.541 270.192C231.789 270.192 231.138 270.019 230.589 269.672C230.039 269.325 229.615 268.835 229.317 268.2C229.018 267.56 228.869 266.8 228.869 265.92C228.869 265.04 229.018 264.28 229.317 263.64C229.621 263 230.05 262.507 230.605 262.16C231.159 261.808 231.813 261.632 232.565 261.632C233.413 261.632 234.117 261.829 234.677 262.224C235.242 262.613 235.65 263.192 235.901 263.96L234.005 264.6C233.877 264.259 233.69 263.997 233.445 263.816C233.199 263.629 232.917 263.536 232.597 263.536C232.079 263.536 231.666 263.749 231.357 264.176C231.053 264.603 230.901 265.184 230.901 265.92C230.901 266.645 231.05 267.221 231.349 267.648C231.647 268.075 232.05 268.288 232.557 268.288C232.914 268.288 233.218 268.187 233.469 267.984C233.725 267.781 233.914 267.485 234.037 267.096L235.925 267.664C235.685 268.501 235.277 269.133 234.701 269.56C234.13 269.981 233.41 270.192 232.541 270.192ZM239.943 270.192C239.292 270.192 238.804 270.013 238.479 269.656C238.153 269.299 237.991 268.765 237.991 268.056V263.576H236.799V261.824H237.991V259.4L239.975 258.448V261.824H241.831V263.576H239.975V267.696C239.975 267.952 240.025 268.141 240.127 268.264C240.233 268.387 240.399 268.448 240.623 268.448C241.017 268.448 241.449 268.325 241.919 268.08L241.687 269.824C241.441 269.947 241.175 270.037 240.887 270.096C240.599 270.16 240.284 270.192 239.943 270.192ZM243.223 270V261.824H245.223V270H243.223ZM244.223 260.8C243.903 260.8 243.626 260.685 243.391 260.456C243.162 260.221 243.047 259.944 243.047 259.624C243.047 259.304 243.162 259.032 243.391 258.808C243.621 258.579 243.898 258.464 244.223 258.464C244.559 258.464 244.839 258.576 245.063 258.8C245.287 259.024 245.399 259.299 245.399 259.624C245.399 259.949 245.285 260.227 245.055 260.456C244.831 260.685 244.554 260.8 244.223 260.8ZM250.715 270.192C249.563 270.192 248.653 269.811 247.987 269.048C247.32 268.285 246.987 267.243 246.987 265.92C246.987 265.045 247.139 264.288 247.443 263.648C247.747 263.003 248.176 262.507 248.731 262.16C249.291 261.808 249.952 261.632 250.715 261.632C251.472 261.632 252.128 261.805 252.683 262.152C253.237 262.499 253.664 262.992 253.963 263.632C254.261 264.272 254.411 265.032 254.411 265.912C254.411 266.797 254.261 267.56 253.963 268.2C253.669 268.84 253.245 269.333 252.691 269.68C252.136 270.021 251.477 270.192 250.715 270.192ZM250.715 268.28C251.253 268.28 251.672 268.072 251.971 267.656C252.269 267.24 252.419 266.659 252.419 265.912C252.419 265.165 252.267 264.584 251.963 264.168C251.664 263.747 251.248 263.536 250.715 263.536C250.176 263.536 249.755 263.747 249.451 264.168C249.147 264.589 248.995 265.173 248.995 265.92C248.995 266.656 249.147 267.235 249.451 267.656C249.755 268.072 250.176 268.28 250.715 268.28ZM256.005 270V261.824H258.005V262.608C258.266 262.283 258.578 262.04 258.941 261.88C259.309 261.715 259.728 261.632 260.197 261.632C261.109 261.632 261.813 261.915 262.309 262.48C262.805 263.04 263.053 263.848 263.053 264.904V270H261.061V265.52C261.061 264.832 260.941 264.331 260.701 264.016C260.466 263.696 260.098 263.536 259.597 263.536C259.053 263.536 258.65 263.696 258.389 264.016C258.133 264.331 258.005 264.821 258.005 265.488V270H256.005Z" fill="#1D1D1D"/>
<path d="M97.9942 296V292.7L95.1382 287.6H96.3142L98.5102 291.68L100.73 287.6H101.87L99.0382 292.676V296H97.9942ZM104.557 296.144C103.717 296.144 103.055 295.858 102.571 295.286C102.087 294.71 101.845 293.928 101.845 292.94C101.845 292.28 101.955 291.71 102.175 291.23C102.395 290.75 102.707 290.38 103.111 290.12C103.519 289.856 104.001 289.724 104.557 289.724C105.117 289.724 105.599 289.854 106.003 290.114C106.411 290.37 106.723 290.738 106.939 291.218C107.159 291.698 107.269 292.268 107.269 292.928C107.269 293.588 107.159 294.16 106.939 294.644C106.719 295.124 106.405 295.494 105.997 295.754C105.593 296.014 105.113 296.144 104.557 296.144ZM104.557 295.172C105.073 295.172 105.477 294.974 105.769 294.578C106.065 294.178 106.213 293.628 106.213 292.928C106.213 292.224 106.065 291.674 105.769 291.278C105.477 290.882 105.073 290.684 104.557 290.684C104.037 290.684 103.631 290.882 103.339 291.278C103.047 291.67 102.901 292.224 102.901 292.94C102.901 293.64 103.047 294.188 103.339 294.584C103.631 294.976 104.037 295.172 104.557 295.172ZM111.068 296.144C110.312 296.144 109.75 295.92 109.382 295.472C109.018 295.024 108.836 294.336 108.836 293.408V289.868H109.88V293.564C109.88 294.084 109.994 294.482 110.222 294.758C110.45 295.034 110.776 295.172 111.2 295.172C111.668 295.172 112.02 295.038 112.256 294.77C112.496 294.502 112.616 294.108 112.616 293.588V289.868H113.66V296H112.616V295.412C112.42 295.664 112.198 295.85 111.95 295.97C111.706 296.086 111.412 296.144 111.068 296.144ZM115.74 296V289.868H116.784V290.672C116.924 290.36 117.116 290.124 117.36 289.964C117.608 289.804 117.9 289.724 118.236 289.724C118.608 289.724 118.924 289.828 119.184 290.036L119.028 291.02C118.896 290.928 118.758 290.862 118.614 290.822C118.474 290.778 118.32 290.756 118.152 290.756C117.876 290.756 117.636 290.83 117.432 290.978C117.228 291.126 117.068 291.334 116.952 291.602C116.84 291.87 116.784 292.184 116.784 292.544V296H115.74ZM124.932 296.144C124.512 296.144 124.19 296.018 123.966 295.766C123.746 295.514 123.636 295.152 123.636 294.68V290.78H122.64V289.868H123.636V287.84L124.68 287.336V289.868H126.192V290.78H124.68V294.332C124.68 294.624 124.73 294.838 124.83 294.974C124.934 295.106 125.096 295.172 125.316 295.172C125.596 295.172 125.9 295.064 126.228 294.848L126.108 295.868C125.928 295.964 125.74 296.034 125.544 296.078C125.352 296.122 125.148 296.144 124.932 296.144ZM127.283 296V289.868H128.327V290.672C128.467 290.36 128.659 290.124 128.903 289.964C129.151 289.804 129.443 289.724 129.779 289.724C130.151 289.724 130.467 289.828 130.727 290.036L130.571 291.02C130.439 290.928 130.301 290.862 130.157 290.822C130.017 290.778 129.863 290.756 129.695 290.756C129.419 290.756 129.179 290.83 128.975 290.978C128.771 291.126 128.611 291.334 128.495 291.602C128.383 291.87 128.327 292.184 128.327 292.544V296H127.283ZM133.489 296.144C132.825 296.144 132.303 295.96 131.923 295.592C131.543 295.224 131.353 294.72 131.353 294.08C131.353 293.668 131.447 293.31 131.635 293.006C131.823 292.702 132.089 292.468 132.433 292.304C132.777 292.136 133.181 292.052 133.645 292.052C133.945 292.052 134.225 292.086 134.485 292.154C134.749 292.218 134.997 292.316 135.229 292.448V292.016C135.229 291.54 135.121 291.192 134.905 290.972C134.689 290.748 134.353 290.636 133.897 290.636C133.605 290.636 133.301 290.69 132.985 290.798C132.673 290.906 132.381 291.056 132.109 291.248L131.809 290.372C132.117 290.168 132.467 290.01 132.859 289.898C133.255 289.782 133.645 289.724 134.029 289.724C134.757 289.724 135.303 289.91 135.667 290.282C136.031 290.65 136.213 291.2 136.213 291.932V296H135.229V295.436C134.989 295.664 134.719 295.84 134.419 295.964C134.119 296.084 133.809 296.144 133.489 296.144ZM133.645 295.232C133.929 295.232 134.209 295.162 134.485 295.022C134.765 294.882 135.013 294.684 135.229 294.428V293.372C135.025 293.244 134.793 293.144 134.533 293.072C134.273 293 134.025 292.964 133.789 292.964C133.341 292.964 132.987 293.066 132.727 293.27C132.467 293.47 132.337 293.744 132.337 294.092C132.337 294.444 132.453 294.722 132.685 294.926C132.917 295.13 133.237 295.232 133.645 295.232ZM138.182 296V289.868H139.226V290.492C139.414 290.232 139.64 290.04 139.904 289.916C140.168 289.788 140.47 289.724 140.81 289.724C141.554 289.724 142.106 289.95 142.466 290.402C142.826 290.85 143.006 291.54 143.006 292.472V296H141.962V292.292C141.962 291.776 141.846 291.38 141.614 291.104C141.386 290.824 141.062 290.684 140.642 290.684C140.174 290.684 139.82 290.818 139.58 291.086C139.344 291.35 139.226 291.744 139.226 292.268V296H138.182ZM146.755 296.144C146.323 296.144 145.907 296.052 145.507 295.868C145.111 295.68 144.787 295.428 144.535 295.112L145.279 294.476C145.495 294.708 145.735 294.888 145.999 295.016C146.263 295.144 146.523 295.208 146.779 295.208C147.139 295.208 147.419 295.14 147.619 295.004C147.819 294.864 147.919 294.672 147.919 294.428C147.919 294.268 147.873 294.124 147.781 293.996C147.693 293.868 147.545 293.746 147.337 293.63C147.133 293.514 146.859 293.392 146.515 293.264C145.839 293.012 145.353 292.738 145.057 292.442C144.765 292.146 144.619 291.78 144.619 291.344C144.619 290.864 144.809 290.474 145.189 290.174C145.573 289.874 146.071 289.724 146.683 289.724C147.103 289.724 147.489 289.804 147.841 289.964C148.193 290.12 148.495 290.348 148.747 290.648L148.027 291.248C147.659 290.856 147.207 290.66 146.671 290.66C146.355 290.66 146.105 290.722 145.921 290.846C145.741 290.966 145.651 291.132 145.651 291.344C145.651 291.548 145.753 291.728 145.957 291.884C146.165 292.036 146.539 292.212 147.079 292.412C147.519 292.572 147.875 292.746 148.147 292.934C148.423 293.122 148.623 293.336 148.747 293.576C148.875 293.816 148.939 294.092 148.939 294.404C148.939 294.944 148.745 295.37 148.357 295.682C147.969 295.99 147.435 296.144 146.755 296.144ZM152.227 296.144C151.563 296.144 151.041 295.96 150.661 295.592C150.281 295.224 150.091 294.72 150.091 294.08C150.091 293.668 150.185 293.31 150.373 293.006C150.561 292.702 150.827 292.468 151.171 292.304C151.515 292.136 151.919 292.052 152.383 292.052C152.683 292.052 152.963 292.086 153.223 292.154C153.487 292.218 153.735 292.316 153.967 292.448V292.016C153.967 291.54 153.859 291.192 153.643 290.972C153.427 290.748 153.091 290.636 152.635 290.636C152.343 290.636 152.039 290.69 151.723 290.798C151.411 290.906 151.119 291.056 150.847 291.248L150.547 290.372C150.855 290.168 151.205 290.01 151.597 289.898C151.993 289.782 152.383 289.724 152.767 289.724C153.495 289.724 154.041 289.91 154.405 290.282C154.769 290.65 154.951 291.2 154.951 291.932V296H153.967V295.436C153.727 295.664 153.457 295.84 153.157 295.964C152.857 296.084 152.547 296.144 152.227 296.144ZM152.383 295.232C152.667 295.232 152.947 295.162 153.223 295.022C153.503 294.882 153.751 294.684 153.967 294.428V293.372C153.763 293.244 153.531 293.144 153.271 293.072C153.011 293 152.763 292.964 152.527 292.964C152.079 292.964 151.725 293.066 151.465 293.27C151.205 293.47 151.075 293.744 151.075 294.092C151.075 294.444 151.191 294.722 151.423 294.926C151.655 295.13 151.975 295.232 152.383 295.232ZM159.127 296.144C158.599 296.144 158.145 296.016 157.765 295.76C157.385 295.5 157.093 295.132 156.889 294.656C156.685 294.176 156.583 293.604 156.583 292.94C156.583 292.272 156.687 291.698 156.895 291.218C157.103 290.738 157.399 290.37 157.783 290.114C158.171 289.854 158.635 289.724 159.175 289.724C159.703 289.724 160.151 289.846 160.519 290.09C160.887 290.334 161.155 290.688 161.323 291.152L160.339 291.512C160.239 291.248 160.089 291.046 159.889 290.906C159.693 290.766 159.459 290.696 159.187 290.696C158.691 290.696 158.311 290.888 158.047 291.272C157.783 291.656 157.651 292.212 157.651 292.94C157.651 293.652 157.781 294.2 158.041 294.584C158.301 294.968 158.671 295.16 159.151 295.16C159.459 295.16 159.721 295.08 159.937 294.92C160.157 294.76 160.311 294.536 160.399 294.248L161.371 294.572C161.223 295.076 160.953 295.464 160.561 295.736C160.169 296.008 159.691 296.144 159.127 296.144ZM164.53 296.144C164.11 296.144 163.788 296.018 163.564 295.766C163.344 295.514 163.234 295.152 163.234 294.68V290.78H162.238V289.868H163.234V287.84L164.278 287.336V289.868H165.79V290.78H164.278V294.332C164.278 294.624 164.328 294.838 164.428 294.974C164.532 295.106 164.694 295.172 164.914 295.172C165.194 295.172 165.498 295.064 165.826 294.848L165.706 295.868C165.526 295.964 165.338 296.034 165.142 296.078C164.95 296.122 164.746 296.144 164.53 296.144ZM167.139 296V289.868H168.183V296H167.139ZM167.655 288.752C167.475 288.752 167.321 288.69 167.193 288.566C167.069 288.438 167.007 288.284 167.007 288.104C167.007 287.916 167.069 287.758 167.193 287.63C167.321 287.498 167.475 287.432 167.655 287.432C167.843 287.432 167.999 287.498 168.123 287.63C168.251 287.758 168.315 287.916 168.315 288.104C168.315 288.284 168.251 288.438 168.123 288.566C167.999 288.69 167.843 288.752 167.655 288.752ZM172.526 296.144C171.686 296.144 171.024 295.858 170.54 295.286C170.056 294.71 169.814 293.928 169.814 292.94C169.814 292.28 169.924 291.71 170.144 291.23C170.364 290.75 170.676 290.38 171.08 290.12C171.488 289.856 171.97 289.724 172.526 289.724C173.086 289.724 173.568 289.854 173.972 290.114C174.38 290.37 174.692 290.738 174.908 291.218C175.128 291.698 175.238 292.268 175.238 292.928C175.238 293.588 175.128 294.16 174.908 294.644C174.688 295.124 174.374 295.494 173.966 295.754C173.562 296.014 173.082 296.144 172.526 296.144ZM172.526 295.172C173.042 295.172 173.446 294.974 173.738 294.578C174.034 294.178 174.182 293.628 174.182 292.928C174.182 292.224 174.034 291.674 173.738 291.278C173.446 290.882 173.042 290.684 172.526 290.684C172.006 290.684 171.6 290.882 171.308 291.278C171.016 291.67 170.87 292.224 170.87 292.94C170.87 293.64 171.016 294.188 171.308 294.584C171.6 294.976 172.006 295.172 172.526 295.172ZM176.807 296V289.868H177.851V290.492C178.039 290.232 178.265 290.04 178.529 289.916C178.793 289.788 179.095 289.724 179.435 289.724C180.179 289.724 180.731 289.95 181.091 290.402C181.451 290.85 181.631 291.54 181.631 292.472V296H180.587V292.292C180.587 291.776 180.471 291.38 180.239 291.104C180.011 290.824 179.687 290.684 179.267 290.684C178.799 290.684 178.445 290.818 178.205 291.086C177.969 291.35 177.851 291.744 177.851 292.268V296H176.807ZM185.38 296.144C184.948 296.144 184.532 296.052 184.132 295.868C183.736 295.68 183.412 295.428 183.16 295.112L183.904 294.476C184.12 294.708 184.36 294.888 184.624 295.016C184.888 295.144 185.148 295.208 185.404 295.208C185.764 295.208 186.044 295.14 186.244 295.004C186.444 294.864 186.544 294.672 186.544 294.428C186.544 294.268 186.498 294.124 186.406 293.996C186.318 293.868 186.17 293.746 185.962 293.63C185.758 293.514 185.484 293.392 185.14 293.264C184.464 293.012 183.978 292.738 183.682 292.442C183.39 292.146 183.244 291.78 183.244 291.344C183.244 290.864 183.434 290.474 183.814 290.174C184.198 289.874 184.696 289.724 185.308 289.724C185.728 289.724 186.114 289.804 186.466 289.964C186.818 290.12 187.12 290.348 187.372 290.648L186.652 291.248C186.284 290.856 185.832 290.66 185.296 290.66C184.98 290.66 184.73 290.722 184.546 290.846C184.366 290.966 184.276 291.132 184.276 291.344C184.276 291.548 184.378 291.728 184.582 291.884C184.79 292.036 185.164 292.212 185.704 292.412C186.144 292.572 186.5 292.746 186.772 292.934C187.048 293.122 187.248 293.336 187.372 293.576C187.5 293.816 187.564 294.092 187.564 294.404C187.564 294.944 187.37 295.37 186.982 295.682C186.594 295.99 186.06 296.144 185.38 296.144ZM193.829 296.144C193.397 296.144 192.981 296.052 192.581 295.868C192.185 295.68 191.861 295.428 191.609 295.112L192.353 294.476C192.569 294.708 192.809 294.888 193.073 295.016C193.337 295.144 193.597 295.208 193.853 295.208C194.213 295.208 194.493 295.14 194.693 295.004C194.893 294.864 194.993 294.672 194.993 294.428C194.993 294.268 194.947 294.124 194.855 293.996C194.767 293.868 194.619 293.746 194.411 293.63C194.207 293.514 193.933 293.392 193.589 293.264C192.913 293.012 192.427 292.738 192.131 292.442C191.839 292.146 191.693 291.78 191.693 291.344C191.693 290.864 191.883 290.474 192.263 290.174C192.647 289.874 193.145 289.724 193.757 289.724C194.177 289.724 194.563 289.804 194.915 289.964C195.267 290.12 195.569 290.348 195.821 290.648L195.101 291.248C194.733 290.856 194.281 290.66 193.745 290.66C193.429 290.66 193.179 290.722 192.995 290.846C192.815 290.966 192.725 291.132 192.725 291.344C192.725 291.548 192.827 291.728 193.031 291.884C193.239 292.036 193.613 292.212 194.153 292.412C194.593 292.572 194.949 292.746 195.221 292.934C195.497 293.122 195.697 293.336 195.821 293.576C195.949 293.816 196.013 294.092 196.013 294.404C196.013 294.944 195.819 295.37 195.431 295.682C195.043 295.99 194.509 296.144 193.829 296.144ZM197.642 296V287.816L198.686 287.336V290.504C198.874 290.244 199.1 290.05 199.364 289.922C199.632 289.79 199.934 289.724 200.27 289.724C200.802 289.724 201.228 289.834 201.548 290.054C201.872 290.274 202.106 290.59 202.25 291.002C202.394 291.41 202.466 291.9 202.466 292.472V296H201.422V292.292C201.422 291.812 201.314 291.424 201.098 291.128C200.886 290.832 200.554 290.684 200.102 290.684C199.634 290.684 199.28 290.818 199.04 291.086C198.804 291.35 198.686 291.744 198.686 292.268V296H197.642ZM206.932 296.144C206.092 296.144 205.43 295.858 204.946 295.286C204.462 294.71 204.22 293.928 204.22 292.94C204.22 292.28 204.33 291.71 204.55 291.23C204.77 290.75 205.082 290.38 205.486 290.12C205.894 289.856 206.376 289.724 206.932 289.724C207.492 289.724 207.974 289.854 208.378 290.114C208.786 290.37 209.098 290.738 209.314 291.218C209.534 291.698 209.644 292.268 209.644 292.928C209.644 293.588 209.534 294.16 209.314 294.644C209.094 295.124 208.78 295.494 208.372 295.754C207.968 296.014 207.488 296.144 206.932 296.144ZM206.932 295.172C207.448 295.172 207.852 294.974 208.144 294.578C208.44 294.178 208.588 293.628 208.588 292.928C208.588 292.224 208.44 291.674 208.144 291.278C207.852 290.882 207.448 290.684 206.932 290.684C206.412 290.684 206.006 290.882 205.714 291.278C205.422 291.67 205.276 292.224 205.276 292.94C205.276 293.64 205.422 294.188 205.714 294.584C206.006 294.976 206.412 295.172 206.932 295.172ZM212.18 296L210.608 289.868H211.64L212.576 293.984C212.604 294.096 212.628 294.208 212.648 294.32C212.672 294.428 212.692 294.532 212.708 294.632C212.728 294.528 212.752 294.422 212.78 294.314C212.808 294.202 212.836 294.092 212.864 293.984L214.016 289.868H214.88L216.032 293.984C216.064 294.104 216.094 294.22 216.122 294.332C216.15 294.44 216.176 294.548 216.2 294.656C216.22 294.552 216.24 294.444 216.26 294.332C216.28 294.22 216.304 294.104 216.332 293.984L217.256 289.868H218.288L216.716 296H215.78L214.664 292.364C214.628 292.244 214.588 292.11 214.544 291.962C214.504 291.814 214.468 291.68 214.436 291.56C214.408 291.68 214.374 291.814 214.334 291.962C214.294 292.11 214.256 292.244 214.22 292.364L213.116 296H212.18ZM224.729 296.144C223.973 296.144 223.411 295.92 223.043 295.472C222.679 295.024 222.497 294.336 222.497 293.408V289.868H223.541V293.564C223.541 294.084 223.655 294.482 223.883 294.758C224.111 295.034 224.437 295.172 224.861 295.172C225.329 295.172 225.681 295.038 225.917 294.77C226.157 294.502 226.277 294.108 226.277 293.588V289.868H227.321V296H226.277V295.412C226.081 295.664 225.859 295.85 225.611 295.97C225.367 296.086 225.073 296.144 224.729 296.144ZM229.4 298.436V289.868H230.444V290.384C230.884 289.944 231.408 289.724 232.016 289.724C232.536 289.724 232.984 289.854 233.36 290.114C233.74 290.374 234.032 290.744 234.236 291.224C234.444 291.704 234.548 292.272 234.548 292.928C234.548 293.584 234.444 294.154 234.236 294.638C234.028 295.118 233.734 295.49 233.354 295.754C232.978 296.014 232.532 296.144 232.016 296.144C231.692 296.144 231.4 296.086 231.14 295.97C230.88 295.85 230.648 295.668 230.444 295.424V297.944L229.4 298.436ZM231.884 295.172C232.4 295.172 232.794 294.978 233.066 294.59C233.342 294.202 233.48 293.648 233.48 292.928C233.48 292.236 233.336 291.69 233.048 291.29C232.76 290.886 232.372 290.684 231.884 290.684C231.572 290.684 231.292 290.756 231.044 290.9C230.796 291.044 230.596 291.248 230.444 291.512V294.344C230.656 294.62 230.882 294.828 231.122 294.968C231.362 295.104 231.616 295.172 231.884 295.172ZM239.01 296V287.816L240.054 287.336V290.504C240.242 290.244 240.468 290.05 240.732 289.922C241 289.79 241.302 289.724 241.638 289.724C242.17 289.724 242.596 289.834 242.916 290.054C243.24 290.274 243.474 290.59 243.618 291.002C243.762 291.41 243.834 291.9 243.834 292.472V296H242.79V292.292C242.79 291.812 242.682 291.424 242.466 291.128C242.254 290.832 241.922 290.684 241.47 290.684C241.002 290.684 240.648 290.818 240.408 291.086C240.172 291.35 240.054 291.744 240.054 292.268V296H239.01ZM248.311 296.144C247.751 296.144 247.267 296.006 246.859 295.73C246.451 295.454 246.137 295.074 245.917 294.59C245.697 294.106 245.587 293.552 245.587 292.928C245.587 292.252 245.701 291.676 245.929 291.2C246.157 290.72 246.475 290.354 246.883 290.102C247.291 289.85 247.767 289.724 248.311 289.724C248.771 289.724 249.193 289.828 249.577 290.036C249.961 290.24 250.267 290.558 250.495 290.99C250.727 291.418 250.843 291.968 250.843 292.64C250.843 292.736 250.839 292.848 250.831 292.976C250.827 293.1 250.819 293.228 250.807 293.36H246.655C246.695 293.732 246.787 294.058 246.931 294.338C247.075 294.618 247.265 294.838 247.501 294.998C247.737 295.154 248.015 295.232 248.335 295.232C248.595 295.232 248.835 295.186 249.055 295.094C249.279 295.002 249.487 294.86 249.679 294.668L250.291 295.352C250.063 295.58 249.779 295.77 249.439 295.922C249.103 296.07 248.727 296.144 248.311 296.144ZM246.643 292.448H249.787C249.787 292.1 249.729 291.79 249.613 291.518C249.501 291.242 249.335 291.026 249.115 290.87C248.895 290.714 248.627 290.636 248.311 290.636C247.867 290.636 247.485 290.78 247.165 291.068C246.849 291.356 246.675 291.816 246.643 292.448ZM252.521 296V289.868H253.565V290.672C253.705 290.36 253.897 290.124 254.141 289.964C254.389 289.804 254.681 289.724 255.017 289.724C255.389 289.724 255.705 289.828 255.965 290.036L255.809 291.02C255.677 290.928 255.539 290.862 255.395 290.822C255.255 290.778 255.101 290.756 254.933 290.756C254.657 290.756 254.417 290.83 254.213 290.978C254.009 291.126 253.849 291.334 253.733 291.602C253.621 291.87 253.565 292.184 253.565 292.544V296H252.521ZM259.245 296.144C258.685 296.144 258.201 296.006 257.793 295.73C257.385 295.454 257.071 295.074 256.851 294.59C256.631 294.106 256.521 293.552 256.521 292.928C256.521 292.252 256.635 291.676 256.863 291.2C257.091 290.72 257.409 290.354 257.817 290.102C258.225 289.85 258.701 289.724 259.245 289.724C259.705 289.724 260.127 289.828 260.511 290.036C260.895 290.24 261.201 290.558 261.429 290.99C261.661 291.418 261.777 291.968 261.777 292.64C261.777 292.736 261.773 292.848 261.765 292.976C261.761 293.1 261.753 293.228 261.741 293.36H257.589C257.629 293.732 257.721 294.058 257.865 294.338C258.009 294.618 258.199 294.838 258.435 294.998C258.671 295.154 258.949 295.232 259.269 295.232C259.529 295.232 259.769 295.186 259.989 295.094C260.213 295.002 260.421 294.86 260.613 294.668L261.225 295.352C260.997 295.58 260.713 295.77 260.373 295.922C260.037 296.07 259.661 296.144 259.245 296.144ZM257.577 292.448H260.721C260.721 292.1 260.663 291.79 260.547 291.518C260.435 291.242 260.269 291.026 260.049 290.87C259.829 290.714 259.561 290.636 259.245 290.636C258.801 290.636 258.419 290.78 258.099 291.068C257.783 291.356 257.609 291.816 257.577 292.448Z" fill="#8A8A8A"/>
<defs>
<filter id="filter0_d_6723_197466" x="37" y="0" width="264" height="264" filterUnits="userSpaceOnUse" color-interpolation-filters="sRGB">
<feFlood flood-opacity="0" result="BackgroundImageFix"/>
<feColorMatrix in="SourceAlpha" type="matrix" values="0 0 0 0 0 0 0 0 0 0 0 0 0 0 0 0 0 0 127 0" result="hardAlpha"/>
<feOffset dy="8"/>
<feGaussianBlur stdDeviation="8"/>
<feColorMatrix type="matrix" values="0 0 0 0 0.0666667 0 0 0 0 0.0666667 0 0 0 0 0.0666667 0 0 0 0.04 0"/>
<feBlend mode="normal" in2="BackgroundImageFix" result="effect1_dropShadow_6723_197466"/>
<feBlend mode="normal" in="SourceGraphic" in2="effect1_dropShadow_6723_197466" result="shape"/>
</filter>
<filter id="filter1_d_6723_197466" x="0" y="48" width="227" height="89" filterUnits="userSpaceOnUse" color-interpolation-filters="sRGB">
<feFlood flood-opacity="0" result="BackgroundImageFix"/>
<feColorMatrix in="SourceAlpha" type="matrix" values="0 0 0 0 0 0 0 0 0 0 0 0 0 0 0 0 0 0 127 0" result="hardAlpha"/>
<feOffset dy="8"/>
<feGaussianBlur stdDeviation="8"/>
<feColorMatrix type="matrix" values="0 0 0 0 0.0666667 0 0 0 0 0.0666667 0 0 0 0 0.0666667 0 0 0 0.04 0"/>
<feBlend mode="normal" in2="BackgroundImageFix" result="effect1_dropShadow_6723_197466"/>
<feBlend mode="normal" in="SourceGraphic" in2="effect1_dropShadow_6723_197466" result="shape"/>
</filter>
<filter id="filter2_d_6723_197466" x="124" y="123" width="219" height="89" filterUnits="userSpaceOnUse" color-interpolation-filters="sRGB">
<feFlood flood-opacity="0" result="BackgroundImageFix"/>
<feColorMatrix in="SourceAlpha" type="matrix" values="0 0 0 0 0 0 0 0 0 0 0 0 0 0 0 0 0 0 127 0" result="hardAlpha"/>
<feOffset dy="8"/>
<feGaussianBlur stdDeviation="8"/>
<feColorMatrix type="matrix" values="0 0 0 0 0.0666667 0 0 0 0 0.0666667 0 0 0 0 0.0666667 0 0 0 0.04 0"/>
<feBlend mode="normal" in2="BackgroundImageFix" result="effect1_dropShadow_6723_197466"/>
<feBlend mode="normal" in="SourceGraphic" in2="effect1_dropShadow_6723_197466" result="shape"/>
</filter>
</defs>
</svg>
