<svg width="24" height="24" viewBox="0 0 24 24" fill="none" xmlns="http://www.w3.org/2000/svg">
<circle cx="12" cy="12" r="12" fill="#80171A"/>
<g clip-path="url(#clip0_22281_70840)">
<path d="M17.6669 10.8023C17.3023 10.532 16.8544 10.3336 16.3815 10.2266C16.3039 10.2091 16.2328 10.1699 16.1766 10.1135C16.1204 10.0572 16.0813 9.98603 16.0641 9.90833C15.8609 9.00339 15.4237 8.22734 14.781 7.63932C14.0339 6.95469 13.0458 6.57812 11.9987 6.57812C11.0781 6.57812 10.2279 6.86667 9.54115 7.41276C9.07574 7.78345 8.70111 8.25552 8.44583 8.79297C8.41816 8.85177 8.37711 8.90329 8.32597 8.9434C8.27482 8.98351 8.21501 9.0111 8.1513 9.02396C7.45469 9.16458 6.82578 9.46328 6.34557 9.88646C5.68255 10.4724 5.33203 11.2513 5.33203 12.1406C5.33203 13.0396 5.70938 13.8594 6.39427 14.4521C7.04844 15.0169 7.92917 15.3281 8.8737 15.3281H11.582V11.3341L10.6266 12.2896C10.5867 12.3295 10.5391 12.3608 10.4867 12.3818C10.4344 12.4027 10.3783 12.4129 10.3219 12.4115C10.2655 12.4101 10.21 12.3973 10.1587 12.3739C10.1074 12.3504 10.0614 12.3168 10.0234 12.275C9.8724 12.1091 9.88698 11.8505 10.0456 11.6919L11.7042 10.0336C11.7823 9.95551 11.8882 9.91165 11.9987 9.91165C12.1092 9.91165 12.2151 9.95551 12.2932 10.0336L13.9518 11.6914C14.1154 11.8552 14.1247 12.1237 13.962 12.288C13.9234 12.327 13.8774 12.358 13.8268 12.3792C13.7762 12.4004 13.7219 12.4114 13.667 12.4115C13.6121 12.4117 13.5577 12.401 13.507 12.38C13.4563 12.3591 13.4102 12.3284 13.3714 12.2896L12.4154 11.3341V15.3281H15.6445C16.4607 15.3281 17.2047 15.099 17.7396 14.6831C18.3453 14.2117 18.6654 13.5372 18.6654 12.7344C18.6654 11.9547 18.3201 11.2862 17.6669 10.8023ZM11.582 17.0057C11.582 17.1162 11.6259 17.2222 11.7041 17.3004C11.7822 17.3785 11.8882 17.4224 11.9987 17.4224C12.1092 17.4224 12.2152 17.3785 12.2933 17.3004C12.3715 17.2222 12.4154 17.1162 12.4154 17.0057V15.3281H11.582V17.0057Z" fill="white"/>
</g>
<defs>
<clipPath id="clip0_22281_70840">
<rect width="13.3333" height="13.3333" fill="white" transform="translate(5.33203 5.33203)"/>
</clipPath>
</defs>
</svg>
