<svg width="60" height="60" viewBox="0 0 60 60" fill="none" xmlns="http://www.w3.org/2000/svg">
<path d="M48.7797 14.625L33.9297 6.05C31.5047 4.65 28.5047 4.65 26.0547 6.05L11.2297 14.625C8.80469 16.025 7.30469 18.625 7.30469 21.45V38.55C7.30469 41.35 8.80469 43.95 11.2297 45.375L26.0797 53.95C28.5047 55.35 31.5047 55.35 33.9547 53.95L48.8047 45.375C51.2297 43.975 52.7297 41.375 52.7297 38.55V21.45C52.7047 18.625 51.2047 16.05 48.7797 14.625ZM28.1297 19.375C28.1297 18.35 28.9797 17.5 30.0047 17.5C31.0297 17.5 31.8797 18.35 31.8797 19.375V32.5C31.8797 33.525 31.0297 34.375 30.0047 34.375C28.9797 34.375 28.1297 33.525 28.1297 32.5V19.375ZM32.3047 41.575C32.1797 41.875 32.0047 42.15 31.7797 42.4C31.3047 42.875 30.6797 43.125 30.0047 43.125C29.6797 43.125 29.3547 43.05 29.0547 42.925C28.7297 42.8 28.4797 42.625 28.2297 42.4C28.0047 42.15 27.8297 41.875 27.6797 41.575C27.5547 41.275 27.5047 40.95 27.5047 40.625C27.5047 39.975 27.7547 39.325 28.2297 38.85C28.4797 38.625 28.7297 38.45 29.0547 38.325C29.9797 37.925 31.0797 38.15 31.7797 38.85C32.0047 39.1 32.1797 39.35 32.3047 39.675C32.4297 39.975 32.5047 40.3 32.5047 40.625C32.5047 40.95 32.4297 41.275 32.3047 41.575Z" fill="#D1292D"/>
</svg>
