<svg width="504" height="362" viewBox="0 0 604 462" fill="none" xmlns="http://www.w3.org/2000/svg">
<path d="M559.538 343.359C555.705 347.893 551.393 352.301 546.577 356.566C545.399 357.61 544.189 358.646 542.949 359.672C532.004 368.738 518.669 377.119 502.663 384.648C474.648 397.823 438.443 408.39 392.518 415.456C379.319 417.49 365.316 419.232 350.475 420.665C348.447 420.86 346.405 421.05 344.344 421.234C344.342 421.234 344.342 421.234 344.342 421.234C313.441 423.995 278.991 425.44 240.679 425.389C240.679 425.389 212.115 427.956 176.531 425.09C169.952 424.562 163.132 423.847 156.209 422.893C152.914 422.442 149.595 421.936 146.267 421.368C139.116 420.154 131.926 418.666 124.838 416.852C113.488 413.948 102.408 410.205 92.1933 405.404C60.7601 390.624 37.543 365.806 39.9961 324.47C47.0906 204.874 85.0878 251.251 117.274 114.545C149.459 -22.1608 421.401 4.05651 518.546 123.723C573.704 191.667 613.228 279.892 559.538 343.359Z" fill="#F9F4E7"/>
<path d="M184.152 362.004C184.152 362.004 149.96 271.676 211.896 224.5C211.896 224.5 273.148 256.131 247.139 344.997" stroke="#00030D" stroke-width="0.734378" stroke-miterlimit="10" stroke-linecap="round"/>
<path d="M211.896 224.5L220.273 374.059" stroke="#00030D" stroke-width="0.734378" stroke-miterlimit="10" stroke-linecap="round"/>
<path d="M253.067 314.57L218.701 345.989" stroke="#00030D" stroke-width="0.734378" stroke-miterlimit="10" stroke-linecap="round"/>
<path d="M174.92 314.121L218.054 334.445" stroke="#00030D" stroke-width="0.734378" stroke-miterlimit="10" stroke-linecap="round"/>
<path d="M252.508 287.973C252.573 288.446 217.375 322.306 217.375 322.306" stroke="#00030D" stroke-width="0.734378" stroke-miterlimit="10" stroke-linecap="round"/>
<path d="M177.354 280.16L216.517 307.003" stroke="#00030D" stroke-width="0.734378" stroke-miterlimit="10" stroke-linecap="round"/>
<path d="M244.434 260.781L215.724 292.842" stroke="#00030D" stroke-width="0.734378" stroke-miterlimit="10" stroke-linecap="round"/>
<path d="M188.012 251.629L214.539 271.696" stroke="#00030D" stroke-width="0.734378" stroke-miterlimit="10" stroke-linecap="round"/>
<path d="M96.0507 390.323C96.0507 390.323 9.47626 312.553 49.6715 227.789C49.6715 227.789 132.735 227.758 154.062 337.27" stroke="#00030D" stroke-width="0.734378" stroke-miterlimit="10" stroke-linecap="round"/>
<path d="M49.6719 227.789L141.386 383.241" stroke="#00030D" stroke-width="0.734378" stroke-miterlimit="10" stroke-linecap="round"/>
<path d="M143.576 301.426L124.174 354.07" stroke="#00030D" stroke-width="0.734378" stroke-miterlimit="10" stroke-linecap="round"/>
<path d="M59.6777 344.176L117.093 342.066" stroke="#00030D" stroke-width="0.734378" stroke-miterlimit="10" stroke-linecap="round"/>
<path d="M128.261 273.266C128.593 273.736 109.65 329.453 109.65 329.453" stroke="#00030D" stroke-width="0.734378" stroke-miterlimit="10" stroke-linecap="round"/>
<path d="M43.4922 306.477L100.263 313.541" stroke="#00030D" stroke-width="0.734378" stroke-miterlimit="10" stroke-linecap="round"/>
<path d="M104.574 248.625L91.5811 298.827" stroke="#00030D" stroke-width="0.734378" stroke-miterlimit="10" stroke-linecap="round"/>
<path d="M39.1162 270.043L78.6138 276.846" stroke="#00030D" stroke-width="0.734378" stroke-miterlimit="10" stroke-linecap="round"/>
<path d="M92.2989 404.7C92.2989 404.7 31.4182 401.737 19.7178 354.016C19.7178 354.016 53.4472 326.538 98.3206 363.969" fill="#F9F4E7"/>
<path d="M92.2989 404.7C92.2989 404.7 31.4182 401.737 19.7178 354.016C19.7178 354.016 53.4472 326.538 98.3206 363.969" stroke="#00030D" stroke-width="0.734378" stroke-miterlimit="10"/>
<path d="M19.7178 354.016L108.372 386.834" stroke="#00030D" stroke-width="0.734378" stroke-miterlimit="10" stroke-linecap="round"/>
<path d="M82.209 352.875L91.735 380.674" stroke="#00030D" stroke-width="0.734378" stroke-miterlimit="10" stroke-linecap="round"/>
<path d="M62.2666 397.986L84.8908 378.145" stroke="#00030D" stroke-width="0.734378" stroke-miterlimit="10" stroke-linecap="round"/>
<path d="M66.6768 346.5C66.967 346.581 77.6961 375.477 77.6961 375.477" stroke="#00030D" stroke-width="0.734378" stroke-miterlimit="10" stroke-linecap="round"/>
<path d="M43.2266 388.019L68.6222 372.117" stroke="#00030D" stroke-width="0.734378" stroke-miterlimit="10" stroke-linecap="round"/>
<path d="M48.9072 344.328L60.2289 369.016" stroke="#00030D" stroke-width="0.734378" stroke-miterlimit="10" stroke-linecap="round"/>
<path d="M29.4023 374.664L47.6951 364.367" stroke="#00030D" stroke-width="0.734378" stroke-miterlimit="10" stroke-linecap="round"/>
<path d="M322.566 317.32C322.566 317.32 320.342 325.294 320.328 327.956C320.316 330.371 325.355 332.068 327.074 330.71C327.074 330.71 329.122 331.773 329.62 330.736C330.118 329.699 330.74 318.291 330.74 318.291L322.566 317.32Z" fill="#EBF0FF"/>
<path d="M322.566 317.32C322.566 317.32 320.342 325.294 320.328 327.956C320.316 330.371 325.355 332.068 327.074 330.71C327.074 330.71 329.122 331.773 329.62 330.736C330.118 329.699 330.74 318.291 330.74 318.291L322.566 317.32Z" stroke="#00030D" stroke-width="0.550783" stroke-miterlimit="10" stroke-linecap="round" stroke-linejoin="round"/>
<path d="M327.074 330.71C327.074 330.71 326.55 330.321 326.758 327.956C326.965 325.592 326.726 325.656 326.726 325.656" fill="#EBF0FF"/>
<path d="M327.074 330.71C327.074 330.71 326.55 330.321 326.758 327.956C326.965 325.592 326.726 325.656 326.726 325.656" stroke="#00030D" stroke-width="0.550783" stroke-miterlimit="10" stroke-linecap="round" stroke-linejoin="round"/>
<path d="M202.001 154.578C202.001 154.578 206.768 164.394 206.263 165.489C205.758 166.584 199.905 167.222 199.905 167.222L202.001 154.578Z" fill="#EBF0FF" stroke="#00030D" stroke-width="0.734378" stroke-miterlimit="10" stroke-linecap="round" stroke-linejoin="round"/>
<path d="M504.822 242.358C504.822 242.358 507.767 257.397 508.833 258.57C509.899 259.742 500.627 275.57 495.191 274.451C489.755 273.331 489.808 265.604 489.808 265.604C489.808 265.604 492.046 261.554 489.169 248.498C486.291 235.441 504.822 242.358 504.822 242.358Z" fill="#EBF0FF"/>
<path d="M504.822 242.358C504.822 242.358 507.767 257.397 508.833 258.57C509.899 259.742 500.627 275.57 495.191 274.451C489.755 273.331 489.808 265.604 489.808 265.604C489.808 265.604 492.046 261.554 489.169 248.498C486.291 235.441 504.822 242.358 504.822 242.358Z" stroke="#00030D" stroke-width="0.734378" stroke-miterlimit="10" stroke-linecap="round"/>
<path d="M507.835 257.269C507.835 257.269 499.473 270.106 496.221 272.303C492.97 274.498 490.942 265.925 490.942 265.925C490.942 265.925 494.176 267.855 498.713 264.448C503.249 261.039 503.823 256.423 502.766 253.679C501.728 250.974 498.416 252.522 498.317 252.569C493.493 254.93 490.71 254.226 490.71 254.226L489.39 249.038L503.343 240.896C503.741 240.096 503.987 239.711 503.975 240.021C503.917 241.481 507.835 257.269 507.835 257.269Z" fill="#D9B55F"/>
<path d="M501.11 269.445C501.11 269.445 507.558 273.229 501.11 288.364C494.661 303.499 488.866 312.593 487.997 313.305C487.997 313.305 483.729 289.207 485.546 277.706C486.851 269.444 490.41 269.445 490.41 269.445H501.11Z" fill="#EBF0FF"/>
<path d="M501.11 269.445C501.11 269.445 507.558 273.229 501.11 288.364C494.661 303.499 488.866 312.593 487.997 313.305C487.997 313.305 483.729 289.207 485.546 277.706C486.851 269.444 490.41 269.445 490.41 269.445H501.11Z" stroke="#00030D" stroke-width="0.734378" stroke-miterlimit="10" stroke-linecap="round"/>
<path d="M507.7 255.33C506.399 257.529 500.221 267.492 495.032 269.444C495.032 269.444 491.918 264.167 490.587 258.142C490.535 257.907 489.82 258.828 489.759 259.06C489.444 260.239 488.941 263.083 488.37 263.476C488.37 263.476 486.612 274.72 486.878 276.905C486.878 276.905 492.42 269.871 495.032 269.444C495.032 269.444 499.082 270.723 500.787 280.156C500.787 280.156 510.699 264.808 511.392 260.012C511.392 260.012 509.423 257.668 508.312 254.963C508.24 254.788 507.797 255.167 507.7 255.33Z" fill="#EBF0FF"/>
<path d="M495.032 269.444C500.221 267.492 506.399 257.529 507.7 255.33C507.797 255.167 508.24 254.788 508.312 254.963C509.423 257.668 511.392 260.012 511.392 260.012C510.699 264.808 500.787 280.156 500.787 280.156C499.082 270.723 495.032 269.444 495.032 269.444ZM495.032 269.444C495.032 269.444 491.918 264.167 490.587 258.142C490.535 257.907 489.82 258.828 489.759 259.06C489.444 260.239 488.941 263.083 488.37 263.476C488.37 263.476 486.612 274.72 486.878 276.905C486.878 276.905 492.42 269.871 495.032 269.444Z" stroke="#00030D" stroke-width="0.734378" stroke-miterlimit="10" stroke-linecap="round"/>
<path d="M495.032 269.445C495.032 269.445 489.913 306.051 487.997 312.399L495.032 269.445Z" fill="#EBF0FF"/>
<path d="M495.032 269.445C495.032 269.445 489.913 306.051 487.997 312.399" stroke="#00030D" stroke-width="0.734378" stroke-miterlimit="10" stroke-linecap="round"/>
<path d="M559.537 343.36L541.068 343.602C541.068 343.602 541.946 350.781 542.948 359.673C532.003 368.74 518.669 377.12 502.662 384.649L459.603 376.543C459.603 376.543 462.392 337.52 459.603 323.838C456.817 310.155 454.03 310.284 454.03 310.284C454.03 310.284 456.817 282.793 465.685 266.826C467.98 262.695 485.451 261.356 485.451 261.356L485.618 260.281C485.618 260.281 485.394 260.124 486.267 259.984C487.14 259.844 489.138 259.618 489.138 259.618C489.138 259.618 486.405 292.13 487.996 303.973C487.996 303.973 499.997 286.83 509.699 258.141C509.699 258.141 512.9 258.408 513.097 258.887C513.272 259.314 513.136 259.336 513.102 259.336C513.532 259.365 539.988 261.463 543.095 266.102C555.734 284.964 562.414 304.436 565.201 318.879C567.988 333.322 566.759 340.447 559.537 343.36Z" fill="#0235CD"/>
<path d="M559.537 343.36L541.068 343.602C541.068 343.602 541.946 350.781 542.948 359.673C532.003 368.74 518.669 377.12 502.662 384.649L459.603 376.543C459.603 376.543 462.392 337.52 459.603 323.838C456.817 310.155 454.03 310.284 454.03 310.284C454.03 310.284 456.817 282.793 465.685 266.826C467.98 262.695 485.451 261.356 485.451 261.356L485.618 260.281C485.618 260.281 485.394 260.124 486.267 259.984C487.14 259.844 489.138 259.618 489.138 259.618C489.138 259.618 486.405 292.13 487.996 303.973C487.996 303.973 499.997 286.83 509.699 258.141C509.699 258.141 512.9 258.408 513.097 258.887C513.272 259.314 513.136 259.336 513.102 259.336C513.532 259.365 539.988 261.463 543.095 266.102C555.734 284.964 562.414 304.436 565.201 318.879C567.987 333.322 566.759 340.447 559.537 343.36Z" stroke="#00030D" stroke-width="0.734378" stroke-miterlimit="10" stroke-linecap="round"/>
<path d="M487.994 305.634C487.858 305.396 479.108 290.165 478.187 288.069C477.257 285.958 480.896 283.254 480.896 283.254C480.896 283.254 479.454 282.748 477.764 281.652C476.075 280.556 484.259 261.461 484.259 261.461H485.412C484.908 262.875 479.498 278.018 478.694 280.153C478.694 280.153 482.637 282.109 483.874 282.674L479.255 287.628L487.383 302.825C487.729 304.499 487.978 305.556 487.994 305.634ZM513.913 283.339C513.07 284.185 507.41 283.339 507.41 283.339C507.41 283.339 509.86 287.124 509.523 289.835C509.184 292.546 488.339 305.637 488.339 305.637L488.059 303.914C495.729 296.841 507.185 288.305 507.185 288.305C506.509 285.94 504.594 282.056 504.594 282.056C509.718 280.73 513.097 281.098 513.097 281.098C513.153 278.523 513.103 261.126 513.097 259.461H514.694C514.694 259.461 514.759 282.496 513.913 283.339ZM464.785 290.008C464.785 290.008 464.386 288.812 463.431 292.706C462.476 296.6 456.817 327.894 456.817 327.894L463.735 332.013C463.735 332.013 462.744 317.877 464.785 290.008ZM529.033 290.918C529.033 290.918 531.7 304.641 526.007 314.26C522.345 320.449 508.918 323.103 508.918 323.103L543.096 324.469C543.096 324.469 528.357 284.775 529.033 290.918Z" fill="#01185C"/>
<path d="M483.448 381.029C489.721 370.483 488.153 323.203 488.196 318.895C488.238 314.588 487.997 303.972 487.997 303.972L487.384 302.826L479.256 287.63L483.875 282.676C482.638 282.11 478.694 280.154 478.694 280.154C479.499 278.02 484.908 262.877 485.413 261.462C485.439 261.392 485.452 261.355 485.452 261.355" stroke="#00030D" stroke-width="0.734378" stroke-miterlimit="10" stroke-linecap="round"/>
<path d="M265.13 288.871C265.13 288.871 268.551 284.436 271.338 284.521C274.126 284.605 279.869 286.337 282.234 285.999C284.599 285.661 289.329 297.162 289.329 297.162C289.329 297.162 279.489 306.847 277.23 307.635C274.97 308.424 269.114 308.029 268.607 307.354C268.607 307.354 260.949 307.016 261.175 304.989C261.175 304.989 255.198 304.568 257.511 299.57C259.823 294.572 265.13 288.871 265.13 288.871Z" fill="#EBF0FF"/>
<path d="M265.13 288.871C265.13 288.871 268.551 284.436 271.338 284.521C274.126 284.605 279.869 286.337 282.234 285.999C284.599 285.661 289.329 297.162 289.329 297.162C289.329 297.162 279.489 306.847 277.23 307.635C274.97 308.424 269.114 308.029 268.607 307.354C268.607 307.354 260.949 307.016 261.175 304.989C261.175 304.989 255.198 304.568 257.511 299.57C259.823 294.572 265.13 288.871 265.13 288.871Z" stroke="#00030D" stroke-width="0.734378" stroke-miterlimit="10" stroke-linecap="round"/>
<path d="M261.174 304.996C261.174 304.996 268.719 301.842 269.057 301.617L261.174 304.996Z" fill="#EBF0FF"/>
<path d="M261.174 304.996C261.174 304.996 268.719 301.842 269.057 301.617" stroke="#00030D" stroke-width="0.734378" stroke-miterlimit="10" stroke-linecap="round"/>
<path d="M268.607 307.359L273.957 305.332" stroke="#00030D" stroke-width="0.734378" stroke-miterlimit="10" stroke-linecap="round"/>
<path d="M273.153 308.075L276.772 306.625" stroke="#00030D" stroke-width="0.183594" stroke-miterlimit="10"/>
<path d="M256.303 286.547C256.303 286.547 262.343 287.898 264.876 288.236C267.41 288.574 269.353 287.222 272.436 288.447C275.519 289.672 278.348 291.319 280.375 291.15C282.402 290.981 279.7 294.824 276.997 294.866C274.294 294.909 269.479 293.557 268.339 294.233C267.199 294.909 258.457 299.47 257.232 299.639C256.008 299.808 250.349 296.091 250.349 296.091L256.303 286.547Z" fill="#EBF0FF"/>
<path d="M256.303 286.547C256.303 286.547 262.343 287.898 264.876 288.236C267.41 288.574 269.353 287.222 272.436 288.447C275.519 289.672 278.348 291.319 280.375 291.15C282.402 290.981 279.7 294.824 276.997 294.866C274.294 294.909 269.479 293.557 268.339 294.233C267.199 294.909 258.457 299.47 257.232 299.639C256.008 299.808 250.349 296.091 250.349 296.091L256.303 286.547Z" stroke="#00030D" stroke-width="0.734378" stroke-miterlimit="10" stroke-linecap="round"/>
<path d="M195.449 230.336C195.449 230.336 213.693 255.609 219.268 261.216C224.842 266.824 258.669 285.321 258.669 285.321C258.669 285.321 255.375 297.357 250.054 299.637C250.054 299.637 215.087 279.62 208.752 273.538C202.417 267.457 187.341 248.96 187.341 248.96L195.449 230.336Z" fill="#EBF0FF"/>
<path d="M195.449 230.336C195.449 230.336 213.693 255.609 219.268 261.216C224.842 266.824 258.669 285.321 258.669 285.321C258.669 285.321 255.375 297.357 250.054 299.637C250.054 299.637 215.087 279.62 208.752 273.538C202.417 267.457 187.341 248.96 187.341 248.96L195.449 230.336Z" stroke="#00030D" stroke-width="0.734378" stroke-miterlimit="10" stroke-linecap="round"/>
<path d="M197.908 234.231C197.908 234.231 196.61 252.092 198.373 256.99C200.136 261.889 203.289 267.267 203.289 267.267C203.289 267.267 191.521 254.203 191.521 252.486C191.521 250.768 195.701 231.609 195.701 231.609L197.908 234.231Z" fill="#D9B55F"/>
<path d="M355.627 178.571C355.627 178.571 354.95 194.443 353.807 196.711C352.663 198.98 364.77 203.361 364.77 203.361L374.455 195.06C374.455 195.06 373.187 179.724 373.763 173.152C374.34 166.58 355.627 178.571 355.627 178.571Z" fill="#EBF0FF" stroke="#00030D" stroke-width="0.734378" stroke-miterlimit="10" stroke-linecap="round" stroke-linejoin="round"/>
<path d="M355.546 180.278L373.404 174.762C373.404 174.762 373.445 186.483 373.892 192.974C373.892 192.974 357.272 199.902 355.632 199.467C353.992 199.031 355.294 189.753 355.294 189.753C355.294 189.753 366.101 192.688 368.766 186.384C371.431 180.082 359.415 182.584 355.546 180.278Z" fill="#D9B55F"/>
<path d="M403.227 310.078C402.902 313.942 393.101 384.096 392.519 415.455C379.319 417.488 365.316 419.231 350.475 420.664C348.447 420.859 346.405 421.049 344.344 421.233C344.342 421.233 344.342 421.233 344.342 421.233C335.94 415.437 328.731 409.737 328.731 409.737V317.378C328.731 317.378 403.974 301.184 403.227 310.078Z" fill="#01185C"/>
<path d="M403.227 310.078C402.902 313.942 393.101 384.096 392.519 415.455C379.319 417.488 365.316 419.231 350.475 420.664C348.447 420.859 346.405 421.049 344.344 421.233C344.342 421.233 344.342 421.233 344.342 421.233C335.94 415.437 328.731 409.737 328.731 409.737V317.378C328.731 317.378 403.974 301.184 403.227 310.078Z" stroke="#00030D" stroke-width="0.734378" stroke-miterlimit="10"/>
<path d="M350.475 420.666L348.114 320.082" stroke="#00030D" stroke-width="0.734378" stroke-miterlimit="10"/>
<path d="M546.579 356.567C541.237 361.298 535.276 365.853 528.656 370.208C477.653 403.778 387.545 425.588 240.68 425.389C240.68 425.389 212.117 427.957 176.532 425.091C169.953 424.562 163.133 423.848 156.21 422.894C152.915 422.442 149.596 421.936 146.268 421.369C139.117 420.155 131.927 418.667 124.839 416.853C113.489 413.948 102.409 410.206 92.1943 405.404V356.566H546.579V356.567Z" fill="#F9F4E7" stroke="#00030D" stroke-width="0.734378" stroke-miterlimit="10"/>
<path d="M546.097 356.566C540.755 361.298 534.725 365.845 528.106 370.201L92.1943 363.965V356.567L546.097 356.566Z" fill="#D9B55F"/>
<path d="M176.53 425.091C169.951 424.562 163.131 423.848 156.208 422.893C153.237 414.541 152.134 390.569 152.372 386.047C152.626 381.233 150.978 373.8 150.978 373.8L174.533 364.383C174.533 364.383 176.443 373.251 175.303 388.834C174.325 402.203 176.027 420.238 176.53 425.091Z" fill="#EBF0FF"/>
<path d="M176.53 425.091C169.951 424.562 163.131 423.848 156.208 422.893C153.237 414.541 152.134 390.569 152.372 386.047C152.626 381.233 150.978 373.8 150.978 373.8L174.533 364.383C174.533 364.383 176.443 373.251 175.303 388.834C174.325 402.203 176.027 420.238 176.53 425.091Z" stroke="#00030D" stroke-width="0.734378" stroke-miterlimit="10" stroke-linecap="round"/>
<path d="M146.267 421.369C139.115 420.155 131.925 418.667 124.838 416.852C122.968 406.312 122.272 389.731 122.467 386.047C122.722 381.233 121.073 373.8 121.073 373.8L144.627 364.383C144.627 364.383 146.539 373.251 145.399 388.834C144.594 399.835 145.604 413.994 146.267 421.369Z" fill="#EBF0FF"/>
<path d="M146.267 421.369C139.115 420.155 131.925 418.667 124.838 416.852C122.968 406.312 122.272 389.731 122.467 386.047C122.722 381.233 121.073 373.8 121.073 373.8L144.627 364.383C144.627 364.383 146.539 373.251 145.399 388.834C144.594 399.835 145.604 413.994 146.267 421.369Z" stroke="#00030D" stroke-width="0.734378" stroke-miterlimit="10" stroke-linecap="round"/>
<path d="M122.203 377.632C122.203 377.632 129.569 380.54 135.481 381.047C141.393 381.554 145.385 381.234 145.385 381.234L145.677 374.754L121.073 372.191L122.203 377.632ZM152.611 381.675C152.611 381.675 159.473 380.54 165.386 381.047C171.298 381.554 175.183 381.14 175.183 381.14L175.39 374.909L151.565 372.674L152.611 381.675Z" fill="#D9B55F"/>
<path d="M559.538 343.363C555.705 347.898 551.394 352.305 546.578 356.571H80.5664V343.363H559.538Z" fill="#F9F4E7"/>
<path d="M559.538 343.363C555.705 347.898 551.394 352.305 546.578 356.571H80.5664V343.363H559.538Z" stroke="#00030D" stroke-width="0.734378" stroke-miterlimit="10"/>
<path d="M118.208 284.777C118.208 284.777 115.505 294.913 115.336 313.832C115.167 332.752 114.111 372.787 114.111 372.787C114.111 372.787 125.978 377.348 137.972 378.193C149.966 379.038 184.764 376.841 184.764 376.841V291.872L118.208 284.777Z" fill="#0235CD"/>
<path d="M118.208 284.777C118.208 284.777 115.505 294.913 115.336 313.832C115.167 332.752 114.111 372.787 114.111 372.787C114.111 372.787 125.978 377.348 137.972 378.193C149.966 379.038 184.764 376.841 184.764 376.841V291.872L118.208 284.777Z" stroke="#00030D" stroke-width="0.734378" stroke-miterlimit="10" stroke-linecap="round"/>
<path d="M117.272 292.132C117.272 292.132 122.346 302.432 140.927 305.642C159.509 308.851 164.83 310.963 165.928 318.987C167.026 327.011 162.695 345.762 170.604 350.998C178.513 356.235 184.362 353.257 184.362 353.257V324.871C184.362 324.871 189.578 288.58 181.469 285.709C173.361 282.837 118.376 284.167 118.376 284.167L117.272 292.132Z" fill="#01185C"/>
<path d="M174.533 322.827C174.533 322.827 173.199 326.552 173.179 329.035C173.13 334.83 174.281 342.687 173.572 343.929C173.572 343.929 172.263 344.572 172.052 345.111C171.853 345.619 171.722 345.89 172.898 347.196C173.382 347.733 174.533 347.87 174.533 347.87C175.124 348.588 176.803 348.768 176.803 348.768C177.372 349.535 179.09 349.257 179.344 349.306C179.344 349.306 180.357 349.841 181.3 349.644C181.3 349.644 186.812 345.008 187.695 343.534C187.876 343.232 187.963 342.883 187.944 342.532L186.79 321.434L174.533 322.827Z" fill="#EBF0FF"/>
<path d="M174.533 322.827C174.533 322.827 173.199 326.552 173.179 329.035C173.13 334.83 174.281 342.687 173.572 343.929C173.572 343.929 172.263 344.572 172.052 345.111C171.853 345.619 171.722 345.89 172.898 347.196C173.382 347.733 174.533 347.87 174.533 347.87C175.124 348.588 176.803 348.768 176.803 348.768C177.372 349.535 179.09 349.257 179.344 349.306C179.344 349.306 180.357 349.841 181.3 349.644C181.3 349.644 186.812 345.008 187.695 343.534C187.876 343.232 187.963 342.883 187.944 342.532L186.79 321.434L174.533 322.827Z" stroke="#00030D" stroke-width="0.734378" stroke-miterlimit="10" stroke-linecap="round"/>
<path d="M179.345 349.306C179.345 349.306 185.158 344.745 185.524 344.098L179.345 349.306Z" fill="#EBF0FF"/>
<path d="M179.345 349.306C179.345 349.306 185.158 344.745 185.524 344.098" stroke="#00030D" stroke-width="0.734378" stroke-miterlimit="10" stroke-linecap="round"/>
<path d="M176.803 348.768C176.803 348.768 182.905 344.183 183.271 343.676L176.803 348.768Z" fill="#EBF0FF"/>
<path d="M176.803 348.768C176.803 348.768 182.905 344.183 183.271 343.676" stroke="#00030D" stroke-width="0.734378" stroke-miterlimit="10" stroke-linecap="round"/>
<path d="M174.534 347.871C174.534 347.871 178.402 345.196 178.796 344.492L174.534 347.871Z" fill="#EBF0FF"/>
<path d="M174.534 347.871C174.534 347.871 178.402 345.196 178.796 344.492" stroke="#00030D" stroke-width="0.734378" stroke-miterlimit="10" stroke-linecap="round"/>
<path d="M173.573 343.926C173.573 343.926 173.003 345.312 173.235 345.904L173.573 343.926Z" fill="#EBF0FF"/>
<path d="M173.573 343.926C173.573 343.926 173.003 345.312 173.235 345.904" stroke="#00030D" stroke-width="0.734378" stroke-miterlimit="10" stroke-linecap="round"/>
<path d="M186.621 326.339C186.621 326.339 180.878 329.204 177.668 328.529C174.459 327.853 173.72 327.388 173.72 327.388C173.72 327.388 174.29 324.263 174.712 323.926C175.135 323.588 186.621 323.355 186.621 323.355V326.339H186.621Z" fill="#D9B55F"/>
<path d="M193.338 133.121C193.338 133.121 200.773 135.019 201.765 143.328C202.756 151.636 201.669 155.531 201.913 157.432C202.157 159.334 203.789 165.578 201.593 172.032C199.397 178.485 195.904 182.895 189.513 182.41C183.121 181.926 179.847 180.51 179.847 180.51L176.528 192.676L157.049 188.845C157.049 188.845 156.225 145.128 166.286 140.311C176.345 135.494 193.338 133.121 193.338 133.121Z" fill="#EBF0FF"/>
<path d="M193.338 133.121C193.338 133.121 200.773 135.019 201.765 143.328C202.756 151.636 201.669 155.531 201.913 157.432C202.157 159.334 203.789 165.578 201.593 172.032C199.397 178.485 195.904 182.895 189.513 182.41C183.121 181.926 179.847 180.51 179.847 180.51L176.528 192.676L157.049 188.845C157.049 188.845 156.225 145.128 166.286 140.311C176.345 135.494 193.338 133.121 193.338 133.121Z" stroke="#00030D" stroke-width="0.734378" stroke-miterlimit="10" stroke-linecap="round" stroke-linejoin="round"/>
<path d="M166.183 188.736C166.183 188.736 164.392 185.277 166.168 183.576C167.944 181.875 175.107 178.959 180.843 169.43C186.578 159.901 185.976 156.695 188.159 155.879L191.627 153.738C191.627 153.738 188.385 148.621 183.707 154.342C179.03 160.064 157.627 183.81 157.627 183.81L156.826 187.882L166.183 188.736Z" fill="#D9B55F"/>
<path d="M355.631 194.485C355.631 194.485 367.896 199.341 368.554 202.087C369.213 204.832 338.992 239.419 338.992 239.419C338.992 239.419 336.374 228.946 337.641 224.807C338.908 220.668 348.452 196.121 348.452 196.121C348.452 196.121 352.506 193.471 355.631 194.485Z" fill="#EBF0FF" stroke="#00030D" stroke-width="0.734378" stroke-miterlimit="10" stroke-linecap="round" stroke-linejoin="round"/>
<path d="M355.632 194.488L339.611 238.155" stroke="#00030D" stroke-width="0.734378" stroke-miterlimit="10" stroke-linecap="round" stroke-linejoin="round"/>
<path d="M191.41 155.095C191.41 155.095 186.034 154.155 187.08 160.616C188.126 167.077 192.847 165.06 193.319 164.232M174.22 177.316C174.22 177.316 175.6 179.329 179.847 180.508L174.22 177.316Z" fill="#EBF0FF"/>
<path d="M191.41 155.095C191.41 155.095 186.034 154.155 187.08 160.616C188.126 167.077 192.847 165.06 193.319 164.232M174.22 177.316C174.22 177.316 175.6 179.329 179.847 180.508" stroke="#00030D" stroke-width="0.734378" stroke-miterlimit="10" stroke-linecap="round" stroke-linejoin="round"/>
<path d="M157.032 186.348C157.032 186.348 167.365 188.866 177.472 189.212C177.472 189.212 178.626 188.262 178.119 191.359C177.613 194.456 177.5 198.792 177.5 198.792L155.146 196.427L157.032 186.348Z" fill="#EBF0FF"/>
<path d="M157.032 186.348C157.032 186.348 167.365 188.866 177.472 189.212C177.472 189.212 178.626 188.262 178.119 191.359C177.613 194.456 177.5 198.792 177.5 198.792L155.146 196.427L157.032 186.348Z" stroke="#00030D" stroke-width="0.734378" stroke-miterlimit="10" stroke-linecap="round" stroke-linejoin="round"/>
<path d="M178.908 194.685C178.908 194.685 194.9 201.329 197.771 207.326C200.643 213.323 192.366 256.568 191.352 275.825C190.338 295.082 187.551 324.898 187.551 324.898C187.551 324.898 178.767 329.036 171.503 323.293L170.659 300.657C170.659 300.657 135.142 303.951 114.111 285.074C114.111 285.074 123.788 242.954 128.157 227.653C133.083 210.403 139.373 195.946 147.101 193.595C154.829 191.245 157.696 192.573 157.696 192.573L178.908 194.685Z" fill="#EBF0FF"/>
<path d="M178.908 194.685C178.908 194.685 194.9 201.329 197.771 207.326C200.643 213.323 192.366 256.568 191.352 275.825C190.338 295.082 187.551 324.898 187.551 324.898C187.551 324.898 178.767 329.036 171.503 323.293L170.659 300.657C170.659 300.657 135.142 303.951 114.111 285.074C114.111 285.074 123.788 242.954 128.157 227.653C133.083 210.403 139.373 195.946 147.101 193.595C154.829 191.245 157.696 192.573 157.696 192.573L178.908 194.685Z" stroke="#00030D" stroke-width="0.734378" stroke-miterlimit="10" stroke-linecap="round"/>
<path d="M157.285 189.613C157.285 189.613 166.689 193.555 178.908 191.922V194.681C178.908 194.681 165.169 198.904 156.328 192.57L157.285 189.613Z" fill="#D9B55F" stroke="#00030D" stroke-width="0.734378" stroke-miterlimit="10"/>
<path d="M175.22 228.691C175.22 228.691 166.267 267.291 163.733 279.285C161.199 291.278 160.833 300.456 160.833 300.456C160.833 300.456 167.871 300.738 170.237 300.344C170.237 300.344 171.337 268.248 173.405 259.45C175.473 250.652 175.22 228.691 175.22 228.691Z" fill="#D9B55F"/>
<path d="M175.684 229.328C175.684 229.328 173.784 260.495 172.263 268.73C170.743 276.965 170.465 295.481 170.659 300.657" fill="#EBF0FF"/>
<path d="M175.684 229.328C175.684 229.328 173.784 260.495 172.263 268.73C170.743 276.965 170.465 295.481 170.659 300.657" stroke="#00030D" stroke-width="0.734378" stroke-miterlimit="10" stroke-linecap="round"/>
<path d="M348.02 134.694C348.02 134.694 343.821 143.234 344.521 152.753C344.521 152.753 345.221 154.503 343.331 160.068C341.441 165.633 345.641 179.387 356.665 180.437C367.69 181.487 374.514 178.755 380.079 168.013C380.079 168.013 384.267 170.357 386.892 165.213C389.517 160.068 385.726 157.28 382.366 159.38C382.366 159.38 384.804 138.649 373.989 133.084C363.175 127.519 348.02 134.694 348.02 134.694Z" fill="#EBF0FF" stroke="#00030D" stroke-width="0.734378" stroke-miterlimit="10" stroke-linecap="round" stroke-linejoin="round"/>
<path d="M344.835 149.681C344.835 149.681 346.018 138.078 354.295 136.502C362.573 134.925 368.541 137.594 371.244 141.187C373.947 144.779 372.032 156.097 376.087 159.081C380.141 162.065 376.227 176.396 363.692 180.112C363.692 180.112 373.652 180.554 379.916 167.654C379.916 167.654 380.69 168.006 381.45 168.133C382.21 168.259 385.976 168.879 387.412 162.65C387.412 162.65 387.801 158.811 384.56 159.018C383.96 159.056 383.237 159.338 382.364 159.693C382.364 159.693 382.675 135.938 377.1 134.362C371.526 132.785 368.287 130.374 362.164 131.045C356.041 131.715 347.764 127.492 344.836 132.729C341.907 137.966 344.835 149.681 344.835 149.681Z" fill="#D9B55F"/>
<path d="M367.795 136.757C367.795 136.757 366.897 130.8 351.631 135.524C345.12 137.539 344.603 147.353 344.603 147.353L344.47 149.255C344.47 149.255 335.666 149.042 336.401 139.697C337.136 130.353 342.58 124.319 357.448 122.725C379.682 120.342 379.411 129.19 378.991 133.179C378.991 133.179 389.484 133.375 388.83 144.863C388.631 148.359 387.129 155.834 385.793 158.7C384.629 158.501 383.431 158.73 382.421 159.344L382.366 159.378C382.366 159.378 376.731 163.099 376.113 153.032C375.509 143.207 376.614 135.287 367.795 136.757Z" fill="#01185C"/>
<path d="M351.605 155.332C351.486 156.094 350.981 156.648 350.478 156.569C349.975 156.49 349.665 155.808 349.785 155.046C349.904 154.283 350.409 153.729 350.912 153.808C351.415 153.887 351.725 154.569 351.605 155.332ZM364.603 157.467C364.483 158.23 363.979 158.784 363.476 158.705C362.973 158.626 362.662 157.944 362.782 157.181C362.902 156.419 363.407 155.865 363.91 155.944C364.412 156.023 364.723 156.705 364.603 157.467Z" fill="#00030D"/>
<path d="M356.613 156.605C356.613 156.605 352.669 164.471 354.13 165.513C355.592 166.556 357.447 166.666 357.447 166.666" fill="#EBF0FF"/>
<path d="M356.613 156.605C356.613 156.605 352.669 164.471 354.13 165.513C355.592 166.556 357.447 166.666 357.447 166.666" stroke="#00030D" stroke-width="0.734378" stroke-miterlimit="10" stroke-linecap="round" stroke-linejoin="round"/>
<path d="M362.165 170.117C357.058 176.628 351.951 171.721 351.951 171.721L362.165 170.117ZM348.05 150.474C348.05 150.474 350.265 147.564 353.807 149.624L348.05 150.474ZM363.526 150.337C363.526 150.337 367.928 149.164 369.109 152.322L363.526 150.337ZM375.228 184.351C375.228 184.351 367.457 194.148 355.633 194.486C355.633 194.486 361.207 201.581 360.447 206.311C360.447 206.311 375.566 192.712 376.326 191.277C377.086 189.841 375.228 184.351 375.228 184.351ZM355.633 194.486C355.633 194.486 352.338 194.233 349.889 199.976C349.889 199.976 347.657 195.673 355.319 185.197C355.319 185.197 353.731 190.896 355.633 194.486Z" fill="#EBF0FF"/>
<path d="M348.05 150.474C348.05 150.474 350.265 147.564 353.807 149.624M363.526 150.337C363.526 150.337 367.928 149.164 369.109 152.322M355.633 194.486C367.457 194.148 375.228 184.351 375.228 184.351C375.228 184.351 377.086 189.841 376.326 191.277C375.566 192.712 360.447 206.311 360.447 206.311C361.207 201.581 355.633 194.486 355.633 194.486ZM355.633 194.486C355.633 194.486 352.338 194.233 349.889 199.976C349.889 199.976 347.657 195.673 355.319 185.197C355.319 185.197 353.731 190.896 355.633 194.486ZM362.165 170.117C357.058 176.628 351.951 171.721 351.951 171.721L362.165 170.117Z" stroke="#00030D" stroke-width="0.734378" stroke-miterlimit="10" stroke-linecap="round" stroke-linejoin="round"/>
<path d="M376.508 186.522C376.508 186.522 351.029 213.747 341.021 233.511C341.021 233.511 350.383 195.836 352.67 189.208C352.67 189.208 352.55 188.408 351.198 189.337C349.847 190.266 349.889 191.195 349.889 191.195C349.889 191.195 341.147 195.545 339.88 196.728C338.613 197.91 332.912 204.878 331.138 226.67C329.365 248.461 327.591 261.224 327.591 261.224C327.591 261.224 288.929 279.881 281.084 283.935C281.084 283.935 285.022 298.04 290.427 300.828C290.427 300.828 303.688 295.512 312.05 293.102C320.411 290.692 324.888 288.919 324.888 288.919C324.888 288.919 320.965 314.618 321.472 318.165C321.472 318.165 323.199 320.592 326.155 320.085C326.155 320.085 334.559 326.124 343.934 325.617C353.309 325.111 394.485 324.984 403.227 317.636C403.227 317.636 390.177 275.32 390.557 270.632C390.938 265.945 402.256 217.97 395.33 204.034C388.404 190.097 379.535 189.591 379.535 189.591C379.535 189.591 380.084 188.915 379.62 188.535C379.155 188.155 376.564 185.818 376.508 186.522Z" fill="#01185C"/>
<path d="M376.508 186.522C376.508 186.522 351.029 213.747 341.021 233.511C341.021 233.511 350.383 195.836 352.67 189.208C352.67 189.208 352.55 188.408 351.198 189.337C349.847 190.266 349.889 191.195 349.889 191.195C349.889 191.195 341.147 195.545 339.88 196.728C338.613 197.91 332.912 204.878 331.138 226.67C329.365 248.461 327.591 261.224 327.591 261.224C327.591 261.224 288.929 279.881 281.084 283.935C281.084 283.935 285.022 298.04 290.427 300.828C290.427 300.828 303.688 295.512 312.05 293.102C320.411 290.692 324.888 288.919 324.888 288.919C324.888 288.919 320.965 314.618 321.472 318.165C321.472 318.165 323.199 320.592 326.155 320.085C326.155 320.085 334.559 326.124 343.934 325.617C353.309 325.111 394.485 324.984 403.227 317.636C403.227 317.636 390.177 275.32 390.557 270.632C390.938 265.945 402.256 217.97 395.33 204.034C388.404 190.097 379.535 189.591 379.535 189.591C379.535 189.591 380.084 188.915 379.62 188.535C379.155 188.155 376.564 185.818 376.508 186.522Z" stroke="#00030D" stroke-width="0.734378" stroke-miterlimit="10"/>
<path d="M379.534 189.586C379.534 189.586 366.865 207.914 364.078 212.982L356.221 215.263L357.236 221.006C357.236 221.006 346.087 226.327 341.02 233.506C341.02 233.506 336.916 246.005 336.181 254.389" stroke="#EBF0FF" stroke-width="0.550783" stroke-miterlimit="10"/>
<path d="M334.81 213.746L330.503 259.356" stroke="#00030D" stroke-width="0.734378" stroke-miterlimit="10"/>
<path d="M329.491 286.555L326.154 320.086" stroke="#00030D" stroke-width="0.734378" stroke-miterlimit="10"/>
<path d="M324.888 288.91C324.888 288.91 338.233 281.9 347.735 275.692C357.237 269.484 385.785 238.148 385.785 238.148" fill="#01185C"/>
<path d="M324.888 288.91C324.888 288.91 338.233 281.9 347.735 275.692C357.237 269.484 385.785 238.148 385.785 238.148" stroke="#00030D" stroke-width="0.734378" stroke-miterlimit="10"/>
<path d="M327.59 261.225C327.59 261.225 332.404 259.397 334.811 256.02C337.218 252.643 375.841 206.91 382.429 203.996" stroke="#00030D" stroke-width="0.734378" stroke-miterlimit="10"/>
<path d="M467.959 224.092C467.959 224.092 462.949 204.587 475.206 197.02C475.206 197.02 474.141 195.208 477.658 192.97C481.175 190.731 489.443 187.401 506.009 195.954C522.401 204.417 517.946 223.452 516.348 227.929C514.749 232.405 507.288 248.073 502.172 242.318C497.056 236.562 467.959 224.092 467.959 224.092Z" fill="#01185C"/>
<path d="M480.122 199.078C480.122 199.078 473.928 199.787 471.051 207.461C468.173 215.135 469.452 220.251 467.96 224.088C466.468 227.925 464.975 231.655 467.32 236.771C469.665 241.887 475.421 257.342 490.769 252.013C506.117 246.684 508.248 235.492 508.248 235.492C508.248 235.492 511.446 236.239 512.405 231.549C513.364 226.859 511.765 224.088 508.568 223.662C505.37 223.235 503.559 225.918 503.559 225.918C503.559 225.918 502.173 227.925 502.066 230.696C501.96 233.467 500.787 227.179 499.721 225.047C498.656 222.915 482.668 223.768 482.775 214.708C482.881 205.649 482.467 201.103 480.122 199.078Z" fill="#EBF0FF"/>
<path d="M480.122 199.078C480.122 199.078 473.928 199.787 471.051 207.461C468.173 215.135 469.452 220.251 467.96 224.088C466.468 227.925 464.975 231.655 467.32 236.771C469.665 241.887 475.421 257.342 490.769 252.013C506.117 246.684 508.248 235.492 508.248 235.492C508.248 235.492 511.446 236.239 512.405 231.549C513.364 226.859 511.765 224.088 508.568 223.662C505.37 223.235 503.559 225.918 503.559 225.918C503.559 225.918 502.173 227.925 502.066 230.696C501.96 233.467 500.787 227.179 499.721 225.047C498.656 222.915 482.668 223.768 482.775 214.708C482.881 205.649 482.467 201.103 480.122 199.078Z" stroke="#00030D" stroke-width="0.734378" stroke-miterlimit="10" stroke-linecap="round"/>
<path d="M478.23 221.73C478.23 221.73 476.182 229.696 474.715 232.073C473.248 234.451 478.969 234.577 478.969 234.577M475.989 239.982C475.989 239.982 479.068 241.943 486.25 239.346" stroke="#00030D" stroke-width="0.734378" stroke-miterlimit="10" stroke-linecap="round"/>
<path d="M471.965 223.929C471.87 224.664 471.427 225.212 470.977 225.153C470.527 225.095 470.24 224.452 470.336 223.717C470.431 222.982 470.874 222.434 471.324 222.493C471.774 222.551 472.061 223.194 471.965 223.929ZM488.648 225.325C488.569 226.061 488.131 226.618 487.67 226.568C487.21 226.519 486.901 225.881 486.98 225.144C487.06 224.408 487.498 223.851 487.958 223.901C488.419 223.95 488.728 224.588 488.648 225.325Z" fill="#00030D"/>
<path d="M469.201 217.986C469.201 217.986 470.869 215.686 473.603 217.392M513.098 259.334C513.098 259.334 513.098 259.378 513.098 259.461C513.104 261.126 513.154 278.523 513.098 281.098C513.098 281.098 509.719 280.73 504.595 282.056C504.595 282.056 506.51 285.94 507.186 288.305C507.186 288.305 495.731 296.841 488.06 303.913C488.038 303.932 488.017 303.952 487.997 303.971M541.112 343.358C529.457 343.106 495.032 338.406 495.032 338.406C494.734 337.92 494.511 337.317 494.353 336.64C493.607 333.488 494.196 328.674 494.646 325.935C494.854 324.661 495.032 323.836 495.032 323.836C504.359 322.644 543.097 324.469 543.097 324.469C540.31 319.393 529.667 290.008 529.667 290.008" stroke="#00030D" stroke-width="0.734378" stroke-miterlimit="10" stroke-linecap="round"/>
<path d="M494.354 336.642C489.597 337.852 483.469 337.855 483.469 337.855C483.469 337.855 483.578 338.526 478.257 340.299C474.284 341.624 467.459 340.717 463.943 338.81C461.355 337.406 462.823 334.393 463.663 333.485C466.991 329.881 475.249 321.801 481.189 323.285C486.176 324.532 491.543 325.453 494.646 325.938C494.197 328.676 493.608 333.49 494.354 336.642Z" fill="#EBF0FF"/>
<path d="M494.354 336.642C489.597 337.852 483.469 337.855 483.469 337.855C483.469 337.855 483.578 338.526 478.257 340.299C474.284 341.624 467.459 340.717 463.943 338.81C461.355 337.406 462.823 334.393 463.663 333.485C466.991 329.881 475.249 321.801 481.189 323.285C486.176 324.532 491.543 325.453 494.646 325.938C494.197 328.676 493.608 333.49 494.354 336.642Z" stroke="#00030D" stroke-width="0.734378" stroke-miterlimit="10" stroke-linecap="round"/>
<path d="M473.84 326.07L483.214 337.541C483.214 337.541 482.603 341.605 473.911 341.522C465.399 341.44 456.103 339.373 473.84 326.07Z" fill="#D9B55F"/>
<path d="M382.364 161.246C382.364 161.246 385.111 159.464 386.756 162.267" stroke="#00030D" stroke-width="0.734378" stroke-miterlimit="10" stroke-linecap="round" stroke-linejoin="round"/>
<path d="M334.812 283.473C334.812 283.473 332.618 315.461 333.652 323.895" stroke="#EBF0FF" stroke-width="0.550783" stroke-miterlimit="10"/>
<path d="M352.506 284.383C352.506 284.383 366.78 286.635 375.564 284.608L352.506 284.383Z" fill="#01185C"/>
<path d="M352.506 284.383C352.506 284.383 366.78 286.635 375.564 284.608" stroke="#00030D" stroke-width="0.734378" stroke-miterlimit="10"/>
<path d="M195.846 130.371C197.807 131.976 201.071 136.971 200.047 137.839C198.428 139.212 197.043 141.912 195.754 145.178C192.983 152.201 196.909 162.472 196.2 163.722C195.49 164.973 194.527 156.52 192.637 155.531C190.746 154.541 185.914 153.982 183.456 161.373C180.999 168.764 170.691 181.334 158.225 183.553C158.225 183.553 138.896 165.31 147.568 144.774C155.665 125.602 181.268 118.442 195.846 130.371Z" fill="#01185C"/>
<path d="M158.204 182.008C158.204 182.008 153.229 186.662 147.919 198.939C142.608 211.216 141.906 235.398 143.421 242.418C143.421 242.418 152.408 222.642 155.115 211.823C157.822 201.003 158.204 182.008 158.204 182.008Z" fill="#01185C"/>
<path d="M494.071 338.852H455.594V342.871H494.071V338.852Z" fill="#EBF0FF"/>
<path d="M494.071 338.852H455.594V342.871H494.071V338.852Z" stroke="#00030D" stroke-width="0.734378" stroke-miterlimit="10" stroke-linecap="round"/>
<path d="M469.157 342.867L449.491 290.432L382.073 290.168L379.534 292.713L466.838 342.867H469.157Z" fill="#EBF0FF"/>
<path d="M469.157 342.867L449.491 290.432L382.073 290.168L379.534 292.713L466.838 342.867H469.157Z" stroke="#00030D" stroke-width="0.734378" stroke-miterlimit="10" stroke-linecap="round"/>
<path d="M379.534 292.707H447.935L466.838 342.861H398.438L379.534 292.707Z" fill="#EBF0FF"/>
<path d="M379.534 292.707H447.935L466.838 342.861H398.438L379.534 292.707Z" stroke="#00030D" stroke-width="0.734378" stroke-miterlimit="10" stroke-linecap="round"/>
<path d="M421.229 320.628C423.146 320.628 424.699 319.731 424.699 318.624C424.699 317.518 423.146 316.621 421.229 316.621C419.313 316.621 417.76 317.518 417.76 318.624C417.76 319.731 419.313 320.628 421.229 320.628Z" fill="#01185C"/>
<path d="M465.095 290.012C465.095 290.012 462.579 319.697 463.735 328.697L465.095 290.012Z" fill="#0235CD"/>
<path d="M465.095 290.012C465.095 290.012 462.579 319.697 463.735 328.697" stroke="#00030D" stroke-width="0.734378" stroke-miterlimit="10" stroke-linecap="round"/>
<path d="M543.097 324.469C543.097 324.469 552.345 324.383 555.724 328.693L543.097 324.469Z" fill="#0235CD"/>
<path d="M543.097 324.469C543.097 324.469 552.345 324.383 555.724 328.693" stroke="#00030D" stroke-width="0.734378" stroke-miterlimit="10" stroke-linecap="round"/>
<path d="M476.721 200.89C476.721 200.89 479.75 200.13 480.173 203.002C480.595 205.873 477.385 217.998 484.396 221.733C491.406 225.468 498.733 222.447 500.56 232.995C502.386 243.543 493.715 250.413 493.715 250.413C493.715 250.413 504.624 246.668 508.045 235.139C508.045 235.139 511.508 236.533 512.268 230.156C513.028 223.779 508.341 223.307 505.765 224.493C503.189 225.68 502.682 229.185 502.302 231.508C502.302 231.508 501.943 232.289 501.373 231.233C500.803 230.177 499.895 225.447 499.24 225.067C498.586 224.687 498.374 224.603 495.228 223.906C492.082 223.209 485.05 222.027 482.875 217.529C482.875 217.529 482.115 216.262 482.474 212.25C482.833 208.238 482.094 201.08 480.004 199.391C480.004 199.391 477.027 200.404 476.721 200.89Z" fill="#D9B55F"/>
<path d="M349.888 191.191L341.678 209.212L342.893 213.743L339.91 216.837L341.02 233.507" stroke="#EBF0FF" stroke-width="0.550783" stroke-miterlimit="10"/>
<path d="M385.784 202.559C385.784 202.559 390.11 200.67 393.122 203.357" stroke="#EBF0FF" stroke-width="0.550783" stroke-miterlimit="10"/>
<path d="M368.453 134.194C368.453 134.194 364.959 124.258 343.362 135.078M370.137 129.268C370.137 129.268 369.211 125.521 362.264 125.648M480.827 196.387C480.827 196.387 485.661 193.019 492.534 205.424C499.406 217.829 500.36 220.579 500.36 220.579M487.169 193.019C487.169 193.019 497.441 194.478 501.707 202.505M504.065 206.659C504.065 206.659 505.215 208.357 506.31 212.608" stroke="#EBF0FF" stroke-width="0.550783" stroke-miterlimit="10" stroke-linecap="round"/>
<path d="M505.861 227.652C505.861 227.652 508.003 224.443 510.296 226.1" stroke="#00030D" stroke-width="0.734378" stroke-miterlimit="10" stroke-linecap="round"/>
<path d="M192.988 204.918C192.988 204.918 186.673 204.413 181.79 210.054L192.988 204.918ZM179.963 212.627C179.963 212.627 177.912 214.601 177.496 217.547L179.963 212.627Z" fill="#EBF0FF"/>
<path d="M192.988 204.918C192.988 204.918 186.673 204.413 181.79 210.054M179.963 212.627C179.963 212.627 177.912 214.601 177.496 217.547" stroke="#00030D" stroke-width="0.734378" stroke-miterlimit="10" stroke-linecap="round"/>
<path d="M119.189 341.991C119.189 341.991 121.589 352.347 128.788 359.419M131.061 361.692C131.061 361.692 133.376 364.639 136.239 365.734M540.886 266.102C540.886 266.102 536.255 265.709 533.476 270.424M531.728 273.507C531.728 273.507 529.996 276.314 529.491 281.654M96.543 416.588C96.543 416.588 137.433 445.552 258.668 436.122M268.606 435.196C268.606 435.196 298.401 433.933 310.272 431.912" stroke="#00030D" stroke-width="0.734378" stroke-miterlimit="10" stroke-linecap="round"/>
<path d="M405.112 296.977L397.281 310.184" stroke="#00030D" stroke-width="0.734378" stroke-miterlimit="10" stroke-linecap="round"/>
<path d="M407.041 301.32L396.054 321.139" stroke="#00030D" stroke-width="0.734378" stroke-miterlimit="10" stroke-linecap="round"/>
</svg>
