<svg width="24" height="24" viewBox="0 0 24 24" fill="none" xmlns="http://www.w3.org/2000/svg">
<circle cx="12" cy="12" r="12" fill="#80171A"/>
<g clip-path="url(#clip0_19674_511077)">
<path d="M17.6689 10.8023C17.3043 10.532 16.8564 10.3336 16.3835 10.2266C16.3058 10.2091 16.2347 10.1699 16.1785 10.1135C16.1223 10.0572 16.0833 9.98603 16.066 9.90833C15.8629 9.00339 15.4257 8.22734 14.7829 7.63932C14.0358 6.95469 13.0478 6.57812 12.0007 6.57812C11.0801 6.57812 10.2298 6.86667 9.5431 7.41276C9.07769 7.78345 8.70306 8.25552 8.44779 8.79297C8.42011 8.85177 8.37906 8.90329 8.32792 8.9434C8.27678 8.98351 8.21696 9.0111 8.15326 9.02396C7.45664 9.16458 6.82773 9.46328 6.34753 9.88646C5.68451 10.4724 5.33398 11.2513 5.33398 12.1406C5.33398 13.0396 5.71133 13.8594 6.39622 14.4521C7.05039 15.0169 7.93112 15.3281 8.87565 15.3281H11.584V11.3341L10.6285 12.2896C10.5886 12.3295 10.5411 12.3608 10.4887 12.3818C10.4363 12.4027 10.3802 12.4129 10.3238 12.4115C10.2674 12.4101 10.2119 12.3973 10.1606 12.3739C10.1093 12.3504 10.0633 12.3168 10.0254 12.275C9.87435 12.1091 9.88893 11.8505 10.0475 11.6919L11.7061 10.0336C11.7843 9.95551 11.8902 9.91165 12.0007 9.91165C12.1111 9.91165 12.217 9.95551 12.2952 10.0336L13.9538 11.6914C14.1173 11.8552 14.1267 12.1237 13.9639 12.288C13.9253 12.327 13.8794 12.358 13.8288 12.3792C13.7781 12.4004 13.7238 12.4114 13.6689 12.4115C13.6141 12.4117 13.5597 12.401 13.509 12.38C13.4582 12.3591 13.4121 12.3284 13.3733 12.2896L12.4173 11.3341V15.3281H15.6465C16.4626 15.3281 17.2066 15.099 17.7415 14.6831C18.3473 14.2117 18.6673 13.5372 18.6673 12.7344C18.6673 11.9547 18.322 11.2862 17.6689 10.8023ZM11.584 17.0057C11.584 17.1162 11.6279 17.2222 11.706 17.3004C11.7842 17.3785 11.8901 17.4224 12.0007 17.4224C12.1112 17.4224 12.2171 17.3785 12.2953 17.3004C12.3734 17.2222 12.4173 17.1162 12.4173 17.0057V15.3281H11.584V17.0057Z" fill="white"/>
</g>
<defs>
<clipPath id="clip0_19674_511077">
<rect width="13.3333" height="13.3333" fill="white" transform="translate(5.33398 5.33398)"/>
</clipPath>
</defs>
</svg>
