<svg width="32" height="32" viewBox="0 0 32 32" fill="none" xmlns="http://www.w3.org/2000/svg">
<circle cx="16" cy="16" r="15.5" fill="#EBF0FF" stroke="#011142"/>
<path d="M16.0409 22.228C15.3695 22.228 14.7647 22.1583 14.2264 22.019C13.688 21.886 13.2194 21.715 12.8204 21.506C12.4214 21.2907 12.0952 21.0753 11.8419 20.86L13.1624 18.9315C13.3904 19.1025 13.6437 19.264 13.9224 19.416C14.2074 19.5617 14.5209 19.682 14.8629 19.777C15.2112 19.872 15.6007 19.9195 16.0314 19.9195C16.5444 19.9195 16.994 19.8245 17.3804 19.6345C17.773 19.4445 18.0802 19.1753 18.3019 18.827C18.5235 18.4787 18.6344 18.067 18.6344 17.592C18.6344 17.1803 18.5552 16.8193 18.3969 16.509C18.2449 16.1923 18.0232 15.9453 17.7319 15.768C17.4469 15.5843 17.0954 15.4925 16.6774 15.4925C16.1517 15.4925 15.7115 15.5875 15.3569 15.7775C15.0022 15.9612 14.695 16.2018 14.4354 16.4995L12.2504 15.445L12.7064 8.7H20.2494V11.0465H14.9484L14.7109 13.6685C15.0149 13.5165 15.3347 13.3962 15.6704 13.3075C16.006 13.2125 16.3639 13.165 16.7439 13.165C17.6749 13.165 18.4634 13.3613 19.1094 13.754C19.7617 14.1467 20.2557 14.6755 20.5914 15.3405C20.9334 16.0055 21.1044 16.7465 21.1044 17.5635C21.1044 18.4882 20.8859 19.302 20.4489 20.005C20.0182 20.7017 19.4229 21.2463 18.6629 21.639C17.9029 22.0317 17.0289 22.228 16.0409 22.228Z" fill="#011142"/>
</svg>
