<svg width="48" height="48" viewBox="0 0 48 48" fill="none" xmlns="http://www.w3.org/2000/svg">
<circle cx="24" cy="24" r="20" fill="#3768FD"/>
<path d="M24 4C12.98 4 4 12.98 4 24C4 35.02 12.98 44 24 44C35.02 44 44 35.02 44 24C44 12.98 35.02 4 24 4ZM32 25.5H25.5V32C25.5 32.82 24.82 33.5 24 33.5C23.18 33.5 22.5 32.82 22.5 32V25.5H16C15.18 25.5 14.5 24.82 14.5 24C14.5 23.18 15.18 22.5 16 22.5H22.5V16C22.5 15.18 23.18 14.5 24 14.5C24.82 14.5 25.5 15.18 25.5 16V22.5H32C32.82 22.5 33.5 23.18 33.5 24C33.5 24.82 32.82 25.5 32 25.5Z" fill="#C3D2FE"/>
</svg>
