<svg width="20" height="20" viewBox="0 0 20 20" fill="none" xmlns="http://www.w3.org/2000/svg">
<path d="M8.33333 18.3333H11.6667C15.8333 18.3333 17.5 16.6667 17.5 12.5V7.49999C17.5 3.33332 15.8333 1.66666 11.6667 1.66666H8.33333C4.16667 1.66666 2.5 3.33332 2.5 7.49999V12.5C2.5 16.6667 4.16667 18.3333 8.33333 18.3333Z" stroke="#0C0C0C" stroke-width="1.25" stroke-linecap="round" stroke-linejoin="round"/>
<path d="M13.75 6.31668V7.15001C13.75 7.83335 13.1917 8.40001 12.5 8.40001H7.5C6.81667 8.40001 6.25 7.84168 6.25 7.15001V6.31668C6.25 5.63335 6.80833 5.06668 7.5 5.06668H12.5C13.1917 5.06668 13.75 5.62501 13.75 6.31668Z" stroke="#0C0C0C" stroke-width="1.25" stroke-linecap="round" stroke-linejoin="round"/>
<path d="M6.7801 11.6667H6.78973" stroke="#0C0C0C" stroke-width="1.25" stroke-linecap="round" stroke-linejoin="round"/>
<path d="M9.99604 11.6667H10.0057" stroke="#0C0C0C" stroke-width="1.25" stroke-linecap="round" stroke-linejoin="round"/>
<path d="M13.2119 11.6667H13.2216" stroke="#0C0C0C" stroke-width="1.25" stroke-linecap="round" stroke-linejoin="round"/>
<path d="M6.7801 14.5833H6.78973" stroke="#0C0C0C" stroke-width="1.25" stroke-linecap="round" stroke-linejoin="round"/>
<path d="M9.99604 14.5833H10.0057" stroke="#292D32" stroke-width="1.25" stroke-linecap="round" stroke-linejoin="round"/>
<path d="M13.2119 14.5833H13.2216" stroke="#292D32" stroke-width="2" stroke-linecap="round" stroke-linejoin="round"/>
</svg>
