<svg width="16" height="16" viewBox="0 0 16 16" fill="none" xmlns="http://www.w3.org/2000/svg">
<path d="M14.6468 12.2197C14.6468 12.4597 14.5935 12.7063 14.4802 12.9463C14.3668 13.1863 14.2202 13.413 14.0268 13.6263C13.7002 13.9863 13.3402 14.2463 12.9335 14.413C12.5335 14.5797 12.1002 14.6663 11.6335 14.6663C10.9535 14.6663 10.2268 14.5063 9.46016 14.1797C8.6935 13.853 7.92683 13.413 7.16683 12.8597C6.40016 12.2997 5.6735 11.6797 4.98016 10.993C4.2935 10.2997 3.6735 9.57301 3.12016 8.81301C2.5735 8.05301 2.1335 7.29301 1.8135 6.53967C1.4935 5.77967 1.3335 5.05301 1.3335 4.35967C1.3335 3.90634 1.4135 3.47301 1.5735 3.07301C1.7335 2.66634 1.98683 2.29301 2.34016 1.95967C2.76683 1.53967 3.2335 1.33301 3.72683 1.33301C3.9135 1.33301 4.10016 1.37301 4.26683 1.45301C4.44016 1.53301 4.5935 1.65301 4.7135 1.82634L6.26016 4.00634C6.38016 4.17301 6.46683 4.32634 6.52683 4.47301C6.58683 4.61301 6.62016 4.75301 6.62016 4.87967C6.62016 5.03967 6.5735 5.19967 6.48016 5.35301C6.3935 5.50634 6.26683 5.66634 6.10683 5.82634L5.60016 6.35301C5.52683 6.42634 5.4935 6.51301 5.4935 6.61967C5.4935 6.67301 5.50016 6.71967 5.5135 6.77301C5.5335 6.82634 5.5535 6.86634 5.56683 6.90634C5.68683 7.12634 5.8935 7.41301 6.18683 7.75967C6.48683 8.10634 6.80683 8.45967 7.1535 8.81301C7.5135 9.16634 7.86016 9.49301 8.2135 9.79301C8.56016 10.0863 8.84683 10.2863 9.0735 10.4063C9.10683 10.4197 9.14683 10.4397 9.1935 10.4597C9.24683 10.4797 9.30016 10.4863 9.36016 10.4863C9.4735 10.4863 9.56016 10.4463 9.6335 10.373L10.1402 9.87301C10.3068 9.70634 10.4668 9.57967 10.6202 9.49967C10.7735 9.40634 10.9268 9.35967 11.0935 9.35967C11.2202 9.35967 11.3535 9.38634 11.5002 9.44634C11.6468 9.50634 11.8002 9.59301 11.9668 9.70634L14.1735 11.273C14.3468 11.393 14.4668 11.533 14.5402 11.6997C14.6068 11.8663 14.6468 12.033 14.6468 12.2197Z" stroke="#64748B" stroke-miterlimit="10"/>
</svg>
