<svg width="14" height="14" viewBox="0 0 14 14" fill="none" xmlns="http://www.w3.org/2000/svg">
<path d="M3.94332 12.8333H10.0567C11.6667 12.8333 12.3083 11.8475 12.3842 10.6458L12.6875 5.82749C12.7692 4.56749 11.7658 3.49999 10.5 3.49999C10.1442 3.49999 9.81749 3.29582 9.65415 2.98082L9.23415 2.13499C8.96582 1.60416 8.26582 1.16666 7.67082 1.16666H6.33499C5.73415 1.16666 5.03415 1.60416 4.76582 2.13499L4.34582 2.98082C4.18249 3.29582 3.85582 3.49999 3.49999 3.49999C2.23415 3.49999 1.23082 4.56749 1.31249 5.82749L1.61582 10.6458C1.68582 11.8475 2.33332 12.8333 3.94332 12.8333Z" stroke="#EBF0FF" stroke-linecap="round" stroke-linejoin="round"/>
<path d="M6.125 4.66666H7.875" stroke="#EBF0FF" stroke-linecap="round" stroke-linejoin="round"/>
<path d="M6.99999 10.5C8.04416 10.5 8.89582 9.64834 8.89582 8.60418C8.89582 7.56001 8.04416 6.70834 6.99999 6.70834C5.95582 6.70834 5.10416 7.56001 5.10416 8.60418C5.10416 9.64834 5.95582 10.5 6.99999 10.5Z" stroke="#EBF0FF" stroke-linecap="round" stroke-linejoin="round"/>
</svg>
