<svg width="20" height="20" viewBox="0 0 20 20" fill="none" xmlns="http://www.w3.org/2000/svg">
<path d="M10.8401 19.4613C13.1601 19.6013 15.0801 17.7613 15.0801 15.4813C15.0801 13.9013 14.1601 12.5413 12.8201 11.9013C12.7601 11.8813 12.7001 11.9213 12.7001 11.9813V12.5613C12.7001 12.6013 12.7201 12.6213 12.7401 12.6413C13.8201 13.2613 14.5001 14.4613 14.3801 15.8013C14.2401 17.4013 12.9201 18.6813 11.3001 18.7813C9.40008 18.9013 7.80008 17.3813 7.80008 15.5013C7.80008 14.2813 8.46008 13.2213 9.46008 12.6413C9.48008 12.6213 9.50008 12.6013 9.50008 12.5613V11.9813C9.50008 11.9213 9.44008 11.8813 9.38008 11.9013C8.02008 12.5613 7.08008 13.9813 7.12008 15.6013C7.18008 17.6413 8.82008 19.3213 10.8401 19.4613Z" fill="#CC2529"/>
<path d="M9.52047 13.9389C9.52047 13.8589 9.42047 13.8189 9.36047 13.8789C8.96047 14.2989 8.72047 14.8589 8.72047 15.4989C8.72047 16.8189 9.78047 17.8789 11.1005 17.8789C12.4205 17.8789 13.4805 16.7989 13.4805 15.4789C13.4805 14.8589 13.2405 14.2989 12.8405 13.8589C12.7805 13.7989 12.6805 13.8389 12.6805 13.9189V14.8989V14.9189C12.7405 15.0989 12.7805 15.2789 12.7805 15.4589C12.7805 16.4189 11.9605 17.1989 10.9805 17.1389C10.0605 17.0789 9.36047 16.2589 9.40047 15.3589C9.40047 15.1989 9.44047 15.0589 9.48047 14.9189V14.8989V13.9389H9.52047Z" fill="#CC2529"/>
<path d="M4.91988 9.89969V6.57969C4.91988 6.05969 5.05988 5.55969 5.31988 5.11969L6.23988 3.09969C6.31988 2.89969 6.37988 2.69969 6.37988 2.47969V0.939687C6.37988 0.699687 6.55988 0.519688 6.79988 0.519688H11.3999C11.6399 0.519688 11.8199 0.699687 11.8199 0.939687V2.63969C11.8199 2.99969 11.9599 3.35969 12.1999 3.61969L13.4599 5.01969C13.7199 5.23969 13.8799 5.55969 13.8799 5.89969V9.33969C13.8799 9.75969 13.6799 10.1397 13.3399 10.3997L12.5999 10.9397C12.5199 10.9997 12.4199 10.9397 12.4199 10.8597L12.0399 7.71969H11.9599V11.2797V14.7997C11.9599 14.8197 11.9599 14.8397 11.9599 14.8597C11.9399 15.0797 11.8599 15.2797 11.6999 15.4197C11.5399 15.5797 11.3199 15.6797 11.0799 15.6797C10.5999 15.6797 10.1999 15.2797 10.1999 14.7997V11.0797C10.1999 11.3197 10.0999 11.5397 9.93988 11.6997C9.77988 11.8597 9.55988 11.9597 9.31988 11.9597C8.83988 11.9597 8.43988 11.5397 8.43988 11.0597V10.6797C8.43988 10.9197 8.33988 11.1397 8.17988 11.2997C8.01988 11.4597 7.79988 11.5597 7.55988 11.5597C7.07988 11.5597 6.67988 11.1597 6.67988 10.6797V9.91969C6.67988 10.4197 6.25988 10.8197 5.75988 10.7997C5.27988 10.7797 4.91988 10.3597 4.91988 9.89969Z" stroke="#CC2529" stroke-width="0.6"/>
</svg>
