<svg width="21" height="20" viewBox="0 0 21 20" fill="none" xmlns="http://www.w3.org/2000/svg">
<path d="M7.45573 15.8333H7.03906C3.70573 15.8333 2.03906 15 2.03906 10.8333V6.66663C2.03906 3.33329 3.70573 1.66663 7.03906 1.66663H13.7057C17.0391 1.66663 18.7057 3.33329 18.7057 6.66663V10.8333C18.7057 14.1666 17.0391 15.8333 13.7057 15.8333H13.2891C13.0307 15.8333 12.7807 15.9583 12.6224 16.1666L11.3724 17.8333C10.8224 18.5666 9.9224 18.5666 9.3724 17.8333L8.1224 16.1666C7.98906 15.9833 7.68073 15.8333 7.45573 15.8333Z" stroke="#0235CD" stroke-miterlimit="10" stroke-linecap="round" stroke-linejoin="round"/>
<path d="M6.21094 6.66663H14.5443" stroke="#0235CD" stroke-linecap="round" stroke-linejoin="round"/>
<path d="M6.21094 10.8334H11.2109" stroke="#0235CD" stroke-linecap="round" stroke-linejoin="round"/>
</svg>
