    <svg width="48" height="48" viewBox="0 0 48 48" fill="none" xmlns="http://www.w3.org/2000/svg">
    <path d="M17.3438 28.6597C17.3438 31.2397 19.3238 33.3197 21.7838 33.3197H26.8037C28.9437 33.3197 30.6838 31.4997 30.6838 29.2597C30.6838 26.8197 29.6238 25.9597 28.0438 25.3997L19.9837 22.5997C18.4037 22.0397 17.3438 21.1797 17.3438 18.7397C17.3438 16.4997 19.0837 14.6797 21.2237 14.6797H26.2437C28.7037 14.6797 30.6838 16.7597 30.6838 19.3397" stroke="#011B69" stroke-width="1.5" stroke-linecap="round" stroke-linejoin="round"/>
    <path d="M24 12V36" stroke="#011B69" stroke-width="1.5" stroke-linecap="round" stroke-linejoin="round"/>
    <path d="M24 44C35.0457 44 44 35.0457 44 24C44 12.9543 35.0457 4 24 4C12.9543 4 4 12.9543 4 24C4 35.0457 12.9543 44 24 44Z" stroke="#011B69" stroke-width="1.5" stroke-linecap="round" stroke-linejoin="round"/>
    </svg>
