<svg width="17" height="16" viewBox="0 0 17 16" fill="none" xmlns="http://www.w3.org/2000/svg">
<path d="M14.6665 3.98668C12.4465 3.76668 10.2132 3.65335 7.9865 3.65335C6.6665 3.65335 5.3465 3.72002 4.0265 3.85335L2.6665 3.98668" stroke="#0C0C0C" stroke-linecap="round" stroke-linejoin="round"/>
<path d="M6.33325 3.31334L6.47992 2.44001C6.58659 1.80668 6.66658 1.33334 7.79325 1.33334H9.53992C10.6666 1.33334 10.7533 1.83334 10.8533 2.44668L10.9999 3.31334" stroke="#0C0C0C" stroke-linecap="round" stroke-linejoin="round"/>
<path d="M13.2332 6.09335L12.7999 12.8067C12.7265 13.8534 12.6665 14.6667 10.8065 14.6667H6.52652C4.66652 14.6667 4.60652 13.8534 4.53319 12.8067L4.09985 6.09335" stroke="#0C0C0C" stroke-linecap="round" stroke-linejoin="round"/>
<path d="M7.55322 11H9.77322" stroke="#0C0C0C" stroke-linecap="round" stroke-linejoin="round"/>
<path d="M6.99976 8.33334H10.3331" stroke="#0C0C0C" stroke-linecap="round" stroke-linejoin="round"/>
</svg>
