<svg width="32" height="32" viewBox="0 0 32 32" fill="none" xmlns="http://www.w3.org/2000/svg">
<circle cx="16.0013" cy="15.9974" r="13.3333" fill="#A0ABBB"/>
<path d="M16.0013 2.66406C8.65464 2.66406 2.66797 8.65073 2.66797 15.9974C2.66797 23.3441 8.65464 29.3307 16.0013 29.3307C23.348 29.3307 29.3346 23.3441 29.3346 15.9974C29.3346 8.65073 23.348 2.66406 16.0013 2.66406ZM22.3746 12.9307L14.8146 20.4907C14.628 20.6774 14.3746 20.7841 14.108 20.7841C13.8413 20.7841 13.588 20.6774 13.4013 20.4907L9.62797 16.7174C9.2413 16.3307 9.2413 15.6907 9.62797 15.3041C10.0146 14.9174 10.6546 14.9174 11.0413 15.3041L14.108 18.3707L20.9613 11.5174C21.348 11.1307 21.988 11.1307 22.3746 11.5174C22.7613 11.9041 22.7613 12.5307 22.3746 12.9307Z" fill="#E7EAEE"/>
</svg>
