<svg width="32" height="32" viewBox="0 0 32 32" fill="none" xmlns="http://www.w3.org/2000/svg">
<circle cx="16.0013" cy="15.9974" r="13.3333" fill="#E7EAEE"/>
<path d="M16.0013 2.66406C8.65464 2.66406 2.66797 8.65073 2.66797 15.9974C2.66797 23.3441 8.65464 29.3307 16.0013 29.3307C23.348 29.3307 29.3346 23.3441 29.3346 15.9974C29.3346 8.65073 23.348 2.66406 16.0013 2.66406ZM20.4813 19.0641C20.868 19.4507 20.868 20.0907 20.4813 20.4774C20.2813 20.6774 20.028 20.7707 19.7746 20.7707C19.5213 20.7707 19.268 20.6774 19.068 20.4774L16.0013 17.4107L12.9346 20.4774C12.7346 20.6774 12.4813 20.7707 12.228 20.7707C11.9746 20.7707 11.7213 20.6774 11.5213 20.4774C11.1346 20.0907 11.1346 19.4507 11.5213 19.0641L14.588 15.9974L11.5213 12.9307C11.1346 12.5441 11.1346 11.9041 11.5213 11.5174C11.908 11.1307 12.548 11.1307 12.9346 11.5174L16.0013 14.5841L19.068 11.5174C19.4546 11.1307 20.0946 11.1307 20.4813 11.5174C20.868 11.9041 20.868 12.5441 20.4813 12.9307L17.4146 15.9974L20.4813 19.0641Z" fill="#DADADA"/>
</svg>
