<svg width="20" height="20" viewBox="0 0 20 20" fill="none" xmlns="http://www.w3.org/2000/svg">
<path d="M13.1667 1.84207C12.8251 1.5004 12.2334 1.73373 12.2334 2.20873V5.11707C12.2334 6.33373 13.2667 7.34207 14.5251 7.34207C15.3167 7.3504 16.4167 7.3504 17.3584 7.3504C17.8334 7.3504 18.0834 6.79207 17.7501 6.45873C16.5501 5.2504 14.4001 3.0754 13.1667 1.84207Z" fill="url(#paint0_linear_12801_229877)"/>
<path d="M17.0835 8.49199H14.6752C12.7002 8.49199 11.0918 6.88366 11.0918 4.90866V2.50033C11.0918 2.04199 10.7168 1.66699 10.2585 1.66699H6.72516C4.1585 1.66699 2.0835 3.33366 2.0835 6.30866V13.692C2.0835 16.667 4.1585 18.3337 6.72516 18.3337H13.2752C15.8418 18.3337 17.9168 16.667 17.9168 13.692V9.32533C17.9168 8.86699 17.5418 8.49199 17.0835 8.49199ZM9.5835 14.792H6.25016C5.9085 14.792 5.62516 14.5087 5.62516 14.167C5.62516 13.8253 5.9085 13.542 6.25016 13.542H9.5835C9.92516 13.542 10.2085 13.8253 10.2085 14.167C10.2085 14.5087 9.92516 14.792 9.5835 14.792ZM11.2502 11.4587H6.25016C5.9085 11.4587 5.62516 11.1753 5.62516 10.8337C5.62516 10.492 5.9085 10.2087 6.25016 10.2087H11.2502C11.5918 10.2087 11.8752 10.492 11.8752 10.8337C11.8752 11.1753 11.5918 11.4587 11.2502 11.4587Z" fill="url(#paint1_linear_12801_229877)"/>
<defs>
<linearGradient id="paint0_linear_12801_229877" x1="12.2334" y1="1.67969" x2="17.9041" y2="7.34891" gradientUnits="userSpaceOnUse">
<stop stop-color="#FDD819"/>
<stop offset="1" stop-color="#E80505"/>
</linearGradient>
<linearGradient id="paint1_linear_12801_229877" x1="2.0835" y1="1.66699" x2="18.7283" y2="17.4795" gradientUnits="userSpaceOnUse">
<stop stop-color="#FDD819"/>
<stop offset="1" stop-color="#E80505"/>
</linearGradient>
</defs>
</svg>
