<svg width="40" height="40" viewBox="0 0 40 40" fill="none" xmlns="http://www.w3.org/2000/svg">
<circle cx="20" cy="20" r="20" fill="#C3D2FE"/>
<circle cx="20" cy="20" r="16" fill="#0235CD"/>
<path d="M23.1498 11.667H16.8498C13.6998 11.667 12.9165 12.5087 12.9165 15.867V25.2503C12.9165 27.467 14.1332 27.992 15.6082 26.4087L15.6165 26.4003C16.2998 25.6753 17.3415 25.7337 17.9332 26.5253L18.7748 27.6503C19.4498 28.542 20.5415 28.542 21.2165 27.6503L22.0582 26.5253C22.6582 25.7253 23.6998 25.667 24.3832 26.4003C25.8665 27.9837 27.0748 27.4587 27.0748 25.242V15.867C27.0832 12.5087 26.2998 11.667 23.1498 11.667ZM16.4832 20.0003C16.0248 20.0003 15.6498 19.6253 15.6498 19.167C15.6498 18.7087 16.0248 18.3337 16.4832 18.3337C16.9415 18.3337 17.3165 18.7087 17.3165 19.167C17.3165 19.6253 16.9415 20.0003 16.4832 20.0003ZM16.4832 16.667C16.0248 16.667 15.6498 16.292 15.6498 15.8337C15.6498 15.3753 16.0248 15.0003 16.4832 15.0003C16.9415 15.0003 17.3165 15.3753 17.3165 15.8337C17.3165 16.292 16.9415 16.667 16.4832 16.667ZM23.5248 19.792H18.9415C18.5998 19.792 18.3165 19.5087 18.3165 19.167C18.3165 18.8253 18.5998 18.542 18.9415 18.542H23.5248C23.8665 18.542 24.1498 18.8253 24.1498 19.167C24.1498 19.5087 23.8665 19.792 23.5248 19.792ZM23.5248 16.4587H18.9415C18.5998 16.4587 18.3165 16.1753 18.3165 15.8337C18.3165 15.492 18.5998 15.2087 18.9415 15.2087H23.5248C23.8665 15.2087 24.1498 15.492 24.1498 15.8337C24.1498 16.1753 23.8665 16.4587 23.5248 16.4587Z" fill="#EBF0FF"/>
</svg>
