<svg width="16" height="16" viewBox="0 0 16 16" fill="none" xmlns="http://www.w3.org/2000/svg">
<path d="M13.667 6.79203H11.7403C10.1603 6.79203 8.87366 5.50536 8.87366 3.92536V1.9987C8.87366 1.63203 8.57366 1.33203 8.20699 1.33203H5.38033C3.32699 1.33203 1.66699 2.66536 1.66699 5.04536V10.952C1.66699 13.332 3.32699 14.6654 5.38033 14.6654H10.6203C12.6737 14.6654 14.3337 13.332 14.3337 10.952V7.4587C14.3337 7.09203 14.0337 6.79203 13.667 6.79203Z" fill="#64748B"/>
<path d="M10.533 1.4717C10.2597 1.19837 9.78638 1.38503 9.78638 1.76503V4.0917C9.78638 5.06503 10.613 5.8717 11.6197 5.8717C12.253 5.87837 13.133 5.87837 13.8864 5.87837C14.2664 5.87837 14.4664 5.4317 14.1997 5.16503C13.2397 4.19837 11.5197 2.45837 10.533 1.4717Z" fill="#64748B"/>
</svg>
