<svg width="17" height="17" viewBox="0 0 17 17" fill="none" xmlns="http://www.w3.org/2000/svg">
<path d="M8.33333 0C3.74167 0 0 3.74167 0 8.33333C0 12.925 3.74167 16.6667 8.33333 16.6667C12.925 16.6667 16.6667 12.925 16.6667 8.33333C16.6667 3.74167 12.925 0 8.33333 0ZM12.3167 6.41667L7.59167 11.1417C7.475 11.2583 7.31667 11.325 7.15 11.325C6.98333 11.325 6.825 11.2583 6.70833 11.1417L4.35 8.78333C4.10833 8.54167 4.10833 8.14167 4.35 7.9C4.59167 7.65833 4.99167 7.65833 5.23333 7.9L7.15 9.81667L11.4333 5.53333C11.675 5.29167 12.075 5.29167 12.3167 5.53333C12.5583 5.775 12.5583 6.16667 12.3167 6.41667Z" fill="#29BF12"/>
</svg>
