<svg width="6" height="5" viewBox="0 0 6 5" fill="none" xmlns="http://www.w3.org/2000/svg">
<path d="M3.00422 4.932C2.61222 4.932 2.24822 4.84 1.91222 4.656C1.57622 4.464 1.30822 4.204 1.10822 3.876C0.908219 3.548 0.808219 3.184 0.808219 2.784C0.808219 2.416 0.900219 2.068 1.08422 1.74C1.27622 1.412 1.53622 1.148 1.86422 0.948C2.20022 0.74 2.58022 0.636 3.00422 0.636C3.39622 0.636 3.75622 0.732 4.08422 0.924C4.41222 1.108 4.67622 1.36 4.87622 1.68C5.08422 2 5.18822 2.368 5.18822 2.784C5.18822 3.176 5.08822 3.536 4.88822 3.864C4.69622 4.192 4.43222 4.452 4.09622 4.644C3.76822 4.836 3.40422 4.932 3.00422 4.932Z" fill="#1D1D1D"/>
</svg>
