<svg width="171" height="137" viewBox="0 0 171 137" fill="none" xmlns="http://www.w3.org/2000/svg">
<circle cx="84.4119" cy="53.7986" r="48.3845" fill="#F1F1F1"/>
<rect x="65.4317" y="52.811" width="47.3695" height="66.3173" rx="4.73695" transform="rotate(2.5 65.4317 52.811)" fill="#EEEEEE" stroke="#999999" stroke-width="1.35341"/>
<rect x="37.2701" y="48.8451" width="50.0763" height="69.0241" rx="6.09036" transform="rotate(-7.5 37.2701 48.8451)" fill="#FAFAFA" stroke="#999999" stroke-width="1.35341"/>
<path d="M38.7359 54.7951C38.3457 51.8308 40.4323 49.1114 43.3966 48.7211L80.968 43.7747C83.9323 43.3845 86.6517 45.4712 87.042 48.4355L88.3669 58.4992L40.0608 64.8588L38.7359 54.7951Z" fill="#EEEEEE"/>
<rect x="96.8418" y="45.0977" width="2.03012" height="6.76707" rx="1.01506" transform="rotate(82.5 96.8418 45.0977)" fill="#999999"/>
<rect x="78.3027" y="33.8867" width="2.03012" height="6.76707" rx="1.01506" transform="rotate(-7.5 78.3027 33.8867)" fill="#999999"/>
<rect x="90.1973" y="35.7344" width="2.03012" height="6.76707" rx="1.01506" transform="rotate(37.5 90.1973 35.7344)" fill="#999999"/>
<rect x="45.1113" y="66.9238" width="39.249" height="2.70683" rx="1.35341" transform="rotate(-7.5 45.1113 66.9238)" fill="#DCDCDC"/>
<rect x="46.8789" y="80.3418" width="39.249" height="2.70683" rx="1.35341" transform="rotate(-7.5 46.8789 80.3418)" fill="#DCDCDC"/>
<rect x="48.6445" y="93.7617" width="39.249" height="2.70683" rx="1.35341" transform="rotate(-7.5 48.6445 93.7617)" fill="#DCDCDC"/>
<rect x="45.8184" y="72.293" width="14.2108" height="2.70683" rx="1.35341" transform="rotate(-7.5 45.8184 72.293)" fill="#EEEEEE"/>
<rect x="47.584" y="85.7109" width="14.2108" height="2.70683" rx="1.35341" transform="rotate(-7.5 47.584 85.7109)" fill="#EEEEEE"/>
<rect x="49.3516" y="99.1289" width="14.2108" height="2.70683" rx="1.35341" transform="rotate(-7.5 49.3516 99.1289)" fill="#EEEEEE"/>
</svg>
