<svg width="16" height="16" viewBox="0 0 16 16" fill="none" xmlns="http://www.w3.org/2000/svg">
<mask id="mask0_74_5115" style="mask-type:alpha" maskUnits="userSpaceOnUse" x="1" y="1" width="14" height="14">
<path fill-rule="evenodd" clip-rule="evenodd" d="M7.99967 1.33325C4.31967 1.33325 1.33301 4.31992 1.33301 7.99992C1.33301 11.6799 4.31967 14.6666 7.99967 14.6666C11.6797 14.6666 14.6663 11.6799 14.6663 7.99992C14.6663 4.31992 11.6797 1.33325 7.99967 1.33325ZM7.99967 8.66659C7.63301 8.66659 7.33301 8.36659 7.33301 7.99992V5.33325C7.33301 4.96659 7.63301 4.66659 7.99967 4.66659C8.36634 4.66659 8.66634 4.96659 8.66634 5.33325V7.99992C8.66634 8.36659 8.36634 8.66659 7.99967 8.66659ZM7.33301 9.99992V11.3333H8.66634V9.99992H7.33301Z" fill="black"/>
</mask>
<g mask="url(#mask0_74_5115)">
<rect width="16" height="16" fill="#E1004B"/>
</g>
</svg>
