<svg width="24" height="24" viewBox="0 0 24 24" fill="none" xmlns="http://www.w3.org/2000/svg">
<mask id="path-1-inside-1_12972_233996" fill="white">
<path d="M2.58078 19.0093L2.56078 19.0293C2.29078 18.4393 2.12078 17.7693 2.05078 17.0293C2.12078 17.7593 2.31078 18.4193 2.58078 19.0093Z"/>
</mask>
<path d="M2.58078 19.0093L2.56078 19.0293C2.29078 18.4393 2.12078 17.7693 2.05078 17.0293C2.12078 17.7593 2.31078 18.4193 2.58078 19.0093Z" fill="#1D1D1D"/>
<path d="M2.58078 19.0093L3.2879 19.7164L3.77925 19.225L3.49009 18.5932L2.58078 19.0093ZM2.56078 19.0293L1.65147 19.4454L2.25032 20.754L3.2679 19.7364L2.56078 19.0293ZM2.05078 17.0293L3.04622 16.9338L1.05523 17.1235L2.05078 17.0293ZM1.87367 18.3022L1.85367 18.3222L3.2679 19.7364L3.2879 19.7164L1.87367 18.3022ZM3.47009 18.6132C3.25335 18.1396 3.10743 17.581 3.04634 16.9351L1.05523 17.1235C1.13413 17.9576 1.32821 18.739 1.65147 19.4454L3.47009 18.6132ZM1.05535 17.1247C1.13648 17.9708 1.35729 18.7389 1.67147 19.4254L3.49009 18.5932C3.26427 18.0997 3.10508 17.5478 3.04622 16.9338L1.05535 17.1247Z" fill="#1D1D1D" mask="url(#path-1-inside-1_12972_233996)"/>
<path d="M10.8811 7.99914C10.8811 9.03744 10.0394 9.87914 9.00109 9.87914C7.9628 9.87914 7.12109 9.03744 7.12109 7.99914C7.12109 6.96085 7.9628 6.11914 9.00109 6.11914C10.0394 6.11914 10.8811 6.96085 10.8811 7.99914Z" fill="#1D1D1D" stroke="#1D1D1D"/>
<path d="M3.01551 18.8238L3.01553 18.8238L3.01381 18.8201C2.68003 18.0984 2.5 17.2227 2.5 16.19V7.81C2.5 6.08944 3.01093 4.77618 3.89355 3.89355C4.77618 3.01093 6.08944 2.5 7.81 2.5H16.19C17.9106 2.5 19.2238 3.01093 20.1064 3.89355C20.9891 4.77618 21.5 6.08944 21.5 7.81V13.9V16.19C21.5 17.9106 20.9891 19.2238 20.1064 20.1064C19.2238 20.9891 17.9106 21.5 16.19 21.5H7.81C5.41093 21.5 3.77734 20.5069 3.01551 18.8238ZM20.0442 12.8793L20.047 12.8817L20.177 12.9917L21 13.6881V12.61V7.81C21 6.31593 20.6043 5.09221 19.7561 4.24395C18.9078 3.39568 17.6841 3 16.19 3H7.81C6.31593 3 5.09221 3.39568 4.24395 4.24395C3.39568 5.09221 3 6.31593 3 7.81V16.19C3 17.0085 3.14029 17.7209 3.38462 18.3428L3.61209 18.9218L4.12863 18.5752L7.86863 16.0652L7.86974 16.0644C8.48811 15.647 9.36764 15.7008 9.90112 16.1666L9.90657 16.1714L9.91215 16.176L10.2484 16.4528C11.216 17.2802 12.7498 17.279 13.7158 16.4493L17.8756 12.8794L17.8758 12.8793C18.4684 12.3702 19.4516 12.3702 20.0442 12.8793Z" fill="#1D1D1D" stroke="#1D1D1D"/>
</svg>
