<svg width="14" height="14" viewBox="0 0 14 14" fill="none" xmlns="http://www.w3.org/2000/svg">
<path d="M7.0013 12.8346C10.223 12.8346 12.8346 10.223 12.8346 7.0013C12.8346 3.77964 10.223 1.16797 7.0013 1.16797C3.77964 1.16797 1.16797 3.77964 1.16797 7.0013C1.16797 10.223 3.77964 12.8346 7.0013 12.8346Z" stroke="#0235CD" stroke-width="0.875" stroke-linecap="round" stroke-linejoin="round"/>
<path d="M4.66823 1.75H5.25156C4.11406 5.15667 4.11406 8.84333 5.25156 12.25H4.66823" stroke="#0235CD" stroke-width="0.875" stroke-linecap="round" stroke-linejoin="round"/>
<path d="M8.75 1.75C9.8875 5.15667 9.8875 8.84333 8.75 12.25" stroke="#0235CD" stroke-width="0.875" stroke-linecap="round" stroke-linejoin="round"/>
<path d="M1.75 9.33333V8.75C5.15667 9.8875 8.84333 9.8875 12.25 8.75V9.33333" stroke="#0235CD" stroke-width="0.875" stroke-linecap="round" stroke-linejoin="round"/>
<path d="M1.75 5.25156C5.15667 4.11406 8.84333 4.11406 12.25 5.25156" stroke="#0235CD" stroke-width="0.875" stroke-linecap="round" stroke-linejoin="round"/>
</svg>
