<svg width="16" height="16" viewBox="0 0 16 16" fill="none" xmlns="http://www.w3.org/2000/svg">
<path d="M7.99992 14.667C4.32659 14.667 1.33325 11.6737 1.33325 8.00033C1.33325 4.32699 4.32659 1.33366 7.99992 1.33366C11.6733 1.33366 14.6666 4.32699 14.6666 8.00033C14.6666 11.6737 11.6733 14.667 7.99992 14.667ZM7.49992 10.667C7.49992 10.9403 7.72659 11.167 7.99992 11.167C8.27325 11.167 8.49992 10.9403 8.49992 10.667V7.33366C8.49992 7.06033 8.27325 6.83366 7.99992 6.83366C7.72659 6.83366 7.49992 7.06033 7.49992 7.33366V10.667ZM8.61325 5.08033C8.57992 4.99366 8.53325 4.92699 8.47325 4.86033C8.40659 4.80033 8.33325 4.75366 8.25325 4.72033C8.17325 4.68699 8.08659 4.66699 7.99992 4.66699C7.91325 4.66699 7.82659 4.68699 7.74659 4.72033C7.66659 4.75366 7.59325 4.80033 7.52659 4.86033C7.46659 4.92699 7.41992 4.99366 7.38659 5.08033C7.35325 5.16033 7.33325 5.24699 7.33325 5.33366C7.33325 5.42033 7.35325 5.50699 7.38659 5.58699C7.41992 5.66699 7.46659 5.74033 7.52659 5.80699C7.59325 5.86699 7.66659 5.91366 7.74659 5.94699C7.90659 6.01366 8.09325 6.01366 8.25325 5.94699C8.33325 5.91366 8.40659 5.86699 8.47325 5.80699C8.53325 5.74033 8.57992 5.66699 8.61325 5.58699C8.64659 5.50699 8.66659 5.42033 8.66659 5.33366C8.66659 5.24699 8.64659 5.16033 8.61325 5.08033Z" fill="#64748B"/>
</svg>
