<svg width="20" height="20" viewBox="0 0 20 20" fill="none" xmlns="http://www.w3.org/2000/svg">
<path d="M16.0841 6.59999V10.8917C16.0841 13.4583 14.6174 14.5583 12.4174 14.5583H5.09244C4.71744 14.5583 4.35911 14.525 4.02578 14.45C3.81744 14.4167 3.61745 14.3584 3.43412 14.2917C2.18412 13.825 1.42578 12.7417 1.42578 10.8917V6.59999C1.42578 4.03332 2.89244 2.93335 5.09244 2.93335H12.4174C14.2841 2.93335 15.6258 3.72501 15.9841 5.53335C16.0424 5.86668 16.0841 6.20832 16.0841 6.59999Z" stroke="#0D0F11" stroke-width="1.25" stroke-miterlimit="10" stroke-linecap="round" stroke-linejoin="round"/>
<path d="M18.5857 9.10009V13.3918C18.5857 15.9584 17.119 17.0584 14.919 17.0584H7.59401C6.97734 17.0584 6.41902 16.9751 5.93568 16.7918C4.94402 16.4251 4.26901 15.6668 4.02734 14.4501C4.36068 14.5251 4.71901 14.5584 5.09401 14.5584H12.419C14.619 14.5584 16.0857 13.4584 16.0857 10.8918V6.60009C16.0857 6.20842 16.0523 5.85845 15.9857 5.53345C17.569 5.86678 18.5857 6.98342 18.5857 9.10009Z" stroke="#0D0F11" stroke-width="1.25" stroke-miterlimit="10" stroke-linecap="round" stroke-linejoin="round"/>
<path d="M8.75079 10.9499C9.96582 10.9499 10.9508 9.9649 10.9508 8.74988C10.9508 7.53485 9.96582 6.54987 8.75079 6.54987C7.53577 6.54987 6.55078 7.53485 6.55078 8.74988C6.55078 9.9649 7.53577 10.9499 8.75079 10.9499Z" stroke="#0D0F11" stroke-width="1.25" stroke-miterlimit="10" stroke-linecap="round" stroke-linejoin="round"/>
<path d="M3.98438 6.91663V10.5833" stroke="#0D0F11" stroke-width="1.25" stroke-miterlimit="10" stroke-linecap="round" stroke-linejoin="round"/>
<path d="M13.5195 6.91693V10.5836" stroke="#0D0F11" stroke-width="1.25" stroke-miterlimit="10" stroke-linecap="round" stroke-linejoin="round"/>
</svg>
