<svg width="16" height="16" viewBox="0 0 16 16" fill="none" xmlns="http://www.w3.org/2000/svg">
<path d="M3.33333 6.66406C2.6 6.66406 2 7.26406 2 7.9974C2 8.73073 2.6 9.33073 3.33333 9.33073C4.06667 9.33073 4.66667 8.73073 4.66667 7.9974C4.66667 7.26406 4.06667 6.66406 3.33333 6.66406Z" stroke="#0235CD" stroke-width="1.5"/>
<path d="M12.6654 6.66406C11.932 6.66406 11.332 7.26406 11.332 7.9974C11.332 8.73073 11.932 9.33073 12.6654 9.33073C13.3987 9.33073 13.9987 8.73073 13.9987 7.9974C13.9987 7.26406 13.3987 6.66406 12.6654 6.66406Z" stroke="#0235CD" stroke-width="1.5"/>
<path d="M8.0013 6.66406C7.26797 6.66406 6.66797 7.26406 6.66797 7.9974C6.66797 8.73073 7.26797 9.33073 8.0013 9.33073C8.73464 9.33073 9.33464 8.73073 9.33464 7.9974C9.33464 7.26406 8.73464 6.66406 8.0013 6.66406Z" stroke="#0235CD" stroke-width="1.5"/>
</svg>
