<svg width="21" height="20" viewBox="0 0 21 20" fill="none" xmlns="http://www.w3.org/2000/svg">
<path d="M14.792 15.3588H11.4587L7.75032 17.8254C7.20032 18.1921 6.45866 17.8004 6.45866 17.1338V15.3588C3.95866 15.3588 2.29199 13.6921 2.29199 11.1921V6.19206C2.29199 3.69206 3.95866 2.02539 6.45866 2.02539H14.792C17.292 2.02539 18.9587 3.69206 18.9587 6.19206V11.1921C18.9587 13.6921 17.292 15.3588 14.792 15.3588Z" stroke="#0235CD" stroke-miterlimit="10" stroke-linecap="round" stroke-linejoin="round"/>
<path d="M10.6245 9.4668V9.29183C10.6245 8.72516 10.9745 8.42515 11.3245 8.18348C11.6662 7.95015 12.0078 7.65016 12.0078 7.10016C12.0078 6.33349 11.3912 5.7168 10.6245 5.7168C9.85786 5.7168 9.24121 6.33349 9.24121 7.10016" stroke="#0235CD" stroke-linecap="round" stroke-linejoin="round"/>
<path d="M10.6209 11.4587H10.6284" stroke="#292D32" stroke-width="1.5" stroke-linecap="round" stroke-linejoin="round"/>
</svg>
