<svg width="21" height="20" viewBox="0 0 21 20" fill="none" xmlns="http://www.w3.org/2000/svg">
<path d="M4.29167 8.33337C3.375 8.33337 2.625 9.08337 2.625 10C2.625 10.9167 3.375 11.6667 4.29167 11.6667C5.20833 11.6667 5.95833 10.9167 5.95833 10C5.95833 9.08337 5.20833 8.33337 4.29167 8.33337Z" stroke="#0235CD"/>
<path d="M15.9557 8.33337C15.0391 8.33337 14.2891 9.08337 14.2891 10C14.2891 10.9167 15.0391 11.6667 15.9557 11.6667C16.8724 11.6667 17.6224 10.9167 17.6224 10C17.6224 9.08337 16.8724 8.33337 15.9557 8.33337Z" stroke="#0235CD"/>
<path d="M10.1276 8.33337C9.21094 8.33337 8.46094 9.08337 8.46094 10C8.46094 10.9167 9.21094 11.6667 10.1276 11.6667C11.0443 11.6667 11.7943 10.9167 11.7943 10C11.7943 9.08337 11.0443 8.33337 10.1276 8.33337Z" stroke="#0235CD"/>
</svg>
