<svg width="20" height="20" viewBox="0 0 20 20" fill="none" xmlns="http://www.w3.org/2000/svg">
<path d="M8.33325 15.8333C8.33325 16.75 9.08325 17.5 9.99992 17.5C10.9166 17.5 11.6666 16.75 11.6666 15.8333C11.6666 14.9167 10.9166 14.1667 9.99992 14.1667C9.08325 14.1667 8.33325 14.9167 8.33325 15.8333Z" stroke="#292D32" stroke-width="1.5"/>
<path d="M8.33325 4.16536C8.33325 5.08203 9.08325 5.83203 9.99992 5.83203C10.9166 5.83203 11.6666 5.08203 11.6666 4.16536C11.6666 3.2487 10.9166 2.4987 9.99992 2.4987C9.08325 2.4987 8.33325 3.2487 8.33325 4.16536Z" stroke="#292D32" stroke-width="1.5"/>
<path d="M8.33325 10.0013C8.33325 10.918 9.08325 11.668 9.99992 11.668C10.9166 11.668 11.6666 10.918 11.6666 10.0013C11.6666 9.08463 10.9166 8.33463 9.99992 8.33463C9.08325 8.33463 8.33325 9.08463 8.33325 10.0013Z" stroke="#292D32" stroke-width="1.5"/>
</svg>
