<svg width="16" height="16" viewBox="0 0 16 16" fill="none" xmlns="http://www.w3.org/2000/svg">
<path d="M3.33333 6.66663C2.6 6.66663 2 7.26663 2 7.99996C2 8.73329 2.6 9.33329 3.33333 9.33329C4.06667 9.33329 4.66667 8.73329 4.66667 7.99996C4.66667 7.26663 4.06667 6.66663 3.33333 6.66663Z" stroke="#0D0F11"/>
<path d="M12.6654 6.66663C11.932 6.66663 11.332 7.26663 11.332 7.99996C11.332 8.73329 11.932 9.33329 12.6654 9.33329C13.3987 9.33329 13.9987 8.73329 13.9987 7.99996C13.9987 7.26663 13.3987 6.66663 12.6654 6.66663Z" stroke="#0D0F11"/>
<path d="M8.0013 6.66663C7.26797 6.66663 6.66797 7.26663 6.66797 7.99996C6.66797 8.73329 7.26797 9.33329 8.0013 9.33329C8.73464 9.33329 9.33464 8.73329 9.33464 7.99996C9.33464 7.26663 8.73464 6.66663 8.0013 6.66663Z" stroke="#0D0F11"/>
</svg>
