<svg width="49" height="48" viewBox="0 0 49 48" fill="none" xmlns="http://www.w3.org/2000/svg">
<g clip-path="url(#clip0_3086_13386)">
<path d="M2.72461 29.6246L2.94961 29.7746C3.02461 29.8496 3.02461 29.8496 3.09961 29.8496L3.24961 29.9246L3.32461 29.9996L3.54961 30.1496C3.62461 30.2246 3.77461 30.2246 3.92461 30.2996C5.49961 30.7496 6.99961 30.6746 8.64961 30.6746C10.0746 30.6746 11.4246 30.5996 12.8496 30.5996C13.3746 30.6746 13.8996 30.6746 14.4246 30.7496C14.5746 30.7496 14.6496 30.7496 14.7996 30.8246C15.8496 31.0496 17.0496 31.7246 17.2746 33.5996C17.4246 34.4996 17.5746 35.3996 17.6496 36.2996C17.9496 38.4746 18.3246 40.7246 18.6996 42.8996C18.9246 44.2496 19.6746 45.4496 20.6496 46.2746C21.6246 47.0246 22.7496 47.4746 24.0246 47.4746C24.9246 47.4746 25.8246 47.0996 26.3496 46.4996C27.5496 45.1496 26.8746 43.1996 26.4246 41.6246C25.8996 39.8246 25.6746 38.0246 25.8246 36.1496C25.9746 34.4246 26.1996 33.1496 27.3246 31.8746L29.4996 29.2496C30.0246 28.6496 30.5496 28.1246 31.0746 27.5246C31.1496 27.4496 31.2996 27.2996 31.5246 27.1496C31.8996 26.8496 32.3496 26.5496 32.7996 26.3246C32.8746 26.3246 32.9496 26.2496 32.9496 26.2496C33.2496 26.0996 33.4746 25.7996 33.4746 25.4996L33.4746 4.27461C33.4746 3.59961 32.9496 2.99961 32.2746 2.92461C31.7496 2.84961 31.0746 2.69961 30.5496 2.62461L29.9496 2.54961C27.3246 2.09961 24.9246 1.72461 22.5246 1.42461C16.6746 0.749611 9.47461 -0.975391 5.19961 4.34961C3.62461 6.29961 3.32461 8.99961 3.02461 11.4746C3.02461 11.7746 2.94961 11.9996 2.87461 12.2996C2.34961 15.7496 1.74961 19.1996 1.22461 22.7246C0.999611 25.1996 0.399609 27.8246 2.72461 29.6246Z" fill="#3768FD"/>
<path d="M38.05 1.94922H45.4C46.6 1.94922 47.5 2.92422 47.5 4.04922V27.2242C47.5 28.4242 46.525 29.3242 45.4 29.3242H38.05C36.85 29.3242 35.95 28.3492 35.95 27.2242V4.12422C35.875 2.92422 36.85 1.94922 38.05 1.94922Z" fill="#D1292D"/>
</g>
<defs>
<clipPath id="clip0_3086_13386">
<rect width="48" height="48" fill="white" transform="translate(48.25 48) rotate(-180)"/>
</clipPath>
</defs>
</svg>
