<svg width="14" height="16" viewBox="0 0 14 16" fill="none" xmlns="http://www.w3.org/2000/svg">
<path d="M13.3651 11.6624L13.3649 11.6622C13.3303 11.625 13.2927 11.5855 13.2526 11.5435C12.961 11.2377 12.5386 10.7945 12.1895 10.0877C11.791 9.28072 11.4975 8.15865 11.4975 6.5C11.4975 4.32179 9.97427 2.57217 7.8977 2.1408L7.4994 2.05806V1.65125V1C7.4994 0.723649 7.27545 0.5 7.00002 0.5C6.72459 0.5 6.50065 0.723649 6.50065 1V1.65125V2.05806L6.10234 2.1408C4.02577 2.57217 2.50252 4.32179 2.50252 6.5C2.50252 8.15865 2.20906 9.28072 1.81052 10.0877C1.46146 10.7945 1.039 11.2377 0.74746 11.5435C0.707381 11.5855 0.669777 11.6249 0.635178 11.6621C0.537197 11.7674 0.499275 11.8843 0.50001 11.9966C0.50001 11.9967 0.500011 11.9967 0.500011 11.9967M13.3651 11.6624L0.500011 11.9967M13.3651 11.6624C13.4627 11.7671 13.5008 11.8841 13.5 11.9967L13.5 11.997C13.4984 12.2644 13.2905 12.5 12.9969 12.5H1.00315C0.709854 12.5 0.50183 12.2647 0.500011 11.9967M13.3651 11.6624L0.500011 11.9967M8.41377 14.5C8.20791 15.0827 7.6524 15.5 7.00002 15.5C6.34764 15.5 5.79213 15.0827 5.58627 14.5H8.41377Z" stroke="#0235CD"/>
</svg>
