<svg width="24" height="24" viewBox="0 0 24 24" fill="none" xmlns="http://www.w3.org/2000/svg">
<path d="M20.4375 6.375V20.4375C20.4375 21.9937 19.1812 23.25 17.625 23.25H6.375C4.81875 23.25 3.5625 21.9937 3.5625 20.4375V3.5625C3.5625 2.00625 4.81875 0.75 6.375 0.75H14.8125L20.4375 6.375Z" fill="white"/>
<path d="M17.6234 23.4754H6.37344C4.68594 23.4754 3.33594 22.1066 3.33594 20.4379V3.56289C3.33594 1.87539 4.68594 0.525391 6.37344 0.525391H14.8109C14.8672 0.525391 14.9234 0.544141 14.9797 0.600391L20.6047 6.22539C20.6422 6.26289 20.6797 6.33789 20.6797 6.39414V20.4566C20.6609 22.1254 19.3109 23.4754 17.6234 23.4754ZM6.37344 0.975391C4.94844 0.975391 3.78594 2.13789 3.78594 3.56289V20.4379C3.78594 21.8629 4.94844 23.0254 6.37344 23.0254H17.6234C19.0484 23.0254 20.2109 21.8629 20.2109 20.4379V6.46914L14.7172 0.975391H6.37344Z" fill="#1D1D1D"/>
<path d="M17.6234 20.6629H6.37344C6.24219 20.6629 6.14844 20.5504 6.14844 20.4379C6.14844 20.3254 6.26094 20.2129 6.37344 20.2129H17.6234C17.7547 20.2129 17.8484 20.3254 17.8484 20.4379C17.8484 20.5504 17.7547 20.6629 17.6234 20.6629ZM17.6234 18.4129H6.37344C6.24219 18.4129 6.14844 18.3004 6.14844 18.1879C6.14844 18.0754 6.26094 17.9629 6.37344 17.9629H17.6234C17.7547 17.9629 17.8484 18.0754 17.8484 18.1879C17.8484 18.3004 17.7547 18.4129 17.6234 18.4129ZM17.6234 16.1629H6.37344C6.24219 16.1629 6.14844 16.0504 6.14844 15.9379C6.14844 15.8254 6.26094 15.7129 6.37344 15.7129H17.6234C17.7547 15.7129 17.8484 15.8254 17.8484 15.9379C17.8484 16.0504 17.7547 16.1629 17.6234 16.1629Z" fill="#1D1D1D"/>
<path opacity="0.2" d="M20.4375 7.125V6.375L14.8125 0.75H14.0625V3.5625C14.0625 5.53125 15.6562 7.125 17.625 7.125H20.4375Z" fill="#1D1D1D"/>
<path d="M14.8125 3.5625C14.8125 5.11875 16.0687 6.375 17.625 6.375H20.4375L14.8125 0.75V3.5625Z" fill="#CC2529"/>
<path d="M20.4375 6.59961H17.625C15.9375 6.59961 14.5875 5.23086 14.5875 3.56211V0.749609C14.5875 0.655859 14.6437 0.562109 14.7375 0.524609C14.8312 0.487109 14.925 0.505859 15 0.580859L20.625 6.20586C20.7 6.28086 20.7187 6.37461 20.6812 6.46836C20.625 6.54336 20.5312 6.59961 20.4375 6.59961ZM15.0375 1.31211V3.56211C15.0375 4.98711 16.2 6.14961 17.625 6.14961H19.875L15.0375 1.31211ZM7.33125 13.1996C7.33125 13.3496 7.21875 13.4246 7.0875 13.4246C6.9375 13.4246 6.84375 13.3496 6.84375 13.1996V9.84336C6.84375 9.43086 7.0125 9.26211 7.3875 9.26211H8.56875C9.4125 9.26211 9.88125 9.69336 9.88125 10.4434C9.88125 11.2309 9.39375 11.6996 8.55 11.6996H7.35V13.1996H7.33125ZM8.5125 11.2496C9.05625 11.2496 9.3375 10.9684 9.3375 10.4434C9.3375 9.97461 9.0375 9.69336 8.5125 9.69336H7.5C7.3875 9.69336 7.33125 9.76836 7.33125 9.88086V11.2496H8.5125ZM10.5375 9.84336C10.5375 9.43086 10.7062 9.26211 11.0812 9.26211H12.0187C13.1812 9.26211 13.875 10.0121 13.875 11.2871C13.875 12.5996 13.1812 13.3871 12.0187 13.3871H11.0812C10.7062 13.3871 10.5375 13.2184 10.5375 12.8246V9.84336ZM11.0437 12.7496C11.0437 12.8621 11.1 12.9371 11.2125 12.9371H12C12.8625 12.9371 13.3688 12.3371 13.3688 11.2871C13.3688 10.2746 12.9 9.71211 12.0187 9.71211H11.2312C11.1375 9.71211 11.0625 9.76836 11.0625 9.88086V12.7496H11.0437ZM15.1312 13.1996C15.1312 13.3496 15.0188 13.4246 14.8687 13.4246C14.7188 13.4246 14.625 13.3496 14.625 13.1996V9.82461C14.625 9.41211 14.7937 9.26211 15.1687 9.26211H17.2687C17.4187 9.26211 17.4937 9.35586 17.4937 9.48711C17.4937 9.61836 17.4187 9.71211 17.2687 9.71211H15.2812C15.1875 9.71211 15.1125 9.76836 15.1125 9.88086V11.0246H16.95C17.0812 11.0246 17.1562 11.1184 17.1562 11.2496C17.1562 11.3809 17.0812 11.4746 16.95 11.4746H15.1125V13.1996H15.1312Z" fill="#1D1D1D"/>
</svg>
