<svg width="14" height="14" viewBox="0 0 14 14" fill="none" xmlns="http://www.w3.org/2000/svg">
<path d="M12.8132 10.6899C12.8132 10.8999 12.7666 11.1157 12.6674 11.3257C12.5682 11.5357 12.4399 11.7341 12.2707 11.9207C11.9849 12.2357 11.6699 12.4632 11.3141 12.6091C10.9641 12.7549 10.5849 12.8307 10.1766 12.8307C9.58156 12.8307 8.94573 12.6907 8.2749 12.4049C7.60406 12.1191 6.93323 11.7341 6.26823 11.2499C5.5974 10.7599 4.96156 10.2174 4.3549 9.61656C3.75406 9.0099 3.21156 8.37406 2.7274 7.70906C2.24906 7.04406 1.86406 6.37906 1.58406 5.7199C1.30406 5.0549 1.16406 4.41906 1.16406 3.8124C1.16406 3.41573 1.23406 3.03656 1.37406 2.68656C1.51406 2.33073 1.73573 2.00406 2.0449 1.7124C2.41823 1.3449 2.82656 1.16406 3.25823 1.16406C3.42156 1.16406 3.5849 1.19906 3.73073 1.26906C3.8824 1.33906 4.01656 1.44406 4.12156 1.59573L5.4749 3.50323C5.5799 3.64906 5.65573 3.78323 5.70823 3.91156C5.76073 4.03406 5.7899 4.15656 5.7899 4.2674C5.7899 4.4074 5.74906 4.5474 5.6674 4.68156C5.59156 4.81573 5.48073 4.95573 5.34073 5.09573L4.8974 5.55656C4.83323 5.62073 4.80406 5.69656 4.80406 5.7899C4.80406 5.83656 4.8099 5.8774 4.82156 5.92406C4.83906 5.97073 4.85656 6.00573 4.86823 6.04073C4.97323 6.23323 5.15406 6.48406 5.41073 6.7874C5.67323 7.09073 5.95323 7.3999 6.25656 7.70906C6.57156 8.01823 6.8749 8.30406 7.18406 8.56656C7.4874 8.82323 7.73823 8.99823 7.93656 9.10323C7.96573 9.1149 8.00073 9.1324 8.04156 9.1499C8.08823 9.1674 8.1349 9.17323 8.1874 9.17323C8.28656 9.17323 8.3624 9.13823 8.42656 9.07406L8.8699 8.63656C9.01573 8.49073 9.15573 8.3799 9.2899 8.3099C9.42406 8.22823 9.55823 8.1874 9.70406 8.1874C9.8149 8.1874 9.93156 8.21073 10.0599 8.26323C10.1882 8.31573 10.3224 8.39156 10.4682 8.49073L12.3991 9.86156C12.5507 9.96656 12.6557 10.0891 12.7199 10.2349C12.7782 10.3807 12.8132 10.5266 12.8132 10.6899Z" stroke="#292D32" stroke-width="0.875" stroke-miterlimit="10"/>
</svg>
