<svg width="16" height="16" viewBox="0 0 16 16" fill="none" xmlns="http://www.w3.org/2000/svg">
<path d="M4.83203 4.66536H11.1654V3.33203C11.1654 1.9987 10.6654 1.33203 9.16536 1.33203H6.83203C5.33203 1.33203 4.83203 1.9987 4.83203 3.33203V4.66536Z" stroke="#0235CD" stroke-width="1.5" stroke-miterlimit="10" stroke-linecap="round" stroke-linejoin="round"/>
<path d="M10.6654 10V12.6667C10.6654 14 9.9987 14.6667 8.66536 14.6667H7.33203C5.9987 14.6667 5.33203 14 5.33203 12.6667V10H10.6654Z" stroke="#0235CD" stroke-width="1.5" stroke-miterlimit="10" stroke-linecap="round" stroke-linejoin="round"/>
<path d="M14 6.66797V10.0013C14 11.3346 13.3333 12.0013 12 12.0013H10.6667V10.0013H5.33333V12.0013H4C2.66667 12.0013 2 11.3346 2 10.0013V6.66797C2 5.33464 2.66667 4.66797 4 4.66797H12C13.3333 4.66797 14 5.33464 14 6.66797Z" stroke="#0235CD" stroke-width="1.5" stroke-miterlimit="10" stroke-linecap="round" stroke-linejoin="round"/>
<path d="M11.3346 10H10.528H4.66797" stroke="#0235CD" stroke-width="1.5" stroke-miterlimit="10" stroke-linecap="round" stroke-linejoin="round"/>
<path d="M4.66797 7.33203H6.66797" stroke="#0235CD" stroke-width="1.5" stroke-miterlimit="10" stroke-linecap="round" stroke-linejoin="round"/>
</svg>
