<svg width="40" height="40" viewBox="0 0 40 40" fill="none" xmlns="http://www.w3.org/2000/svg">
<path d="M40 20C40 31.0457 31.0457 40 20 40C8.9543 40 0 31.0457 0 20C0 8.9543 8.9543 0 20 0C31.0457 0 40 8.9543 40 20ZM2 20C2 29.9411 10.0589 38 20 38C29.9411 38 38 29.9411 38 20C38 10.0589 29.9411 2 20 2C10.0589 2 2 10.0589 2 20Z" fill="#EBECF2"/>
<path d="M39 20C39.5523 20 40.0026 20.4481 39.975 20.9997C39.7547 25.4035 38.0839 29.6219 35.2081 32.989C32.1154 36.6101 27.8321 39.0088 23.1287 39.7538C18.4253 40.4987 13.6104 39.541 9.55003 37.0528C5.77456 34.7392 2.8819 31.2436 1.31155 27.1234C1.11485 26.6073 1.40467 26.042 1.92993 25.8713C2.45518 25.7007 3.01672 25.9894 3.21628 26.5044C4.63752 30.172 7.22566 33.2828 10.595 35.3475C14.2493 37.5869 18.5827 38.4488 22.8158 37.7784C27.0489 37.1079 30.9039 34.9491 33.6873 31.6901C36.2537 28.6852 37.7539 24.9269 37.9722 20.9996C38.0029 20.4482 38.4477 20 39 20Z" fill="#8EC28A"/>
<path d="M13.0071 23V21.54H9.74711V20.8L13.1771 15.95H14.0171V20.73H15.0671V21.54H14.0171V23H13.0071ZM13.0071 20.73V17.18H13.2371L10.5571 20.98V20.73H13.0071ZM18.3832 23.09C18.0765 23.09 17.7732 23.0567 17.4732 22.99C17.1732 22.9233 16.8932 22.83 16.6332 22.71C16.3732 22.5833 16.1465 22.4333 15.9532 22.26L16.3132 21.47C16.6332 21.7167 16.9599 21.9033 17.2932 22.03C17.6332 22.15 17.9899 22.21 18.3632 22.21C18.8365 22.21 19.2065 22.0867 19.4732 21.84C19.7465 21.5933 19.8832 21.2633 19.8832 20.85C19.8832 20.4233 19.7532 20.08 19.4932 19.82C19.2399 19.5533 18.8865 19.42 18.4332 19.42C18.1199 19.42 17.8332 19.4833 17.5732 19.61C17.3199 19.7367 17.0965 19.93 16.9032 20.19H16.1832V15.95H20.4532V16.82H17.1732V19.36H16.9132C17.0932 19.1067 17.3332 18.91 17.6332 18.77C17.9399 18.63 18.2832 18.56 18.6632 18.56C19.1165 18.56 19.5099 18.6533 19.8432 18.84C20.1765 19.0267 20.4332 19.2867 20.6132 19.62C20.7999 19.9533 20.8932 20.3467 20.8932 20.8C20.8932 21.2533 20.7899 21.6533 20.5832 22C20.3832 22.34 20.0932 22.6067 19.7132 22.8C19.3399 22.9933 18.8965 23.09 18.3832 23.09ZM24.3493 23H23.4693L27.6493 15.95H28.5293L24.3493 23ZM23.5193 20.17C22.966 20.17 22.5293 19.98 22.2093 19.6C21.896 19.2133 21.7393 18.6833 21.7393 18.01C21.7393 17.33 21.8993 16.8033 22.2193 16.43C22.5393 16.05 22.9726 15.86 23.5193 15.86C24.0726 15.86 24.506 16.0533 24.8193 16.44C25.1326 16.82 25.2893 17.3433 25.2893 18.01C25.2893 18.6833 25.1326 19.2133 24.8193 19.6C24.506 19.98 24.0726 20.17 23.5193 20.17ZM23.5193 19.49C23.806 19.49 24.0293 19.37 24.1893 19.13C24.356 18.8833 24.4393 18.51 24.4393 18.01C24.4393 17.5033 24.356 17.1333 24.1893 16.9C24.0293 16.66 23.806 16.54 23.5193 16.54C23.2326 16.54 23.006 16.66 22.8393 16.9C22.6793 17.1333 22.5993 17.5033 22.5993 18.01C22.5993 18.5167 22.6793 18.89 22.8393 19.13C23.006 19.37 23.2326 19.49 23.5193 19.49ZM28.4793 23.09C27.926 23.09 27.4926 22.9 27.1793 22.52C26.866 22.1333 26.7093 21.6033 26.7093 20.93C26.7093 20.25 26.866 19.7233 27.1793 19.35C27.4993 18.97 27.9326 18.78 28.4793 18.78C29.0326 18.78 29.466 18.9733 29.7793 19.36C30.0926 19.74 30.2493 20.2633 30.2493 20.93C30.2493 21.6033 30.0926 22.1333 29.7793 22.52C29.466 22.9 29.0326 23.09 28.4793 23.09ZM28.4793 22.41C28.766 22.41 28.9893 22.29 29.1493 22.05C29.316 21.81 29.3993 21.4367 29.3993 20.93C29.3993 20.4233 29.316 20.0533 29.1493 19.82C28.9893 19.58 28.766 19.46 28.4793 19.46C28.1926 19.46 27.966 19.58 27.7993 19.82C27.6393 20.0533 27.5593 20.4233 27.5593 20.93C27.5593 21.4367 27.6393 21.81 27.7993 22.05C27.966 22.29 28.1926 22.41 28.4793 22.41Z" fill="#1D1D1D"/>
</svg>
