<svg width="41" height="40" viewBox="0 0 41 40" fill="none" xmlns="http://www.w3.org/2000/svg">
<circle cx="20.667" cy="20" r="20" fill="#C3D2FE"/>
<circle cx="20.667" cy="20" r="16" fill="#0235CD"/>
<path d="M29.0007 17.5003V22.5003C29.0007 22.692 29.0006 22.8753 28.984 23.0586C28.9506 23.0086 28.909 22.9587 28.8673 22.917C28.1923 22.142 27.1923 21.667 26.084 21.667C25.034 21.667 24.0757 22.1003 23.3923 22.8003C22.734 23.4753 22.334 24.4003 22.334 25.417C22.334 26.117 22.534 26.7837 22.8756 27.3503C23.0673 27.667 23.309 27.9587 23.5923 28.2003C23.634 28.242 23.6756 28.2753 23.7256 28.317C23.5506 28.3336 23.359 28.3337 23.1673 28.3337H18.1673C14.0007 28.3337 12.334 26.667 12.334 22.5003V17.5003C12.334 13.3337 14.0007 11.667 18.1673 11.667H23.1673C27.334 11.667 29.0007 13.3337 29.0007 17.5003Z" fill="#EBF0FF" stroke="#EBF0FF" stroke-width="1.25" stroke-linecap="round" stroke-linejoin="round"/>
<path d="M12.7666 15.9258H28.5666" stroke="#EBF0FF" stroke-width="1.25" stroke-linecap="round" stroke-linejoin="round"/>
<path d="M17.7666 11.7588V15.8088" stroke="#EBF0FF" stroke-width="1.25" stroke-linecap="round" stroke-linejoin="round"/>
<path d="M23.5664 11.7588V15.4338" stroke="#C3D2FE" stroke-width="1.25" stroke-linecap="round" stroke-linejoin="round"/>
<path d="M29.833 25.416C29.833 25.716 29.7997 26.0077 29.7247 26.291C29.633 26.666 29.483 27.0244 29.2913 27.3494C28.6413 28.4327 27.4497 29.166 26.083 29.166C25.183 29.166 24.3663 28.8493 23.733 28.316C23.7247 28.316 23.7247 28.316 23.7247 28.316C23.6747 28.2743 23.633 28.241 23.5913 28.1994C23.308 27.9577 23.0663 27.666 22.8747 27.3494C22.533 26.7827 22.333 26.116 22.333 25.416C22.333 24.3993 22.733 23.4743 23.3913 22.7993C24.0747 22.0993 25.033 21.666 26.083 21.666C27.1913 21.666 28.1913 22.141 28.8663 22.916C28.908 22.9577 28.9497 23.0077 28.983 23.0577C29.5163 23.6993 29.833 24.5243 29.833 25.416Z" stroke="#C3D2FE" stroke-width="1.25" stroke-miterlimit="10" stroke-linecap="round" stroke-linejoin="round"/>
<path d="M27.0829 26.3994L25.0996 24.416" stroke="#C3D2FE" stroke-width="1.25" stroke-miterlimit="10" stroke-linecap="round" stroke-linejoin="round"/>
<path d="M27.0663 24.4336L25.083 26.4169" stroke="#C3D2FE" stroke-width="1.25" stroke-miterlimit="10" stroke-linecap="round" stroke-linejoin="round"/>
</svg>
