<svg width="48" height="48" viewBox="0 0 48 48" fill="none" xmlns="http://www.w3.org/2000/svg">
<path d="M28.88 38.0996L31.92 41.1396L38 35.0596" stroke="#011B69" stroke-width="1.5" stroke-linecap="round" stroke-linejoin="round"/>
<path d="M24.3199 21.74C24.1199 21.72 23.8799 21.72 23.6599 21.74C18.8999 21.58 15.1199 17.68 15.1199 12.88C15.0999 7.98 19.0799 4 23.9799 4C28.8799 4 32.8599 7.98 32.8599 12.88C32.8599 17.68 29.0599 21.58 24.3199 21.74Z" stroke="#011B69" stroke-width="1.5" stroke-linecap="round" stroke-linejoin="round"/>
<path d="M23.98 43.6203C20.34 43.6203 16.72 42.7004 13.96 40.8604C9.11996 37.6204 9.11996 32.3404 13.96 29.1204C19.46 25.4404 28.48 25.4404 33.98 29.1204" stroke="#011B69" stroke-width="1.5" stroke-linecap="round" stroke-linejoin="round"/>
</svg>
