<svg width="20" height="20" viewBox="0 0 20 20" fill="none" xmlns="http://www.w3.org/2000/svg">
<path d="M4.55827 7.50033C6.1691 7.50033 7.47493 6.19449 7.47493 4.58366C7.47493 2.97283 6.1691 1.66699 4.55827 1.66699C2.94744 1.66699 1.6416 2.97283 1.6416 4.58366C1.6416 6.19449 2.94744 7.50033 4.55827 7.50033Z" stroke="#64748B"/>
<path d="M14.1418 12.5H16.6418C17.5584 12.5 18.3084 13.25 18.3084 14.1667V16.6667C18.3084 17.5833 17.5584 18.3333 16.6418 18.3333H14.1418C13.2251 18.3333 12.4751 17.5833 12.4751 16.6667V14.1667C12.4751 13.25 13.2251 12.5 14.1418 12.5Z" stroke="#64748B"/>
<path d="M9.99991 4.16699H12.2332C13.7749 4.16699 14.4916 6.07533 13.3332 7.09199L6.67491 12.917C5.51658 13.9253 6.23325 15.8337 7.76658 15.8337H9.99991" stroke="#64748B" stroke-linecap="round" stroke-linejoin="round"/>
<path d="M4.57209 4.58366H4.58172" stroke="#64748B" stroke-linecap="round" stroke-linejoin="round"/>
<path d="M15.4051 15.4167H15.4147" stroke="#64748B" stroke-linecap="round" stroke-linejoin="round"/>
</svg>
