<svg width="25" height="24" viewBox="0 0 25 24" fill="none" xmlns="http://www.w3.org/2000/svg">
<circle cx="12.5" cy="12" r="12" fill="#80171A"/>
<g clip-path="url(#clip0_14251_347750)">
<path d="M18.1708 10.8021C17.8062 10.5318 17.3583 10.3333 16.8854 10.2263C16.8078 10.2089 16.7367 10.1697 16.6805 10.1133C16.6243 10.057 16.5852 9.98578 16.568 9.90809C16.3648 9.00314 15.9276 8.2271 15.2849 7.63908C14.5378 6.95444 13.5497 6.57788 12.5026 6.57788C11.582 6.57788 10.7318 6.86642 10.0451 7.41252C9.57964 7.78321 9.20502 8.25527 8.94974 8.79272C8.92206 8.85153 8.88101 8.90305 8.82987 8.94315C8.77873 8.98326 8.71892 9.01085 8.65521 9.02371C7.95859 9.16434 7.32969 9.46304 6.84948 9.88621C6.18646 10.4722 5.83594 11.2511 5.83594 12.1404C5.83594 13.0393 6.21328 13.8591 6.89818 14.4518C7.55234 15.0167 8.43307 15.3279 9.3776 15.3279H12.0859V11.3339L11.1305 12.2893C11.0906 12.3292 11.043 12.3606 10.9906 12.3816C10.9383 12.4025 10.8822 12.4126 10.8258 12.4112C10.7694 12.4099 10.7139 12.3971 10.6626 12.3736C10.6113 12.3502 10.5653 12.3165 10.5273 12.2748C10.3763 12.1089 10.3909 11.8503 10.5495 11.6917L12.2081 10.0333C12.2862 9.95527 12.3921 9.91141 12.5026 9.91141C12.6131 9.91141 12.719 9.95527 12.7971 10.0333L14.4557 11.6912C14.6193 11.855 14.6286 12.1235 14.4659 12.2878C14.4273 12.3268 14.3813 12.3578 14.3307 12.379C14.2801 12.4002 14.2258 12.4111 14.1709 12.4113C14.116 12.4114 14.0616 12.4007 14.0109 12.3798C13.9602 12.3589 13.9141 12.3281 13.8753 12.2893L12.9193 11.3339V15.3279H16.1484C16.9646 15.3279 17.7086 15.0987 18.2435 14.6828C18.8492 14.2115 19.1693 13.537 19.1693 12.7341C19.1693 11.9544 18.824 11.286 18.1708 10.8021ZM12.0859 17.0055C12.0859 17.116 12.1298 17.222 12.208 17.3001C12.2861 17.3783 12.3921 17.4222 12.5026 17.4222C12.6131 17.4222 12.7191 17.3783 12.7972 17.3001C12.8754 17.222 12.9193 17.116 12.9193 17.0055V15.3279H12.0859V17.0055Z" fill="white"/>
</g>
<defs>
<clipPath id="clip0_14251_347750">
<rect width="13.3333" height="13.3333" fill="white" transform="translate(5.83594 5.33331)"/>
</clipPath>
</defs>
</svg>
