<svg width="48" height="48" viewBox="0 0 48 48" fill="none" xmlns="http://www.w3.org/2000/svg">
<path d="M36 14.32C35.88 14.3 35.74 14.3 35.62 14.32C32.86 14.22 30.66 11.96 30.66 9.16C30.66 6.3 32.96 4 35.82 4C38.68 4 40.98 6.32 40.98 9.16C40.96 11.96 38.76 14.22 36 14.32Z" stroke="#011B69" stroke-width="1.5" stroke-linecap="round" stroke-linejoin="round"/>
<path d="M33.94 28.88C36.68 29.34 39.7 28.86 41.82 27.44C44.64 25.56 44.64 22.48 41.82 20.6C39.68 19.18 36.62 18.7 33.88 19.18" stroke="#011B69" stroke-width="1.5" stroke-linecap="round" stroke-linejoin="round"/>
<path d="M11.94 14.32C12.06 14.3 12.2 14.3 12.32 14.32C15.08 14.22 17.28 11.96 17.28 9.16C17.28 6.3 14.98 4 12.12 4C9.26 4 6.96 6.32 6.96 9.16C6.98 11.96 9.18 14.22 11.94 14.32Z" stroke="#011B69" stroke-width="1.5" stroke-linecap="round" stroke-linejoin="round"/>
<path d="M14 28.88C11.26 29.34 8.24 28.86 6.12 27.44C3.3 25.56 3.3 22.48 6.12 20.6C8.26 19.18 11.32 18.7 14.06 19.18" stroke="#011B69" stroke-width="1.5" stroke-linecap="round" stroke-linejoin="round"/>
<path d="M24 29.26C23.88 29.24 23.74 29.24 23.62 29.26C20.86 29.16 18.66 26.9 18.66 24.1C18.66 21.24 20.96 18.94 23.82 18.94C26.68 18.94 28.98 21.26 28.98 24.1C28.96 26.9 26.76 29.18 24 29.26Z" stroke="#011B69" stroke-width="1.5" stroke-linecap="round" stroke-linejoin="round"/>
<path d="M18.18 35.56C15.36 37.44 15.36 40.52 18.18 42.4C21.38 44.54 26.62 44.54 29.82 42.4C32.64 40.52 32.64 37.44 29.82 35.56C26.64 33.44 21.38 33.44 18.18 35.56Z" stroke="#011B69" stroke-width="1.5" stroke-linecap="round" stroke-linejoin="round"/>
</svg>
