<svg width="40" height="40" viewBox="0 0 40 40" fill="none" xmlns="http://www.w3.org/2000/svg">
<circle cx="20" cy="20" r="20" fill="#E6B900"/>
<path d="M11.7695 23.057C11.9362 23.0987 12.1195 23.1362 12.3195 23.1695C12.5279 23.2029 12.7529 23.2195 12.9945 23.2195C13.3612 23.2195 13.6612 23.1737 13.8945 23.082C14.1362 22.9904 14.3237 22.8445 14.457 22.6445C14.5987 22.4445 14.6945 22.1904 14.7445 21.882C14.8029 21.5654 14.832 21.1862 14.832 20.7445V15.2445H16.0695V20.8695C16.0695 21.3945 16.0237 21.8654 15.932 22.282C15.8404 22.6987 15.682 23.057 15.457 23.357C15.2404 23.6487 14.9487 23.8737 14.582 24.032C14.2154 24.1904 13.757 24.2695 13.207 24.2695C12.8904 24.2695 12.582 24.2445 12.282 24.1945C11.9904 24.1445 11.7487 24.0862 11.557 24.0195L11.7695 23.057ZM22.5031 21.6445H19.0906L18.2656 24.1445H17.0156L20.1156 15.2445H21.4906L24.6406 24.1445H23.3281L22.5031 21.6445ZM19.4156 20.607H22.1656L20.7906 16.457L19.4156 20.607Z" fill="black"/>
</svg>
