<svg width="49" height="48" viewBox="0 0 49 48" fill="none" xmlns="http://www.w3.org/2000/svg">
<g clip-path="url(#clip0_3086_13381)">
<path d="M46.2754 18.3754L46.0504 18.2254C45.9754 18.1504 45.9754 18.1504 45.9004 18.1504L45.7504 18.0754L45.6754 18.0004L45.4504 17.8504C45.3754 17.7754 45.2254 17.7754 45.0754 17.7004C43.5004 17.2504 42.0004 17.3254 40.3504 17.3254C38.9254 17.3254 37.5754 17.4004 36.1504 17.4004C35.6254 17.3254 35.1004 17.3254 34.5754 17.2504C34.4254 17.2504 34.3504 17.2504 34.2004 17.1754C33.1504 16.9504 31.9504 16.2754 31.7254 14.4004C31.5754 13.5004 31.4254 12.6004 31.3504 11.7004C31.0504 9.52539 30.6754 7.27539 30.3004 5.10039C30.0754 3.75039 29.3254 2.55039 28.3504 1.72539C27.3754 0.975391 26.2504 0.525391 24.9754 0.525391C24.0754 0.525391 23.1754 0.900391 22.6504 1.50039C21.4504 2.85039 22.1254 4.80039 22.5754 6.37539C23.1004 8.17539 23.3254 9.97539 23.1754 11.8504C23.0254 13.5754 22.8004 14.8504 21.6754 16.1254L19.5004 18.7504C18.9754 19.3504 18.4504 19.8754 17.9254 20.4754C17.8504 20.5504 17.7004 20.7004 17.4754 20.8504C17.1004 21.1504 16.6504 21.4504 16.2004 21.6754C16.1254 21.6754 16.0504 21.7504 16.0504 21.7504C15.7504 21.9004 15.5254 22.2004 15.5254 22.5004V43.7254C15.5254 44.4004 16.0504 45.0004 16.7254 45.0754C17.2504 45.1504 17.9254 45.3004 18.4504 45.3754L19.0504 45.4504C21.6754 45.9004 24.0754 46.2754 26.4754 46.5754C32.3254 47.2504 39.5254 48.9754 43.8004 43.6504C45.3754 41.7004 45.6754 39.0004 45.9754 36.5254C45.9754 36.2254 46.0504 36.0004 46.1254 35.7004C46.6504 32.2504 47.2504 28.8004 47.7754 25.2754C48.0004 22.8004 48.6004 20.1754 46.2754 18.3754Z" fill="#3768FD"/>
<path d="M10.95 46.0508H3.6C2.4 46.0508 1.5 45.0758 1.5 43.9508V20.7758C1.5 19.5758 2.475 18.6758 3.6 18.6758H10.95C12.15 18.6758 13.05 19.6508 13.05 20.7758V43.8758C13.125 45.0758 12.15 46.0508 10.95 46.0508Z" fill="#10B981"/>
</g>
<defs>
<clipPath id="clip0_3086_13381">
<rect width="48" height="48" fill="white" transform="translate(0.75)"/>
</clipPath>
</defs>
</svg>
