<svg xmlns="http://www.w3.org/2000/svg" width="24" height="24" viewBox="0 0 24 24" fill="none">
  <path d="M20.4375 6.375V20.4375C20.4375 21.9937 19.1812 23.25 17.625 23.25H6.375C4.81875 23.25 3.5625 21.9937 3.5625 20.4375V3.5625C3.5625 2.00625 4.81875 0.75 6.375 0.75H14.8125L20.4375 6.375Z" fill="white"/>
  <path d="M17.6234 23.4744H6.37344C4.68594 23.4744 3.33594 22.1057 3.33594 20.4369V3.56191C3.33594 1.87441 4.68594 0.524414 6.37344 0.524414H14.8109C14.8672 0.524414 14.9234 0.543164 14.9797 0.599414L20.6047 6.22441C20.6422 6.26191 20.6797 6.33691 20.6797 6.39316V20.4557C20.6609 22.1244 19.3109 23.4744 17.6234 23.4744ZM6.37344 0.974414C4.94844 0.974414 3.78594 2.13691 3.78594 3.56191V20.4369C3.78594 21.8619 4.94844 23.0244 6.37344 23.0244H17.6234C19.0484 23.0244 20.2109 21.8619 20.2109 20.4369V6.46816L14.7172 0.974414H6.37344Z" fill="#1D1D1D"/>
  <path d="M17.6234 20.6619H6.37344C6.24219 20.6619 6.14844 20.5494 6.14844 20.4369C6.14844 20.3244 6.26094 20.2119 6.37344 20.2119H17.6234C17.7547 20.2119 17.8484 20.3244 17.8484 20.4369C17.8484 20.5494 17.7547 20.6619 17.6234 20.6619ZM17.6234 18.4119H6.37344C6.24219 18.4119 6.14844 18.2994 6.14844 18.1869C6.14844 18.0744 6.26094 17.9619 6.37344 17.9619H17.6234C17.7547 17.9619 17.8484 18.0744 17.8484 18.1869C17.8484 18.2994 17.7547 18.4119 17.6234 18.4119ZM17.6234 16.1619H6.37344C6.24219 16.1619 6.14844 16.0494 6.14844 15.9369C6.14844 15.8244 6.26094 15.7119 6.37344 15.7119H17.6234C17.7547 15.7119 17.8484 15.8244 17.8484 15.9369C17.8484 16.0494 17.7547 16.1619 17.6234 16.1619Z" fill="#1D1D1D"/>
  <path opacity="0.2" d="M20.4375 7.125V6.375L14.8125 0.75H14.0625V3.5625C14.0625 5.53125 15.6562 7.125 17.625 7.125H20.4375Z" fill="#1D1D1D"/>
  <path d="M14.8125 3.5625C14.8125 5.11875 16.0687 6.375 17.625 6.375H20.4375L14.8125 0.75V3.5625Z" fill="#CC2529"/>
  <path d="M20.4375 6.60059H17.625C15.9375 6.60059 14.5875 5.23184 14.5875 3.56309V0.750586C14.5875 0.656836 14.6437 0.563086 14.7375 0.525586C14.8312 0.488086 14.925 0.506836 15 0.581836L20.625 6.20684C20.7 6.28184 20.7187 6.37559 20.6812 6.46934C20.625 6.54434 20.5312 6.60059 20.4375 6.60059ZM15.0375 1.31309V3.56309C15.0375 4.98809 16.2 6.15059 17.625 6.15059H19.875L15.0375 1.31309ZM7.33125 13.2006C7.33125 13.3506 7.21875 13.4256 7.0875 13.4256C6.9375 13.4256 6.84375 13.3506 6.84375 13.2006V9.84433C6.84375 9.43184 7.0125 9.26309 7.3875 9.26309H8.56875C9.4125 9.26309 9.88125 9.69433 9.88125 10.4443C9.88125 11.2318 9.39375 11.7006 8.55 11.7006H7.35V13.2006H7.33125ZM8.5125 11.2506C9.05625 11.2506 9.3375 10.9693 9.3375 10.4443C9.3375 9.97558 9.0375 9.69433 8.5125 9.69433H7.5C7.3875 9.69433 7.33125 9.76933 7.33125 9.88183V11.2506H8.5125ZM10.5375 9.84433C10.5375 9.43184 10.7062 9.26309 11.0812 9.26309H12.0187C13.1812 9.26309 13.875 10.0131 13.875 11.2881C13.875 12.6006 13.1812 13.3881 12.0187 13.3881H11.0812C10.7062 13.3881 10.5375 13.2193 10.5375 12.8256V9.84433ZM11.0437 12.7506C11.0437 12.8631 11.1 12.9381 11.2125 12.9381H12C12.8625 12.9381 13.3688 12.3381 13.3688 11.2881C13.3688 10.2756 12.9 9.71309 12.0187 9.71309H11.2312C11.1375 9.71309 11.0625 9.76933 11.0625 9.88183V12.7506H11.0437ZM15.1312 13.2006C15.1312 13.3506 15.0188 13.4256 14.8687 13.4256C14.7188 13.4256 14.625 13.3506 14.625 13.2006V9.82559C14.625 9.41308 14.7937 9.26309 15.1687 9.26309H17.2687C17.4187 9.26309 17.4937 9.35683 17.4937 9.48808C17.4937 9.61934 17.4187 9.71309 17.2687 9.71309H15.2812C15.1875 9.71309 15.1125 9.76933 15.1125 9.88183V11.0256H16.95C17.0812 11.0256 17.1562 11.1193 17.1562 11.2506C17.1562 11.3818 17.0812 11.4756 16.95 11.4756H15.1125V13.2006H15.1312Z" fill="#1D1D1D"/>
</svg>