<svg width="42" height="40" viewBox="0 0 42 40" fill="none" xmlns="http://www.w3.org/2000/svg">
<ellipse cx="20.6496" cy="20" rx="20.6496" ry="20" fill="#C3D2FE"/>
<ellipse cx="20.6486" cy="20" rx="16.5197" ry="16" fill="#0235CD"/>
<g clip-path="url(#clip0_19674_513969)">
<path d="M16.3236 13.627V11H16.323L13.6113 13.6264V13.627H16.3236Z" fill="white"/>
<path d="M16.4688 19.3574H18.9489V23.9044H16.4688V19.3574Z" fill="white"/>
<path d="M18.0554 11C17.7004 11 17.4125 11.2878 17.4125 11.6429V14.0388C17.4125 14.3939 17.1247 14.6817 16.7697 14.6817H14.2542C13.8991 14.6817 13.6113 14.9695 13.6113 15.3245V28.3571C13.6113 28.7122 13.8991 29 14.2542 29H27.0469C27.4019 29 27.6898 28.7122 27.6898 28.3571V11.6429C27.6898 11.2878 27.4019 11 27.0469 11H18.0554ZM20.0383 24.3152C20.0383 24.6702 19.7505 24.958 19.3954 24.958H16.0232C15.6681 24.958 15.3803 24.6702 15.3803 24.3152V18.9446C15.3803 18.5895 15.6681 18.3017 16.0232 18.3017H19.3954C19.7505 18.3017 20.0383 18.5895 20.0383 18.9446V24.3152ZM25.9547 24.4307C25.9547 24.722 25.7186 24.958 25.4273 24.958H21.7563C21.465 24.958 21.2289 24.722 21.2289 24.4307C21.2289 24.1395 21.465 23.9034 21.7563 23.9034H25.4273C25.7186 23.9034 25.9547 24.1395 25.9547 24.4307ZM25.9547 22.1901C25.9547 22.4813 25.7186 22.7174 25.4273 22.7174H21.7563C21.465 22.7174 21.2289 22.4813 21.2289 22.1901C21.2289 21.8988 21.465 21.6627 21.7563 21.6627H25.4273C25.7186 21.6627 25.9547 21.8988 25.9547 22.1901ZM25.9547 19.9494C25.9547 20.2407 25.7186 20.4768 25.4273 20.4768H21.7563C21.465 20.4768 21.2289 20.2407 21.2289 19.9494C21.2289 19.6582 21.465 19.4221 21.7563 19.4221H25.4273C25.7186 19.4221 25.9547 19.6582 25.9547 19.9494Z" fill="white"/>
</g>
<defs>
<clipPath id="clip0_19674_513969">
<rect width="18.5846" height="18" fill="white" transform="translate(11.3574 11)"/>
</clipPath>
</defs>
</svg>
