<svg width="32" height="32" viewBox="0 0 32 32" fill="none" xmlns="http://www.w3.org/2000/svg">
<circle cx="15.9993" cy="16.0013" r="13.3333" fill="#29BF12"/>
<path d="M15.9993 2.66797C8.65268 2.66797 2.66602 8.65464 2.66602 16.0013C2.66602 23.348 8.65268 29.3346 15.9993 29.3346C23.346 29.3346 29.3327 23.348 29.3327 16.0013C29.3327 8.65464 23.346 2.66797 15.9993 2.66797ZM22.3727 12.9346L14.8127 20.4946C14.626 20.6813 14.3727 20.788 14.106 20.788C13.8393 20.788 13.586 20.6813 13.3993 20.4946L9.62602 16.7213C9.23935 16.3346 9.23935 15.6946 9.62602 15.308C10.0127 14.9213 10.6527 14.9213 11.0393 15.308L14.106 18.3746L20.9594 11.5213C21.346 11.1346 21.986 11.1346 22.3727 11.5213C22.7593 11.908 22.7593 12.5346 22.3727 12.9346Z" fill="#EFFDEC"/>
</svg>
