<svg width="40" height="40" viewBox="0 0 40 40" fill="none" xmlns="http://www.w3.org/2000/svg">
<circle cx="20" cy="20" r="20" fill="white"/>
<ellipse cx="20" cy="20" rx="16" ry="16" fill="#0235CD"/>
<g clip-path="url(#clip0_19674_513953)">
<path d="M15.8086 13.627V11H15.8081L13.1816 13.6264V13.627H15.8086Z" fill="white"/>
<path d="M15.9492 19.3574H18.3513V23.9044H15.9492V19.3574Z" fill="white"/>
<path d="M17.5061 11C17.1511 11 16.8633 11.2878 16.8633 11.6429V14.0388C16.8633 14.3939 16.5755 14.6817 16.2204 14.6817H13.8245C13.4695 14.6817 13.1816 14.9695 13.1816 15.3245V28.3571C13.1816 28.7122 13.4695 29 13.8245 29H26.1743C26.5294 29 26.8172 28.7122 26.8172 28.3571V11.6429C26.8172 11.2878 26.5294 11 26.1743 11H17.5061ZM19.4064 24.3152C19.4064 24.6702 19.1186 24.958 18.7636 24.958H15.5378C15.1828 24.958 14.895 24.6702 14.895 24.3152V18.9446C14.895 18.5895 15.1828 18.3017 15.5378 18.3017H18.7636C19.1186 18.3017 19.4064 18.5895 19.4064 18.9446V24.3152ZM25.1367 24.4307C25.1367 24.722 24.9006 24.958 24.6094 24.958H21.0869C20.7957 24.958 20.5596 24.722 20.5596 24.4307C20.5596 24.1395 20.7957 23.9034 21.0869 23.9034H24.6094C24.9006 23.9034 25.1367 24.1395 25.1367 24.4307ZM25.1367 22.1901C25.1367 22.4813 24.9006 22.7174 24.6094 22.7174H21.0869C20.7957 22.7174 20.5596 22.4813 20.5596 22.1901C20.5596 21.8988 20.7957 21.6627 21.0869 21.6627H24.6094C24.9006 21.6627 25.1367 21.8988 25.1367 22.1901ZM25.1367 19.9494C25.1367 20.2407 24.9006 20.4768 24.6094 20.4768H21.0869C20.7957 20.4768 20.5596 20.2407 20.5596 19.9494C20.5596 19.6582 20.7957 19.4221 21.0869 19.4221H24.6094C24.9006 19.4221 25.1367 19.6582 25.1367 19.9494Z" fill="white"/>
</g>
<defs>
<clipPath id="clip0_19674_513953">
<rect width="18" height="18" fill="white" transform="translate(11 11)"/>
</clipPath>
</defs>
</svg>
