<svg width="32" height="32" viewBox="0 0 32 32" fill="none" xmlns="http://www.w3.org/2000/svg">
<circle cx="15.9993" cy="16.0013" r="13.3333" fill="#D1292D"/>
<path d="M15.9993 2.66797C8.65268 2.66797 2.66602 8.65464 2.66602 16.0013C2.66602 23.348 8.65268 29.3346 15.9993 29.3346C23.346 29.3346 29.3327 23.348 29.3327 16.0013C29.3327 8.65464 23.346 2.66797 15.9993 2.66797ZM20.4793 19.068C20.866 19.4546 20.866 20.0946 20.4793 20.4813C20.2793 20.6813 20.026 20.7746 19.7727 20.7746C19.5194 20.7746 19.266 20.6813 19.066 20.4813L15.9993 17.4146L12.9327 20.4813C12.7327 20.6813 12.4793 20.7746 12.226 20.7746C11.9727 20.7746 11.7193 20.6813 11.5194 20.4813C11.1327 20.0946 11.1327 19.4546 11.5194 19.068L14.586 16.0013L11.5194 12.9346C11.1327 12.548 11.1327 11.908 11.5194 11.5213C11.906 11.1346 12.546 11.1346 12.9327 11.5213L15.9993 14.588L19.066 11.5213C19.4527 11.1346 20.0927 11.1346 20.4793 11.5213C20.866 11.908 20.866 12.548 20.4793 12.9346L17.4127 16.0013L20.4793 19.068Z" fill="#FDF2F3"/>
</svg>
