<svg width="30" height="30" viewBox="0 0 30 30" fill="none" xmlns="http://www.w3.org/2000/svg">
<rect x="1" y="1" width="28" height="28" rx="4" fill="#EBF0FF"/>
<rect x="1" y="1" width="28" height="28" rx="4" stroke="#0235CD"/>
<path d="M17.3866 14.9999C17.3866 16.3199 16.3199 17.3866 14.9999 17.3866C13.6799 17.3866 12.6133 16.3199 12.6133 14.9999C12.6133 13.6799 13.6799 12.6133 14.9999 12.6133C16.3199 12.6133 17.3866 13.6799 17.3866 14.9999Z" stroke="#0235CD" stroke-linecap="round" stroke-linejoin="round"/>
<path d="M14.9999 20.5138C17.3532 20.5138 19.5466 19.1271 21.0732 16.7271C21.6732 15.7871 21.6732 14.2071 21.0732 13.2671C19.5466 10.8671 17.3532 9.48047 14.9999 9.48047C12.6466 9.48047 10.4532 10.8671 8.92656 13.2671C8.32656 14.2071 8.32656 15.7871 8.92656 16.7271C10.4532 19.1271 12.6466 20.5138 14.9999 20.5138Z" stroke="#0235CD" stroke-linecap="round" stroke-linejoin="round"/>
</svg>
